<?xml version="1.0" encoding="utf-8"?>
<svg xmlns="http://www.w3.org/2000/svg" xmlns:xlink="http://www.w3.org/1999/xlink" width="600" height="400" viewBox="0 0 2400 1600">
<defs>
  <clipPath id="clip550">
    <rect x="0" y="0" width="2400" height="1600"/>
  </clipPath>
</defs>
<path clip-path="url(#clip550)" d="M0 1600 L2400 1600 L2400 0 L0 0  Z" fill="#000000" fill-rule="evenodd" fill-opacity="1"/>
<defs>
  <clipPath id="clip551">
    <rect x="480" y="0" width="1681" height="1600"/>
  </clipPath>
</defs>
<path clip-path="url(#clip550)" d="M292.713 1423.18 L2352.76 1423.18 L2352.76 123.472 L292.713 123.472  Z" fill="#000000" fill-rule="evenodd" fill-opacity="1"/>
<defs>
  <clipPath id="clip552">
    <rect x="292" y="123" width="2061" height="1301"/>
  </clipPath>
</defs>
<polyline clip-path="url(#clip552)" style="stroke:#ffffff; stroke-linecap:round; stroke-linejoin:round; stroke-width:2; stroke-opacity:0.1; fill:none" points="316.312,1423.18 316.312,123.472 "/>
<polyline clip-path="url(#clip552)" style="stroke:#ffffff; stroke-linecap:round; stroke-linejoin:round; stroke-width:2; stroke-opacity:0.1; fill:none" points="663.354,1423.18 663.354,123.472 "/>
<polyline clip-path="url(#clip552)" style="stroke:#ffffff; stroke-linecap:round; stroke-linejoin:round; stroke-width:2; stroke-opacity:0.1; fill:none" points="1010.4,1423.18 1010.4,123.472 "/>
<polyline clip-path="url(#clip552)" style="stroke:#ffffff; stroke-linecap:round; stroke-linejoin:round; stroke-width:2; stroke-opacity:0.1; fill:none" points="1357.44,1423.18 1357.44,123.472 "/>
<polyline clip-path="url(#clip552)" style="stroke:#ffffff; stroke-linecap:round; stroke-linejoin:round; stroke-width:2; stroke-opacity:0.1; fill:none" points="1704.48,1423.18 1704.48,123.472 "/>
<polyline clip-path="url(#clip552)" style="stroke:#ffffff; stroke-linecap:round; stroke-linejoin:round; stroke-width:2; stroke-opacity:0.1; fill:none" points="2051.52,1423.18 2051.52,123.472 "/>
<polyline clip-path="url(#clip550)" style="stroke:#ffffff; stroke-linecap:round; stroke-linejoin:round; stroke-width:4; stroke-opacity:1; fill:none" points="292.713,1423.18 2352.76,1423.18 "/>
<polyline clip-path="url(#clip550)" style="stroke:#ffffff; stroke-linecap:round; stroke-linejoin:round; stroke-width:4; stroke-opacity:1; fill:none" points="316.312,1423.18 316.312,1404.28 "/>
<polyline clip-path="url(#clip550)" style="stroke:#ffffff; stroke-linecap:round; stroke-linejoin:round; stroke-width:4; stroke-opacity:1; fill:none" points="663.354,1423.18 663.354,1404.28 "/>
<polyline clip-path="url(#clip550)" style="stroke:#ffffff; stroke-linecap:round; stroke-linejoin:round; stroke-width:4; stroke-opacity:1; fill:none" points="1010.4,1423.18 1010.4,1404.28 "/>
<polyline clip-path="url(#clip550)" style="stroke:#ffffff; stroke-linecap:round; stroke-linejoin:round; stroke-width:4; stroke-opacity:1; fill:none" points="1357.44,1423.18 1357.44,1404.28 "/>
<polyline clip-path="url(#clip550)" style="stroke:#ffffff; stroke-linecap:round; stroke-linejoin:round; stroke-width:4; stroke-opacity:1; fill:none" points="1704.48,1423.18 1704.48,1404.28 "/>
<polyline clip-path="url(#clip550)" style="stroke:#ffffff; stroke-linecap:round; stroke-linejoin:round; stroke-width:4; stroke-opacity:1; fill:none" points="2051.52,1423.18 2051.52,1404.28 "/>
<path clip-path="url(#clip550)" d="M316.312 1454.1 Q312.701 1454.1 310.872 1457.66 Q309.067 1461.2 309.067 1468.33 Q309.067 1475.44 310.872 1479.01 Q312.701 1482.55 316.312 1482.55 Q319.946 1482.55 321.752 1479.01 Q323.58 1475.44 323.58 1468.33 Q323.58 1461.2 321.752 1457.66 Q319.946 1454.1 316.312 1454.1 M316.312 1450.39 Q322.122 1450.39 325.178 1455 Q328.256 1459.58 328.256 1468.33 Q328.256 1477.06 325.178 1481.67 Q322.122 1486.25 316.312 1486.25 Q310.502 1486.25 307.423 1481.67 Q304.368 1477.06 304.368 1468.33 Q304.368 1459.58 307.423 1455 Q310.502 1450.39 316.312 1450.39 Z" fill="#ffffff" fill-rule="nonzero" fill-opacity="1" /><path clip-path="url(#clip550)" d="M638.042 1481.64 L645.681 1481.64 L645.681 1455.28 L637.371 1456.95 L637.371 1452.69 L645.634 1451.02 L650.31 1451.02 L650.31 1481.64 L657.949 1481.64 L657.949 1485.58 L638.042 1485.58 L638.042 1481.64 Z" fill="#ffffff" fill-rule="nonzero" fill-opacity="1" /><path clip-path="url(#clip550)" d="M677.393 1454.1 Q673.782 1454.1 671.954 1457.66 Q670.148 1461.2 670.148 1468.33 Q670.148 1475.44 671.954 1479.01 Q673.782 1482.55 677.393 1482.55 Q681.028 1482.55 682.833 1479.01 Q684.662 1475.44 684.662 1468.33 Q684.662 1461.2 682.833 1457.66 Q681.028 1454.1 677.393 1454.1 M677.393 1450.39 Q683.204 1450.39 686.259 1455 Q689.338 1459.58 689.338 1468.33 Q689.338 1477.06 686.259 1481.67 Q683.204 1486.25 677.393 1486.25 Q671.583 1486.25 668.505 1481.67 Q665.449 1477.06 665.449 1468.33 Q665.449 1459.58 668.505 1455 Q671.583 1450.39 677.393 1450.39 Z" fill="#ffffff" fill-rule="nonzero" fill-opacity="1" /><path clip-path="url(#clip550)" d="M989.17 1481.64 L1005.49 1481.64 L1005.49 1485.58 L983.545 1485.58 L983.545 1481.64 Q986.207 1478.89 990.79 1474.26 Q995.397 1469.61 996.577 1468.27 Q998.822 1465.74 999.702 1464.01 Q1000.6 1462.25 1000.6 1460.56 Q1000.6 1457.8 998.66 1456.07 Q996.739 1454.33 993.637 1454.33 Q991.438 1454.33 988.985 1455.09 Q986.554 1455.86 983.776 1457.41 L983.776 1452.69 Q986.6 1451.55 989.054 1450.97 Q991.508 1450.39 993.545 1450.39 Q998.915 1450.39 1002.11 1453.08 Q1005.3 1455.77 1005.3 1460.26 Q1005.3 1462.39 1004.49 1464.31 Q1003.71 1466.2 1001.6 1468.8 Q1001.02 1469.47 997.92 1472.69 Q994.818 1475.88 989.17 1481.64 Z" fill="#ffffff" fill-rule="nonzero" fill-opacity="1" /><path clip-path="url(#clip550)" d="M1025.3 1454.1 Q1021.69 1454.1 1019.86 1457.66 Q1018.06 1461.2 1018.06 1468.33 Q1018.06 1475.44 1019.86 1479.01 Q1021.69 1482.55 1025.3 1482.55 Q1028.94 1482.55 1030.74 1479.01 Q1032.57 1475.44 1032.57 1468.33 Q1032.57 1461.2 1030.74 1457.66 Q1028.94 1454.1 1025.3 1454.1 M1025.3 1450.39 Q1031.11 1450.39 1034.17 1455 Q1037.25 1459.58 1037.25 1468.33 Q1037.25 1477.06 1034.17 1481.67 Q1031.11 1486.25 1025.3 1486.25 Q1019.49 1486.25 1016.41 1481.67 Q1013.36 1477.06 1013.36 1468.33 Q1013.36 1459.58 1016.41 1455 Q1019.49 1450.39 1025.3 1450.39 Z" fill="#ffffff" fill-rule="nonzero" fill-opacity="1" /><path clip-path="url(#clip550)" d="M1346.28 1466.95 Q1349.64 1467.66 1351.51 1469.93 Q1353.41 1472.2 1353.41 1475.53 Q1353.41 1480.65 1349.89 1483.45 Q1346.37 1486.25 1339.89 1486.25 Q1337.72 1486.25 1335.4 1485.81 Q1333.11 1485.39 1330.66 1484.54 L1330.66 1480.02 Q1332.6 1481.16 1334.92 1481.74 Q1337.23 1482.32 1339.75 1482.32 Q1344.15 1482.32 1346.44 1480.58 Q1348.76 1478.84 1348.76 1475.53 Q1348.76 1472.48 1346.61 1470.77 Q1344.48 1469.03 1340.66 1469.03 L1336.63 1469.03 L1336.63 1465.19 L1340.84 1465.19 Q1344.29 1465.19 1346.12 1463.82 Q1347.95 1462.43 1347.95 1459.84 Q1347.95 1457.18 1346.05 1455.77 Q1344.17 1454.33 1340.66 1454.33 Q1338.74 1454.33 1336.54 1454.75 Q1334.34 1455.16 1331.7 1456.04 L1331.7 1451.88 Q1334.36 1451.14 1336.67 1450.77 Q1339.01 1450.39 1341.07 1450.39 Q1346.4 1450.39 1349.5 1452.83 Q1352.6 1455.23 1352.6 1459.35 Q1352.6 1462.22 1350.96 1464.21 Q1349.31 1466.18 1346.28 1466.95 Z" fill="#ffffff" fill-rule="nonzero" fill-opacity="1" /><path clip-path="url(#clip550)" d="M1372.28 1454.1 Q1368.67 1454.1 1366.84 1457.66 Q1365.03 1461.2 1365.03 1468.33 Q1365.03 1475.44 1366.84 1479.01 Q1368.67 1482.55 1372.28 1482.55 Q1375.91 1482.55 1377.72 1479.01 Q1379.55 1475.44 1379.55 1468.33 Q1379.55 1461.2 1377.72 1457.66 Q1375.91 1454.1 1372.28 1454.1 M1372.28 1450.39 Q1378.09 1450.39 1381.14 1455 Q1384.22 1459.58 1384.22 1468.33 Q1384.22 1477.06 1381.14 1481.67 Q1378.09 1486.25 1372.28 1486.25 Q1366.47 1486.25 1363.39 1481.67 Q1360.33 1477.06 1360.33 1468.33 Q1360.33 1459.58 1363.39 1455 Q1366.47 1450.39 1372.28 1450.39 Z" fill="#ffffff" fill-rule="nonzero" fill-opacity="1" /><path clip-path="url(#clip550)" d="M1692.65 1455.09 L1680.85 1473.54 L1692.65 1473.54 L1692.65 1455.09 M1691.43 1451.02 L1697.31 1451.02 L1697.31 1473.54 L1702.24 1473.54 L1702.24 1477.43 L1697.31 1477.43 L1697.31 1485.58 L1692.65 1485.58 L1692.65 1477.43 L1677.05 1477.43 L1677.05 1472.92 L1691.43 1451.02 Z" fill="#ffffff" fill-rule="nonzero" fill-opacity="1" /><path clip-path="url(#clip550)" d="M1719.97 1454.1 Q1716.36 1454.1 1714.53 1457.66 Q1712.72 1461.2 1712.72 1468.33 Q1712.72 1475.44 1714.53 1479.01 Q1716.36 1482.55 1719.97 1482.55 Q1723.6 1482.55 1725.41 1479.01 Q1727.24 1475.44 1727.24 1468.33 Q1727.24 1461.2 1725.41 1457.66 Q1723.6 1454.1 1719.97 1454.1 M1719.97 1450.39 Q1725.78 1450.39 1728.83 1455 Q1731.91 1459.58 1731.91 1468.33 Q1731.91 1477.06 1728.83 1481.67 Q1725.78 1486.25 1719.97 1486.25 Q1714.16 1486.25 1711.08 1481.67 Q1708.02 1477.06 1708.02 1468.33 Q1708.02 1459.58 1711.08 1455 Q1714.16 1450.39 1719.97 1450.39 Z" fill="#ffffff" fill-rule="nonzero" fill-opacity="1" /><path clip-path="url(#clip550)" d="M2026.22 1451.02 L2044.58 1451.02 L2044.58 1454.96 L2030.5 1454.96 L2030.5 1463.43 Q2031.52 1463.08 2032.54 1462.92 Q2033.56 1462.73 2034.58 1462.73 Q2040.37 1462.73 2043.75 1465.9 Q2047.13 1469.08 2047.13 1474.49 Q2047.13 1480.07 2043.65 1483.17 Q2040.18 1486.25 2033.86 1486.25 Q2031.69 1486.25 2029.42 1485.88 Q2027.17 1485.51 2024.76 1484.77 L2024.76 1480.07 Q2026.85 1481.2 2029.07 1481.76 Q2031.29 1482.32 2033.77 1482.32 Q2037.77 1482.32 2040.11 1480.21 Q2042.45 1478.1 2042.45 1474.49 Q2042.45 1470.88 2040.11 1468.77 Q2037.77 1466.67 2033.77 1466.67 Q2031.89 1466.67 2030.02 1467.08 Q2028.17 1467.5 2026.22 1468.38 L2026.22 1451.02 Z" fill="#ffffff" fill-rule="nonzero" fill-opacity="1" /><path clip-path="url(#clip550)" d="M2066.34 1454.1 Q2062.73 1454.1 2060.9 1457.66 Q2059.09 1461.2 2059.09 1468.33 Q2059.09 1475.44 2060.9 1479.01 Q2062.73 1482.55 2066.34 1482.55 Q2069.97 1482.55 2071.78 1479.01 Q2073.61 1475.44 2073.61 1468.33 Q2073.61 1461.2 2071.78 1457.66 Q2069.97 1454.1 2066.34 1454.1 M2066.34 1450.39 Q2072.15 1450.39 2075.2 1455 Q2078.28 1459.58 2078.28 1468.33 Q2078.28 1477.06 2075.2 1481.67 Q2072.15 1486.25 2066.34 1486.25 Q2060.53 1486.25 2057.45 1481.67 Q2054.39 1477.06 2054.39 1468.33 Q2054.39 1459.58 2057.45 1455 Q2060.53 1450.39 2066.34 1450.39 Z" fill="#ffffff" fill-rule="nonzero" fill-opacity="1" /><path clip-path="url(#clip550)" d="M1159.6 1531.91 Q1159.6 1532.81 1159.18 1533.04 Q1158.76 1533.23 1157.61 1533.23 L1151.42 1533.23 L1146.53 1552.69 Q1146.14 1554.39 1146.14 1555.84 Q1146.14 1557.45 1146.62 1558.16 Q1147.14 1558.87 1148.2 1558.87 Q1150.29 1558.87 1152.55 1556.97 Q1154.84 1555.07 1156.77 1550.43 Q1157.03 1549.82 1157.15 1549.69 Q1157.32 1549.53 1157.73 1549.53 Q1158.54 1549.53 1158.54 1550.17 Q1158.54 1550.4 1158.09 1551.43 Q1157.67 1552.46 1156.74 1553.97 Q1155.83 1555.49 1154.64 1556.9 Q1153.48 1558.32 1151.71 1559.35 Q1149.94 1560.35 1148.04 1560.35 Q1145.37 1560.35 1143.66 1558.64 Q1141.99 1556.94 1141.99 1554.26 Q1141.99 1553.39 1142.66 1550.62 Q1143.34 1547.82 1147.01 1533.23 L1141.18 1533.23 Q1140.38 1533.23 1140.05 1533.2 Q1139.76 1533.17 1139.54 1533.01 Q1139.34 1532.81 1139.34 1532.43 Q1139.34 1531.82 1139.6 1531.56 Q1139.86 1531.27 1140.18 1531.24 Q1140.54 1531.17 1141.34 1531.17 L1147.52 1531.17 L1150.1 1520.71 Q1150.36 1519.67 1151 1519.09 Q1151.68 1518.48 1152.07 1518.42 Q1152.45 1518.32 1152.74 1518.32 Q1153.61 1518.32 1154.13 1518.81 Q1154.64 1519.26 1154.64 1520.09 Q1154.64 1520.54 1151.94 1531.17 L1157.73 1531.17 Q1158.47 1531.17 1158.76 1531.2 Q1159.09 1531.24 1159.34 1531.4 Q1159.6 1531.56 1159.6 1531.91 Z" fill="#ffffff" fill-rule="nonzero" fill-opacity="1" /><path clip-path="url(#clip550)" d="M1189.78 1523.96 L1195.64 1523.96 L1195.64 1559.61 L1189.78 1559.61 L1189.78 1523.96 M1189.78 1510.08 L1195.64 1510.08 L1195.64 1517.5 L1189.78 1517.5 L1189.78 1510.08 Z" fill="#ffffff" fill-rule="nonzero" fill-opacity="1" /><path clip-path="url(#clip550)" d="M1237.52 1538.09 L1237.52 1559.61 L1231.67 1559.61 L1231.67 1538.28 Q1231.67 1533.22 1229.69 1530.71 Q1227.72 1528.2 1223.77 1528.2 Q1219.03 1528.2 1216.29 1531.22 Q1213.56 1534.24 1213.56 1539.46 L1213.56 1559.61 L1207.67 1559.61 L1207.67 1523.96 L1213.56 1523.96 L1213.56 1529.5 Q1215.66 1526.29 1218.49 1524.69 Q1221.35 1523.1 1225.08 1523.1 Q1231.22 1523.1 1234.37 1526.92 Q1237.52 1530.71 1237.52 1538.09 Z" fill="#ffffff" fill-rule="nonzero" fill-opacity="1" /><path clip-path="url(#clip550)" d="M1297.68 1530.81 Q1299.88 1526.86 1302.93 1524.98 Q1305.99 1523.1 1310.12 1523.1 Q1315.69 1523.1 1318.72 1527.02 Q1321.74 1530.9 1321.74 1538.09 L1321.74 1559.61 L1315.85 1559.61 L1315.85 1538.28 Q1315.85 1533.16 1314.04 1530.68 Q1312.23 1528.2 1308.5 1528.2 Q1303.95 1528.2 1301.31 1531.22 Q1298.67 1534.24 1298.67 1539.46 L1298.67 1559.61 L1292.78 1559.61 L1292.78 1538.28 Q1292.78 1533.13 1290.96 1530.68 Q1289.15 1528.2 1285.36 1528.2 Q1280.87 1528.2 1278.23 1531.25 Q1275.59 1534.27 1275.59 1539.46 L1275.59 1559.61 L1269.7 1559.61 L1269.7 1523.96 L1275.59 1523.96 L1275.59 1529.5 Q1277.6 1526.22 1280.4 1524.66 Q1283.2 1523.1 1287.05 1523.1 Q1290.93 1523.1 1293.64 1525.08 Q1296.37 1527.05 1297.68 1530.81 Z" fill="#ffffff" fill-rule="nonzero" fill-opacity="1" /><path clip-path="url(#clip550)" d="M1347.24 1528.07 Q1342.53 1528.07 1339.79 1531.76 Q1337.05 1535.42 1337.05 1541.82 Q1337.05 1548.22 1339.76 1551.91 Q1342.49 1555.57 1347.24 1555.57 Q1351.92 1555.57 1354.65 1551.88 Q1357.39 1548.18 1357.39 1541.82 Q1357.39 1535.48 1354.65 1531.79 Q1351.92 1528.07 1347.24 1528.07 M1347.24 1523.1 Q1354.88 1523.1 1359.24 1528.07 Q1363.6 1533.03 1363.6 1541.82 Q1363.6 1550.57 1359.24 1555.57 Q1354.88 1560.53 1347.24 1560.53 Q1339.57 1560.53 1335.21 1555.57 Q1330.88 1550.57 1330.88 1541.82 Q1330.88 1533.03 1335.21 1528.07 Q1339.57 1523.1 1347.24 1523.1 Z" fill="#ffffff" fill-rule="nonzero" fill-opacity="1" /><path clip-path="url(#clip550)" d="M1402.94 1538.09 L1402.94 1559.61 L1397.08 1559.61 L1397.08 1538.28 Q1397.08 1533.22 1395.11 1530.71 Q1393.13 1528.2 1389.19 1528.2 Q1384.44 1528.2 1381.71 1531.22 Q1378.97 1534.24 1378.97 1539.46 L1378.97 1559.61 L1373.08 1559.61 L1373.08 1523.96 L1378.97 1523.96 L1378.97 1529.5 Q1381.07 1526.29 1383.9 1524.69 Q1386.77 1523.1 1390.49 1523.1 Q1396.63 1523.1 1399.79 1526.92 Q1402.94 1530.71 1402.94 1538.09 Z" fill="#ffffff" fill-rule="nonzero" fill-opacity="1" /><path clip-path="url(#clip550)" d="M1420.41 1513.84 L1420.41 1523.96 L1432.47 1523.96 L1432.47 1528.51 L1420.41 1528.51 L1420.41 1547.87 Q1420.41 1552.23 1421.59 1553.47 Q1422.8 1554.71 1426.46 1554.71 L1432.47 1554.71 L1432.47 1559.61 L1426.46 1559.61 Q1419.68 1559.61 1417.1 1557.1 Q1414.52 1554.55 1414.52 1547.87 L1414.52 1528.51 L1410.23 1528.51 L1410.23 1523.96 L1414.52 1523.96 L1414.52 1513.84 L1420.41 1513.84 Z" fill="#ffffff" fill-rule="nonzero" fill-opacity="1" /><path clip-path="url(#clip550)" d="M1469.81 1538.09 L1469.81 1559.61 L1463.95 1559.61 L1463.95 1538.28 Q1463.95 1533.22 1461.98 1530.71 Q1460 1528.2 1456.06 1528.2 Q1451.32 1528.2 1448.58 1531.22 Q1445.84 1534.24 1445.84 1539.46 L1445.84 1559.61 L1439.95 1559.61 L1439.95 1510.08 L1445.84 1510.08 L1445.84 1529.5 Q1447.94 1526.29 1450.77 1524.69 Q1453.64 1523.1 1457.36 1523.1 Q1463.51 1523.1 1466.66 1526.92 Q1469.81 1530.71 1469.81 1538.09 Z" fill="#ffffff" fill-rule="nonzero" fill-opacity="1" /><path clip-path="url(#clip550)" d="M1504.21 1525.01 L1504.21 1530.55 Q1501.73 1529.28 1499.06 1528.64 Q1496.38 1528 1493.52 1528 Q1489.16 1528 1486.96 1529.34 Q1484.8 1530.68 1484.8 1533.35 Q1484.8 1535.39 1486.36 1536.57 Q1487.92 1537.71 1492.63 1538.76 L1494.63 1539.21 Q1500.87 1540.54 1503.48 1543 Q1506.12 1545.41 1506.12 1549.77 Q1506.12 1554.74 1502.18 1557.64 Q1498.26 1560.53 1491.39 1560.53 Q1488.52 1560.53 1485.4 1559.96 Q1482.32 1559.42 1478.88 1558.3 L1478.88 1552.26 Q1482.13 1553.94 1485.28 1554.8 Q1488.43 1555.63 1491.52 1555.63 Q1495.65 1555.63 1497.88 1554.23 Q1500.11 1552.8 1500.11 1550.22 Q1500.11 1547.83 1498.49 1546.56 Q1496.89 1545.29 1491.45 1544.11 L1489.41 1543.63 Q1483.97 1542.49 1481.55 1540.13 Q1479.13 1537.74 1479.13 1533.61 Q1479.13 1528.58 1482.7 1525.84 Q1486.26 1523.1 1492.82 1523.1 Q1496.07 1523.1 1498.93 1523.58 Q1501.8 1524.06 1504.21 1525.01 Z" fill="#ffffff" fill-rule="nonzero" fill-opacity="1" /><polyline clip-path="url(#clip552)" style="stroke:#ffffff; stroke-linecap:round; stroke-linejoin:round; stroke-width:2; stroke-opacity:0.1; fill:none" points="292.713,1312.77 2352.76,1312.77 "/>
<polyline clip-path="url(#clip552)" style="stroke:#ffffff; stroke-linecap:round; stroke-linejoin:round; stroke-width:2; stroke-opacity:0.1; fill:none" points="292.713,1050.86 2352.76,1050.86 "/>
<polyline clip-path="url(#clip552)" style="stroke:#ffffff; stroke-linecap:round; stroke-linejoin:round; stroke-width:2; stroke-opacity:0.1; fill:none" points="292.713,788.948 2352.76,788.948 "/>
<polyline clip-path="url(#clip552)" style="stroke:#ffffff; stroke-linecap:round; stroke-linejoin:round; stroke-width:2; stroke-opacity:0.1; fill:none" points="292.713,527.037 2352.76,527.037 "/>
<polyline clip-path="url(#clip552)" style="stroke:#ffffff; stroke-linecap:round; stroke-linejoin:round; stroke-width:2; stroke-opacity:0.1; fill:none" points="292.713,265.126 2352.76,265.126 "/>
<polyline clip-path="url(#clip550)" style="stroke:#ffffff; stroke-linecap:round; stroke-linejoin:round; stroke-width:4; stroke-opacity:1; fill:none" points="292.713,1423.18 292.713,123.472 "/>
<polyline clip-path="url(#clip550)" style="stroke:#ffffff; stroke-linecap:round; stroke-linejoin:round; stroke-width:4; stroke-opacity:1; fill:none" points="292.713,1312.77 311.611,1312.77 "/>
<polyline clip-path="url(#clip550)" style="stroke:#ffffff; stroke-linecap:round; stroke-linejoin:round; stroke-width:4; stroke-opacity:1; fill:none" points="292.713,1050.86 311.611,1050.86 "/>
<polyline clip-path="url(#clip550)" style="stroke:#ffffff; stroke-linecap:round; stroke-linejoin:round; stroke-width:4; stroke-opacity:1; fill:none" points="292.713,788.948 311.611,788.948 "/>
<polyline clip-path="url(#clip550)" style="stroke:#ffffff; stroke-linecap:round; stroke-linejoin:round; stroke-width:4; stroke-opacity:1; fill:none" points="292.713,527.037 311.611,527.037 "/>
<polyline clip-path="url(#clip550)" style="stroke:#ffffff; stroke-linecap:round; stroke-linejoin:round; stroke-width:4; stroke-opacity:1; fill:none" points="292.713,265.126 311.611,265.126 "/>
<path clip-path="url(#clip550)" d="M244.769 1298.57 Q241.158 1298.57 239.329 1302.13 Q237.523 1305.68 237.523 1312.81 Q237.523 1319.91 239.329 1323.48 Q241.158 1327.02 244.769 1327.02 Q248.403 1327.02 250.209 1323.48 Q252.037 1319.91 252.037 1312.81 Q252.037 1305.68 250.209 1302.13 Q248.403 1298.57 244.769 1298.57 M244.769 1294.87 Q250.579 1294.87 253.634 1299.47 Q256.713 1304.06 256.713 1312.81 Q256.713 1321.53 253.634 1326.14 Q250.579 1330.72 244.769 1330.72 Q238.959 1330.72 235.88 1326.14 Q232.824 1321.53 232.824 1312.81 Q232.824 1304.06 235.88 1299.47 Q238.959 1294.87 244.769 1294.87 Z" fill="#ffffff" fill-rule="nonzero" fill-opacity="1" /><path clip-path="url(#clip550)" d="M148.311 1064.2 L164.63 1064.2 L164.63 1068.14 L142.686 1068.14 L142.686 1064.2 Q145.348 1061.45 149.931 1056.82 Q154.538 1052.17 155.718 1050.83 Q157.964 1048.3 158.843 1046.57 Q159.746 1044.81 159.746 1043.12 Q159.746 1040.36 157.802 1038.63 Q155.88 1036.89 152.778 1036.89 Q150.579 1036.89 148.126 1037.65 Q145.695 1038.42 142.917 1039.97 L142.917 1035.25 Q145.741 1034.11 148.195 1033.53 Q150.649 1032.95 152.686 1032.95 Q158.056 1032.95 161.251 1035.64 Q164.445 1038.33 164.445 1042.82 Q164.445 1044.95 163.635 1046.87 Q162.848 1048.76 160.741 1051.36 Q160.163 1052.03 157.061 1055.25 Q153.959 1058.44 148.311 1064.2 Z" fill="#ffffff" fill-rule="nonzero" fill-opacity="1" /><path clip-path="url(#clip550)" d="M174.491 1033.58 L192.848 1033.58 L192.848 1037.52 L178.774 1037.52 L178.774 1045.99 Q179.792 1045.64 180.811 1045.48 Q181.829 1045.29 182.848 1045.29 Q188.635 1045.29 192.014 1048.46 Q195.394 1051.64 195.394 1057.05 Q195.394 1062.63 191.922 1065.73 Q188.45 1068.81 182.13 1068.81 Q179.954 1068.81 177.686 1068.44 Q175.44 1068.07 173.033 1067.33 L173.033 1062.63 Q175.116 1063.76 177.339 1064.32 Q179.561 1064.88 182.038 1064.88 Q186.042 1064.88 188.38 1062.77 Q190.718 1060.66 190.718 1057.05 Q190.718 1053.44 188.38 1051.33 Q186.042 1049.23 182.038 1049.23 Q180.163 1049.23 178.288 1049.64 Q176.436 1050.06 174.491 1050.94 L174.491 1033.58 Z" fill="#ffffff" fill-rule="nonzero" fill-opacity="1" /><path clip-path="url(#clip550)" d="M214.607 1036.66 Q210.996 1036.66 209.167 1040.22 Q207.362 1043.77 207.362 1050.89 Q207.362 1058 209.167 1061.57 Q210.996 1065.11 214.607 1065.11 Q218.241 1065.11 220.047 1061.57 Q221.875 1058 221.875 1050.89 Q221.875 1043.77 220.047 1040.22 Q218.241 1036.66 214.607 1036.66 M214.607 1032.95 Q220.417 1032.95 223.473 1037.56 Q226.551 1042.14 226.551 1050.89 Q226.551 1059.62 223.473 1064.23 Q220.417 1068.81 214.607 1068.81 Q208.797 1068.81 205.718 1064.23 Q202.662 1059.62 202.662 1050.89 Q202.662 1042.14 205.718 1037.56 Q208.797 1032.95 214.607 1032.95 Z" fill="#ffffff" fill-rule="nonzero" fill-opacity="1" /><path clip-path="url(#clip550)" d="M244.769 1036.66 Q241.158 1036.66 239.329 1040.22 Q237.523 1043.77 237.523 1050.89 Q237.523 1058 239.329 1061.57 Q241.158 1065.11 244.769 1065.11 Q248.403 1065.11 250.209 1061.57 Q252.037 1058 252.037 1050.89 Q252.037 1043.77 250.209 1040.22 Q248.403 1036.66 244.769 1036.66 M244.769 1032.95 Q250.579 1032.95 253.634 1037.56 Q256.713 1042.14 256.713 1050.89 Q256.713 1059.62 253.634 1064.23 Q250.579 1068.81 244.769 1068.81 Q238.959 1068.81 235.88 1064.23 Q232.824 1059.62 232.824 1050.89 Q232.824 1042.14 235.88 1037.56 Q238.959 1032.95 244.769 1032.95 Z" fill="#ffffff" fill-rule="nonzero" fill-opacity="1" /><path clip-path="url(#clip550)" d="M144.329 771.668 L162.686 771.668 L162.686 775.604 L148.612 775.604 L148.612 784.076 Q149.63 783.729 150.649 783.567 Q151.667 783.381 152.686 783.381 Q158.473 783.381 161.852 786.553 Q165.232 789.724 165.232 795.141 Q165.232 800.719 161.76 803.821 Q158.288 806.9 151.968 806.9 Q149.792 806.9 147.524 806.529 Q145.279 806.159 142.871 805.418 L142.871 800.719 Q144.954 801.853 147.177 802.409 Q149.399 802.965 151.876 802.965 Q155.88 802.965 158.218 800.858 Q160.556 798.752 160.556 795.141 Q160.556 791.529 158.218 789.423 Q155.88 787.317 151.876 787.317 Q150.001 787.317 148.126 787.733 Q146.274 788.15 144.329 789.029 L144.329 771.668 Z" fill="#ffffff" fill-rule="nonzero" fill-opacity="1" /><path clip-path="url(#clip550)" d="M184.445 774.747 Q180.834 774.747 179.005 778.312 Q177.2 781.854 177.2 788.983 Q177.2 796.09 179.005 799.654 Q180.834 803.196 184.445 803.196 Q188.079 803.196 189.885 799.654 Q191.713 796.09 191.713 788.983 Q191.713 781.854 189.885 778.312 Q188.079 774.747 184.445 774.747 M184.445 771.043 Q190.255 771.043 193.311 775.65 Q196.389 780.233 196.389 788.983 Q196.389 797.71 193.311 802.316 Q190.255 806.9 184.445 806.9 Q178.635 806.9 175.556 802.316 Q172.501 797.71 172.501 788.983 Q172.501 780.233 175.556 775.65 Q178.635 771.043 184.445 771.043 Z" fill="#ffffff" fill-rule="nonzero" fill-opacity="1" /><path clip-path="url(#clip550)" d="M214.607 774.747 Q210.996 774.747 209.167 778.312 Q207.362 781.854 207.362 788.983 Q207.362 796.09 209.167 799.654 Q210.996 803.196 214.607 803.196 Q218.241 803.196 220.047 799.654 Q221.875 796.09 221.875 788.983 Q221.875 781.854 220.047 778.312 Q218.241 774.747 214.607 774.747 M214.607 771.043 Q220.417 771.043 223.473 775.65 Q226.551 780.233 226.551 788.983 Q226.551 797.71 223.473 802.316 Q220.417 806.9 214.607 806.9 Q208.797 806.9 205.718 802.316 Q202.662 797.71 202.662 788.983 Q202.662 780.233 205.718 775.65 Q208.797 771.043 214.607 771.043 Z" fill="#ffffff" fill-rule="nonzero" fill-opacity="1" /><path clip-path="url(#clip550)" d="M244.769 774.747 Q241.158 774.747 239.329 778.312 Q237.523 781.854 237.523 788.983 Q237.523 796.09 239.329 799.654 Q241.158 803.196 244.769 803.196 Q248.403 803.196 250.209 799.654 Q252.037 796.09 252.037 788.983 Q252.037 781.854 250.209 778.312 Q248.403 774.747 244.769 774.747 M244.769 771.043 Q250.579 771.043 253.634 775.65 Q256.713 780.233 256.713 788.983 Q256.713 797.71 253.634 802.316 Q250.579 806.9 244.769 806.9 Q238.959 806.9 235.88 802.316 Q232.824 797.71 232.824 788.983 Q232.824 780.233 235.88 775.65 Q238.959 771.043 244.769 771.043 Z" fill="#ffffff" fill-rule="nonzero" fill-opacity="1" /><path clip-path="url(#clip550)" d="M143.103 509.757 L165.325 509.757 L165.325 511.748 L152.778 544.317 L147.894 544.317 L159.7 513.692 L143.103 513.692 L143.103 509.757 Z" fill="#ffffff" fill-rule="nonzero" fill-opacity="1" /><path clip-path="url(#clip550)" d="M174.491 509.757 L192.848 509.757 L192.848 513.692 L178.774 513.692 L178.774 522.164 Q179.792 521.817 180.811 521.655 Q181.829 521.47 182.848 521.47 Q188.635 521.47 192.014 524.641 Q195.394 527.813 195.394 533.229 Q195.394 538.808 191.922 541.91 Q188.45 544.988 182.13 544.988 Q179.954 544.988 177.686 544.618 Q175.44 544.248 173.033 543.507 L173.033 538.808 Q175.116 539.942 177.339 540.498 Q179.561 541.053 182.038 541.053 Q186.042 541.053 188.38 538.947 Q190.718 536.84 190.718 533.229 Q190.718 529.618 188.38 527.512 Q186.042 525.405 182.038 525.405 Q180.163 525.405 178.288 525.822 Q176.436 526.238 174.491 527.118 L174.491 509.757 Z" fill="#ffffff" fill-rule="nonzero" fill-opacity="1" /><path clip-path="url(#clip550)" d="M214.607 512.836 Q210.996 512.836 209.167 516.401 Q207.362 519.942 207.362 527.072 Q207.362 534.178 209.167 537.743 Q210.996 541.285 214.607 541.285 Q218.241 541.285 220.047 537.743 Q221.875 534.178 221.875 527.072 Q221.875 519.942 220.047 516.401 Q218.241 512.836 214.607 512.836 M214.607 509.132 Q220.417 509.132 223.473 513.739 Q226.551 518.322 226.551 527.072 Q226.551 535.799 223.473 540.405 Q220.417 544.988 214.607 544.988 Q208.797 544.988 205.718 540.405 Q202.662 535.799 202.662 527.072 Q202.662 518.322 205.718 513.739 Q208.797 509.132 214.607 509.132 Z" fill="#ffffff" fill-rule="nonzero" fill-opacity="1" /><path clip-path="url(#clip550)" d="M244.769 512.836 Q241.158 512.836 239.329 516.401 Q237.523 519.942 237.523 527.072 Q237.523 534.178 239.329 537.743 Q241.158 541.285 244.769 541.285 Q248.403 541.285 250.209 537.743 Q252.037 534.178 252.037 527.072 Q252.037 519.942 250.209 516.401 Q248.403 512.836 244.769 512.836 M244.769 509.132 Q250.579 509.132 253.634 513.739 Q256.713 518.322 256.713 527.072 Q256.713 535.799 253.634 540.405 Q250.579 544.988 244.769 544.988 Q238.959 544.988 235.88 540.405 Q232.824 535.799 232.824 527.072 Q232.824 518.322 235.88 513.739 Q238.959 509.132 244.769 509.132 Z" fill="#ffffff" fill-rule="nonzero" fill-opacity="1" /><path clip-path="url(#clip550)" d="M114.931 278.47 L122.57 278.47 L122.57 252.105 L114.26 253.772 L114.26 249.512 L122.524 247.846 L127.2 247.846 L127.2 278.47 L134.839 278.47 L134.839 282.406 L114.931 282.406 L114.931 278.47 Z" fill="#ffffff" fill-rule="nonzero" fill-opacity="1" /><path clip-path="url(#clip550)" d="M154.283 250.924 Q150.672 250.924 148.843 254.489 Q147.038 258.031 147.038 265.16 Q147.038 272.267 148.843 275.832 Q150.672 279.373 154.283 279.373 Q157.917 279.373 159.723 275.832 Q161.552 272.267 161.552 265.16 Q161.552 258.031 159.723 254.489 Q157.917 250.924 154.283 250.924 M154.283 247.221 Q160.093 247.221 163.149 251.827 Q166.227 256.41 166.227 265.16 Q166.227 273.887 163.149 278.494 Q160.093 283.077 154.283 283.077 Q148.473 283.077 145.394 278.494 Q142.339 273.887 142.339 265.16 Q142.339 256.41 145.394 251.827 Q148.473 247.221 154.283 247.221 Z" fill="#ffffff" fill-rule="nonzero" fill-opacity="1" /><path clip-path="url(#clip550)" d="M184.445 250.924 Q180.834 250.924 179.005 254.489 Q177.2 258.031 177.2 265.16 Q177.2 272.267 179.005 275.832 Q180.834 279.373 184.445 279.373 Q188.079 279.373 189.885 275.832 Q191.713 272.267 191.713 265.16 Q191.713 258.031 189.885 254.489 Q188.079 250.924 184.445 250.924 M184.445 247.221 Q190.255 247.221 193.311 251.827 Q196.389 256.41 196.389 265.16 Q196.389 273.887 193.311 278.494 Q190.255 283.077 184.445 283.077 Q178.635 283.077 175.556 278.494 Q172.501 273.887 172.501 265.16 Q172.501 256.41 175.556 251.827 Q178.635 247.221 184.445 247.221 Z" fill="#ffffff" fill-rule="nonzero" fill-opacity="1" /><path clip-path="url(#clip550)" d="M214.607 250.924 Q210.996 250.924 209.167 254.489 Q207.362 258.031 207.362 265.16 Q207.362 272.267 209.167 275.832 Q210.996 279.373 214.607 279.373 Q218.241 279.373 220.047 275.832 Q221.875 272.267 221.875 265.16 Q221.875 258.031 220.047 254.489 Q218.241 250.924 214.607 250.924 M214.607 247.221 Q220.417 247.221 223.473 251.827 Q226.551 256.41 226.551 265.16 Q226.551 273.887 223.473 278.494 Q220.417 283.077 214.607 283.077 Q208.797 283.077 205.718 278.494 Q202.662 273.887 202.662 265.16 Q202.662 256.41 205.718 251.827 Q208.797 247.221 214.607 247.221 Z" fill="#ffffff" fill-rule="nonzero" fill-opacity="1" /><path clip-path="url(#clip550)" d="M244.769 250.924 Q241.158 250.924 239.329 254.489 Q237.523 258.031 237.523 265.16 Q237.523 272.267 239.329 275.832 Q241.158 279.373 244.769 279.373 Q248.403 279.373 250.209 275.832 Q252.037 272.267 252.037 265.16 Q252.037 258.031 250.209 254.489 Q248.403 250.924 244.769 250.924 M244.769 247.221 Q250.579 247.221 253.634 251.827 Q256.713 256.41 256.713 265.16 Q256.713 273.887 253.634 278.494 Q250.579 283.077 244.769 283.077 Q238.959 283.077 235.88 278.494 Q232.824 273.887 232.824 265.16 Q232.824 256.41 235.88 251.827 Q238.959 247.221 244.769 247.221 Z" fill="#ffffff" fill-rule="nonzero" fill-opacity="1" /><path clip-path="url(#clip550)" d="M30.8561 758.889 Q31.307 758.889 32.3698 759.178 L57.5548 765.491 Q63.1586 766.876 67.0877 771.384 Q71.0168 775.861 71.0168 780.95 Q71.0168 784.009 69.3743 785.974 Q67.764 787.938 65.2842 787.938 Q63.0942 787.938 62.0314 786.779 Q61.0008 785.619 61.0008 784.235 Q61.0008 783.784 61.1296 783.301 Q61.2584 782.817 61.8059 782.302 Q62.3534 781.787 63.2874 781.787 Q64.8011 781.787 65.9927 783.107 Q66.5402 783.751 66.669 784.363 Q66.7978 784.943 66.7978 785.941 Q67.6996 785.555 68.3115 784.846 Q68.9234 784.138 69.1489 783.333 Q69.4065 782.528 69.4709 782.012 Q69.5675 781.465 69.5675 780.95 Q69.5675 776.827 65.413 773.671 Q64.157 772.737 62.9009 772.061 Q61.6771 771.352 60.1634 770.837 Q58.682 770.322 57.8768 770.096 Q57.0717 769.839 55.2359 769.388 Q58.2311 772.383 58.2311 776.054 Q58.2311 777.6 57.8124 778.985 Q57.3937 780.338 56.5242 781.529 Q55.6224 782.721 54.0443 783.429 Q52.4662 784.106 50.3728 784.106 Q48.1506 784.106 45.1233 783.236 Q42.0959 782.367 36.5243 780.273 Q33.4004 779.146 31.8867 779.146 Q31.146 779.146 30.6951 779.307 Q30.212 779.468 30.051 779.79 Q29.8577 780.112 29.8255 780.305 Q29.7933 780.466 29.7933 780.789 Q29.7933 782.689 31.7257 784.46 Q33.658 786.231 37.9736 787.455 Q38.7787 787.713 38.972 787.874 Q39.1652 788.035 39.1652 788.518 Q39.133 789.323 38.4889 789.323 Q38.2312 789.323 37.2329 789.033 Q36.2023 788.743 34.6886 788.067 Q33.1427 787.359 31.7579 786.392 Q30.3408 785.426 29.3424 783.912 Q28.344 782.367 28.344 780.595 Q28.344 778.18 29.9221 776.698 Q31.468 775.185 33.7546 775.185 Q34.6886 775.185 35.5259 775.442 Q36.3311 775.668 38.4889 776.505 Q47.1845 779.887 51.4356 779.887 Q52.4662 779.887 53.3358 779.726 Q54.1731 779.532 55.0105 779.114 Q55.8156 778.695 56.2987 777.858 Q56.7496 776.988 56.7496 775.797 Q56.7496 774.283 56.0411 772.866 Q55.3003 771.417 54.302 770.515 Q53.3036 769.581 52.4662 769.033 Q51.5967 768.454 51.1458 768.325 L39.294 765.362 L34.0123 764.041 Q31.146 763.43 30.4374 763.14 Q29.7611 762.753 29.4068 762.077 Q29.0526 761.401 29.0526 760.821 Q29.0526 760.016 29.5357 759.468 Q30.0187 758.889 30.8561 758.889 Z" fill="#ffffff" fill-rule="nonzero" fill-opacity="1" /><path clip-path="url(#clip550)" d="M1138.92 12.096 L1147.11 12.096 L1147.11 65.6895 L1176.56 65.6895 L1176.56 72.576 L1138.92 72.576 L1138.92 12.096 Z" fill="#ffffff" fill-rule="nonzero" fill-opacity="1" /><path clip-path="url(#clip550)" d="M1205.44 49.7694 Q1196.41 49.7694 1192.92 51.8354 Q1189.44 53.9013 1189.44 58.8839 Q1189.44 62.8538 1192.03 65.2034 Q1194.67 67.5124 1199.16 67.5124 Q1205.36 67.5124 1209.09 63.1374 Q1212.85 58.7219 1212.85 51.4303 L1212.85 49.7694 L1205.44 49.7694 M1220.31 46.6907 L1220.31 72.576 L1212.85 72.576 L1212.85 65.6895 Q1210.3 69.8214 1206.49 71.8063 Q1202.69 73.7508 1197.18 73.7508 Q1190.21 73.7508 1186.08 69.8619 Q1181.99 65.9325 1181.99 59.3701 Q1181.99 51.7138 1187.09 47.825 Q1192.23 43.9361 1202.4 43.9361 L1212.85 43.9361 L1212.85 43.2069 Q1212.85 38.0623 1209.45 35.2672 Q1206.09 32.4315 1199.97 32.4315 Q1196.08 32.4315 1192.4 33.3632 Q1188.71 34.295 1185.31 36.1584 L1185.31 29.2718 Q1189.4 27.692 1193.25 26.9223 Q1197.1 26.1121 1200.74 26.1121 Q1210.59 26.1121 1215.45 31.2163 Q1220.31 36.3204 1220.31 46.6907 Z" fill="#ffffff" fill-rule="nonzero" fill-opacity="1" /><path clip-path="url(#clip550)" d="M1235.38 9.54393 L1242.87 9.54393 L1242.87 46.7717 L1265.11 27.2059 L1274.63 27.2059 L1250.57 48.4326 L1275.64 72.576 L1265.92 72.576 L1242.87 50.4176 L1242.87 72.576 L1235.38 72.576 L1235.38 9.54393 Z" fill="#ffffff" fill-rule="nonzero" fill-opacity="1" /><path clip-path="url(#clip550)" d="M1319.55 48.0275 L1319.55 51.6733 L1285.28 51.6733 Q1285.77 59.3701 1289.9 63.421 Q1294.07 67.4314 1301.49 67.4314 Q1305.78 67.4314 1309.79 66.3781 Q1313.84 65.3249 1317.81 63.2184 L1317.81 70.267 Q1313.8 71.9684 1309.59 72.8596 Q1305.38 73.7508 1301.04 73.7508 Q1290.19 73.7508 1283.83 67.4314 Q1277.51 61.1119 1277.51 50.3365 Q1277.51 39.1965 1283.5 32.6746 Q1289.54 26.1121 1299.75 26.1121 Q1308.9 26.1121 1314.21 32.0264 Q1319.55 37.9003 1319.55 48.0275 M1312.1 45.84 Q1312.02 39.7232 1308.66 36.0774 Q1305.34 32.4315 1299.83 32.4315 Q1293.59 32.4315 1289.82 35.9558 Q1286.09 39.4801 1285.53 45.8805 L1312.1 45.84 Z" fill="#ffffff" fill-rule="nonzero" fill-opacity="1" /><path clip-path="url(#clip550)" d="M1358.48 12.096 L1396.72 12.096 L1396.72 18.9825 L1366.67 18.9825 L1366.67 36.8875 L1395.47 36.8875 L1395.47 43.7741 L1366.67 43.7741 L1366.67 65.6895 L1397.45 65.6895 L1397.45 72.576 L1358.48 72.576 L1358.48 12.096 Z" fill="#ffffff" fill-rule="nonzero" fill-opacity="1" /><path clip-path="url(#clip550)" d="M1436.87 34.1734 Q1435.61 33.4443 1434.11 33.1202 Q1432.66 32.7556 1430.87 32.7556 Q1424.55 32.7556 1421.15 36.8875 Q1417.79 40.9789 1417.79 48.6757 L1417.79 72.576 L1410.29 72.576 L1410.29 27.2059 L1417.79 27.2059 L1417.79 34.2544 Q1420.14 30.1225 1423.91 28.1376 Q1427.67 26.1121 1433.06 26.1121 Q1433.83 26.1121 1434.76 26.2337 Q1435.69 26.3147 1436.83 26.5172 L1436.87 34.1734 Z" fill="#ffffff" fill-rule="nonzero" fill-opacity="1" /><path clip-path="url(#clip550)" d="M1444.69 27.2059 L1452.14 27.2059 L1452.14 72.576 L1444.69 72.576 L1444.69 27.2059 M1444.69 9.54393 L1452.14 9.54393 L1452.14 18.9825 L1444.69 18.9825 L1444.69 9.54393 Z" fill="#ffffff" fill-rule="nonzero" fill-opacity="1" /><path clip-path="url(#clip550)" d="M1506.54 48.0275 L1506.54 51.6733 L1472.27 51.6733 Q1472.76 59.3701 1476.89 63.421 Q1481.06 67.4314 1488.48 67.4314 Q1492.77 67.4314 1496.78 66.3781 Q1500.83 65.3249 1504.8 63.2184 L1504.8 70.267 Q1500.79 71.9684 1496.58 72.8596 Q1492.37 73.7508 1488.03 73.7508 Q1477.18 73.7508 1470.82 67.4314 Q1464.5 61.1119 1464.5 50.3365 Q1464.5 39.1965 1470.49 32.6746 Q1476.53 26.1121 1486.74 26.1121 Q1495.89 26.1121 1501.2 32.0264 Q1506.54 37.9003 1506.54 48.0275 M1499.09 45.84 Q1499.01 39.7232 1495.65 36.0774 Q1492.33 32.4315 1486.82 32.4315 Q1480.58 32.4315 1476.81 35.9558 Q1473.08 39.4801 1472.52 45.8805 L1499.09 45.84 Z" fill="#ffffff" fill-rule="nonzero" fill-opacity="1" /><polyline clip-path="url(#clip552)" style="stroke:#66c2a4; stroke-linecap:round; stroke-linejoin:round; stroke-width:8; stroke-opacity:1; fill:none" points="351.016,1311.19 385.72,1311.55 420.425,1311.81 455.129,1312.02 489.833,1312.1 524.537,1312.05 559.242,1312.05 593.946,1311.94 628.65,1311.7 663.354,1311.46 698.058,1311.43 732.763,1311.49 767.467,1311.4 802.171,1311.69 836.875,1311.94 871.58,1312.05 906.284,1312.14 940.988,1312.18 975.692,1312.15 1010.4,1311.98 1045.1,1311.83 1079.8,1311.56 1114.51,1311.53 1149.21,1311.51 1183.92,1311.4 1218.62,1311.62 1253.33,1312.02 1288.03,1312.04 1322.73,1312.08 1357.44,1312.2 1392.14,1312.15 1426.85,1311.95 1461.55,1311.79 1496.26,1311.56 1530.96,1311.44 1565.66,1311.53 1600.37,1311.63 1635.07,1311.71 1669.78,1311.91 1704.48,1312.21 1739.19,1312.25 1773.89,1312.29 1808.59,1312.18 1843.3,1312.06 1878,1311.84 1912.71,1311.65 1947.41,1311.49 1982.11,1311.48 2016.82,1311.64 2051.52,1311.75 2086.23,1311.96 2120.93,1312.21 2155.64,1312.26 2190.34,1312.41 2225.04,1312.37 2259.75,1311.92 2294.45,1311.75 "/>
<polyline clip-path="url(#clip552)" style="stroke:#fb8d61; stroke-linecap:round; stroke-linejoin:round; stroke-width:8; stroke-opacity:1; fill:none" points="351.016,160.256 385.72,596.391 420.425,905.97 455.129,864.903 489.833,1142.63 524.537,1077.23 559.242,896.458 593.946,1099.23 628.65,1086.61 663.354,1048.62 698.058,1198.04 732.763,1166.42 767.467,696.766 802.171,1015.75 836.875,1083.66 871.58,1032.42 906.284,1244.29 940.988,1181.84 975.692,1111.12 1010.4,1163.59 1045.1,1277.4 1079.8,1148.78 1114.51,1183.95 1149.21,1297.32 1183.92,826.381 1218.62,1091.98 1253.33,1037.75 1288.03,1006.33 1322.73,1096.5 1357.44,1216.88 1392.14,1083.52 1426.85,1142.18 1461.55,1169.25 1496.26,1219.32 1530.96,1006.76 1565.66,999.368 1600.37,1081.59 1635.07,999.358 1669.78,1003.63 1704.48,1293.78 1739.19,987.299 1773.89,1202.04 1808.59,1224.99 1843.3,1209.32 1878,1118.05 1912.71,1167.54 1947.41,1099.06 1982.11,1147.64 2016.82,1114.18 2051.52,1257.3 2086.23,1290.67 2120.93,1339.84 2155.64,1159.12 2190.34,1275.31 2225.04,1386.4 2259.75,1178.01 2294.45,1313.44 "/>
<path clip-path="url(#clip550)" d="M361.381 322.316 L590.648 322.316 L590.648 166.796 L361.381 166.796  Z" fill="#000000" fill-rule="evenodd" fill-opacity="1"/>
<polyline clip-path="url(#clip550)" style="stroke:#ffffff; stroke-linecap:round; stroke-linejoin:round; stroke-width:4; stroke-opacity:1; fill:none" points="361.381,322.316 590.648,322.316 590.648,166.796 361.381,166.796 361.381,322.316 "/>
<polyline clip-path="url(#clip550)" style="stroke:#66c2a4; stroke-linecap:round; stroke-linejoin:round; stroke-width:8; stroke-opacity:1; fill:none" points="384.271,218.636 521.607,218.636 "/>
<path clip-path="url(#clip550)" d="M566.63 204.89 Q566.63 205.218 566.42 205.991 L561.829 224.308 Q560.822 228.383 557.542 231.241 Q554.287 234.098 550.586 234.098 Q548.361 234.098 546.932 232.904 Q545.503 231.732 545.503 229.929 Q545.503 228.336 546.346 227.563 Q547.19 226.814 548.197 226.814 Q548.525 226.814 548.876 226.907 Q549.227 227.001 549.602 227.399 Q549.977 227.798 549.977 228.477 Q549.977 229.578 549.017 230.444 Q548.548 230.842 548.103 230.936 Q547.682 231.03 546.955 231.03 Q547.237 231.686 547.752 232.131 Q548.267 232.576 548.853 232.74 Q549.438 232.927 549.813 232.974 Q550.211 233.044 550.586 233.044 Q553.584 233.044 555.879 230.023 Q556.559 229.109 557.051 228.196 Q557.566 227.306 557.941 226.205 Q558.315 225.127 558.479 224.542 Q558.667 223.956 558.995 222.621 Q556.816 224.799 554.146 224.799 Q553.022 224.799 552.015 224.495 Q551.031 224.19 550.164 223.558 Q549.298 222.902 548.782 221.755 Q548.291 220.607 548.291 219.084 Q548.291 217.468 548.923 215.266 Q549.555 213.065 551.078 209.013 Q551.898 206.741 551.898 205.64 Q551.898 205.101 551.78 204.773 Q551.663 204.422 551.429 204.305 Q551.195 204.164 551.054 204.141 Q550.937 204.117 550.703 204.117 Q549.321 204.117 548.033 205.523 Q546.745 206.928 545.855 210.067 Q545.667 210.652 545.55 210.793 Q545.433 210.933 545.082 210.933 Q544.496 210.91 544.496 210.441 Q544.496 210.254 544.707 209.528 Q544.918 208.778 545.41 207.678 Q545.925 206.553 546.628 205.546 Q547.33 204.516 548.431 203.789 Q549.555 203.063 550.844 203.063 Q552.6 203.063 553.678 204.211 Q554.779 205.335 554.779 206.998 Q554.779 207.678 554.591 208.287 Q554.427 208.872 553.818 210.441 Q551.359 216.766 551.359 219.857 Q551.359 220.607 551.476 221.239 Q551.617 221.848 551.921 222.457 Q552.226 223.043 552.834 223.394 Q553.467 223.722 554.334 223.722 Q555.434 223.722 556.465 223.207 Q557.519 222.668 558.175 221.942 Q558.854 221.216 559.252 220.607 Q559.674 219.974 559.768 219.646 L561.922 211.027 L562.883 207.186 Q563.328 205.101 563.539 204.586 Q563.82 204.094 564.311 203.836 Q564.803 203.579 565.225 203.579 Q565.811 203.579 566.209 203.93 Q566.63 204.281 566.63 204.89 Z" fill="#ffffff" fill-rule="nonzero" fill-opacity="1" /><polyline clip-path="url(#clip550)" style="stroke:#fb8d61; stroke-linecap:round; stroke-linejoin:round; stroke-width:8; stroke-opacity:1; fill:none" points="384.271,270.476 521.607,270.476 "/>
<path clip-path="url(#clip550)" d="M566.63 256.73 Q566.63 257.058 566.42 257.831 L561.829 276.148 Q560.822 280.223 557.542 283.081 Q554.287 285.938 550.586 285.938 Q548.361 285.938 546.932 284.744 Q545.503 283.572 545.503 281.769 Q545.503 280.176 546.346 279.403 Q547.19 278.654 548.197 278.654 Q548.525 278.654 548.876 278.747 Q549.227 278.841 549.602 279.239 Q549.977 279.638 549.977 280.317 Q549.977 281.418 549.017 282.284 Q548.548 282.682 548.103 282.776 Q547.682 282.87 546.955 282.87 Q547.237 283.526 547.752 283.971 Q548.267 284.416 548.853 284.58 Q549.438 284.767 549.813 284.814 Q550.211 284.884 550.586 284.884 Q553.584 284.884 555.879 281.863 Q556.559 280.949 557.051 280.036 Q557.566 279.146 557.941 278.045 Q558.315 276.967 558.479 276.382 Q558.667 275.796 558.995 274.461 Q556.816 276.639 554.146 276.639 Q553.022 276.639 552.015 276.335 Q551.031 276.03 550.164 275.398 Q549.298 274.742 548.782 273.595 Q548.291 272.447 548.291 270.924 Q548.291 269.308 548.923 267.106 Q549.555 264.905 551.078 260.853 Q551.898 258.581 551.898 257.48 Q551.898 256.941 551.78 256.613 Q551.663 256.262 551.429 256.145 Q551.195 256.004 551.054 255.981 Q550.937 255.957 550.703 255.957 Q549.321 255.957 548.033 257.363 Q546.745 258.768 545.855 261.907 Q545.667 262.492 545.55 262.633 Q545.433 262.773 545.082 262.773 Q544.496 262.75 544.496 262.281 Q544.496 262.094 544.707 261.368 Q544.918 260.618 545.41 259.518 Q545.925 258.393 546.628 257.386 Q547.33 256.356 548.431 255.629 Q549.555 254.903 550.844 254.903 Q552.6 254.903 553.678 256.051 Q554.779 257.175 554.779 258.838 Q554.779 259.518 554.591 260.127 Q554.427 260.712 553.818 262.281 Q551.359 268.606 551.359 271.697 Q551.359 272.447 551.476 273.079 Q551.617 273.688 551.921 274.297 Q552.226 274.883 552.834 275.234 Q553.467 275.562 554.334 275.562 Q555.434 275.562 556.465 275.047 Q557.519 274.508 558.175 273.782 Q558.854 273.056 559.252 272.447 Q559.674 271.814 559.768 271.486 L561.922 262.867 L562.883 259.026 Q563.328 256.941 563.539 256.426 Q563.82 255.934 564.311 255.676 Q564.803 255.419 565.225 255.419 Q565.811 255.419 566.209 255.77 Q566.63 256.121 566.63 256.73 Z" fill="#ffffff" fill-rule="nonzero" fill-opacity="1" /></svg>
