<?xml version="1.0" encoding="utf-8"?>
<svg xmlns="http://www.w3.org/2000/svg" xmlns:xlink="http://www.w3.org/1999/xlink" width="600" height="400" viewBox="0 0 2400 1600">
<defs>
  <clipPath id="clip860">
    <rect x="0" y="0" width="2400" height="1600"/>
  </clipPath>
</defs>
<path clip-path="url(#clip860)" d="M0 1600 L2400 1600 L2400 0 L0 0  Z" fill="#000000" fill-rule="evenodd" fill-opacity="1"/>
<defs>
  <clipPath id="clip861">
    <rect x="480" y="0" width="1681" height="1600"/>
  </clipPath>
</defs>
<path clip-path="url(#clip860)" d="M210.376 1423.18 L2352.76 1423.18 L2352.76 123.472 L210.376 123.472  Z" fill="#000000" fill-rule="evenodd" fill-opacity="1"/>
<defs>
  <clipPath id="clip862">
    <rect x="210" y="123" width="2143" height="1301"/>
  </clipPath>
</defs>
<polyline clip-path="url(#clip862)" style="stroke:#ffffff; stroke-linecap:round; stroke-linejoin:round; stroke-width:2; stroke-opacity:0.1; fill:none" points="234.918,1423.18 234.918,123.472 "/>
<polyline clip-path="url(#clip862)" style="stroke:#ffffff; stroke-linecap:round; stroke-linejoin:round; stroke-width:2; stroke-opacity:0.1; fill:none" points="595.831,1423.18 595.831,123.472 "/>
<polyline clip-path="url(#clip862)" style="stroke:#ffffff; stroke-linecap:round; stroke-linejoin:round; stroke-width:2; stroke-opacity:0.1; fill:none" points="956.744,1423.18 956.744,123.472 "/>
<polyline clip-path="url(#clip862)" style="stroke:#ffffff; stroke-linecap:round; stroke-linejoin:round; stroke-width:2; stroke-opacity:0.1; fill:none" points="1317.66,1423.18 1317.66,123.472 "/>
<polyline clip-path="url(#clip862)" style="stroke:#ffffff; stroke-linecap:round; stroke-linejoin:round; stroke-width:2; stroke-opacity:0.1; fill:none" points="1678.57,1423.18 1678.57,123.472 "/>
<polyline clip-path="url(#clip862)" style="stroke:#ffffff; stroke-linecap:round; stroke-linejoin:round; stroke-width:2; stroke-opacity:0.1; fill:none" points="2039.48,1423.18 2039.48,123.472 "/>
<polyline clip-path="url(#clip860)" style="stroke:#ffffff; stroke-linecap:round; stroke-linejoin:round; stroke-width:4; stroke-opacity:1; fill:none" points="210.376,1423.18 2352.76,1423.18 "/>
<polyline clip-path="url(#clip860)" style="stroke:#ffffff; stroke-linecap:round; stroke-linejoin:round; stroke-width:4; stroke-opacity:1; fill:none" points="234.918,1423.18 234.918,1404.28 "/>
<polyline clip-path="url(#clip860)" style="stroke:#ffffff; stroke-linecap:round; stroke-linejoin:round; stroke-width:4; stroke-opacity:1; fill:none" points="595.831,1423.18 595.831,1404.28 "/>
<polyline clip-path="url(#clip860)" style="stroke:#ffffff; stroke-linecap:round; stroke-linejoin:round; stroke-width:4; stroke-opacity:1; fill:none" points="956.744,1423.18 956.744,1404.28 "/>
<polyline clip-path="url(#clip860)" style="stroke:#ffffff; stroke-linecap:round; stroke-linejoin:round; stroke-width:4; stroke-opacity:1; fill:none" points="1317.66,1423.18 1317.66,1404.28 "/>
<polyline clip-path="url(#clip860)" style="stroke:#ffffff; stroke-linecap:round; stroke-linejoin:round; stroke-width:4; stroke-opacity:1; fill:none" points="1678.57,1423.18 1678.57,1404.28 "/>
<polyline clip-path="url(#clip860)" style="stroke:#ffffff; stroke-linecap:round; stroke-linejoin:round; stroke-width:4; stroke-opacity:1; fill:none" points="2039.48,1423.18 2039.48,1404.28 "/>
<path clip-path="url(#clip860)" d="M234.918 1454.1 Q231.307 1454.1 229.478 1457.66 Q227.672 1461.2 227.672 1468.33 Q227.672 1475.44 229.478 1479.01 Q231.307 1482.55 234.918 1482.55 Q238.552 1482.55 240.357 1479.01 Q242.186 1475.44 242.186 1468.33 Q242.186 1461.2 240.357 1457.66 Q238.552 1454.1 234.918 1454.1 M234.918 1450.39 Q240.728 1450.39 243.783 1455 Q246.862 1459.58 246.862 1468.33 Q246.862 1477.06 243.783 1481.67 Q240.728 1486.25 234.918 1486.25 Q229.108 1486.25 226.029 1481.67 Q222.973 1477.06 222.973 1468.33 Q222.973 1459.58 226.029 1455 Q229.108 1450.39 234.918 1450.39 Z" fill="#ffffff" fill-rule="nonzero" fill-opacity="1" /><path clip-path="url(#clip860)" d="M570.518 1481.64 L578.157 1481.64 L578.157 1455.28 L569.847 1456.95 L569.847 1452.69 L578.111 1451.02 L582.787 1451.02 L582.787 1481.64 L590.426 1481.64 L590.426 1485.58 L570.518 1485.58 L570.518 1481.64 Z" fill="#ffffff" fill-rule="nonzero" fill-opacity="1" /><path clip-path="url(#clip860)" d="M609.87 1454.1 Q606.259 1454.1 604.43 1457.66 Q602.625 1461.2 602.625 1468.33 Q602.625 1475.44 604.43 1479.01 Q606.259 1482.55 609.87 1482.55 Q613.504 1482.55 615.31 1479.01 Q617.139 1475.44 617.139 1468.33 Q617.139 1461.2 615.31 1457.66 Q613.504 1454.1 609.87 1454.1 M609.87 1450.39 Q615.68 1450.39 618.736 1455 Q621.814 1459.58 621.814 1468.33 Q621.814 1477.06 618.736 1481.67 Q615.68 1486.25 609.87 1486.25 Q604.06 1486.25 600.981 1481.67 Q597.926 1477.06 597.926 1468.33 Q597.926 1459.58 600.981 1455 Q604.06 1450.39 609.87 1450.39 Z" fill="#ffffff" fill-rule="nonzero" fill-opacity="1" /><path clip-path="url(#clip860)" d="M935.517 1481.64 L951.837 1481.64 L951.837 1485.58 L929.892 1485.58 L929.892 1481.64 Q932.554 1478.89 937.138 1474.26 Q941.744 1469.61 942.925 1468.27 Q945.17 1465.74 946.05 1464.01 Q946.952 1462.25 946.952 1460.56 Q946.952 1457.8 945.008 1456.07 Q943.087 1454.33 939.985 1454.33 Q937.786 1454.33 935.332 1455.09 Q932.901 1455.86 930.124 1457.41 L930.124 1452.69 Q932.948 1451.55 935.401 1450.97 Q937.855 1450.39 939.892 1450.39 Q945.263 1450.39 948.457 1453.08 Q951.651 1455.77 951.651 1460.26 Q951.651 1462.39 950.841 1464.31 Q950.054 1466.2 947.948 1468.8 Q947.369 1469.47 944.267 1472.69 Q941.165 1475.88 935.517 1481.64 Z" fill="#ffffff" fill-rule="nonzero" fill-opacity="1" /><path clip-path="url(#clip860)" d="M971.651 1454.1 Q968.04 1454.1 966.211 1457.66 Q964.406 1461.2 964.406 1468.33 Q964.406 1475.44 966.211 1479.01 Q968.04 1482.55 971.651 1482.55 Q975.285 1482.55 977.091 1479.01 Q978.92 1475.44 978.92 1468.33 Q978.92 1461.2 977.091 1457.66 Q975.285 1454.1 971.651 1454.1 M971.651 1450.39 Q977.461 1450.39 980.517 1455 Q983.596 1459.58 983.596 1468.33 Q983.596 1477.06 980.517 1481.67 Q977.461 1486.25 971.651 1486.25 Q965.841 1486.25 962.762 1481.67 Q959.707 1477.06 959.707 1468.33 Q959.707 1459.58 962.762 1455 Q965.841 1450.39 971.651 1450.39 Z" fill="#ffffff" fill-rule="nonzero" fill-opacity="1" /><path clip-path="url(#clip860)" d="M1306.5 1466.95 Q1309.86 1467.66 1311.73 1469.93 Q1313.63 1472.2 1313.63 1475.53 Q1313.63 1480.65 1310.11 1483.45 Q1306.59 1486.25 1300.11 1486.25 Q1297.93 1486.25 1295.62 1485.81 Q1293.33 1485.39 1290.87 1484.54 L1290.87 1480.02 Q1292.82 1481.16 1295.13 1481.74 Q1297.45 1482.32 1299.97 1482.32 Q1304.37 1482.32 1306.66 1480.58 Q1308.98 1478.84 1308.98 1475.53 Q1308.98 1472.48 1306.82 1470.77 Q1304.69 1469.03 1300.87 1469.03 L1296.85 1469.03 L1296.85 1465.19 L1301.06 1465.19 Q1304.51 1465.19 1306.34 1463.82 Q1308.17 1462.43 1308.17 1459.84 Q1308.17 1457.18 1306.27 1455.77 Q1304.39 1454.33 1300.87 1454.33 Q1298.95 1454.33 1296.75 1454.75 Q1294.56 1455.16 1291.92 1456.04 L1291.92 1451.88 Q1294.58 1451.14 1296.89 1450.77 Q1299.23 1450.39 1301.29 1450.39 Q1306.62 1450.39 1309.72 1452.83 Q1312.82 1455.23 1312.82 1459.35 Q1312.82 1462.22 1311.18 1464.21 Q1309.53 1466.18 1306.5 1466.95 Z" fill="#ffffff" fill-rule="nonzero" fill-opacity="1" /><path clip-path="url(#clip860)" d="M1332.49 1454.1 Q1328.88 1454.1 1327.06 1457.66 Q1325.25 1461.2 1325.25 1468.33 Q1325.25 1475.44 1327.06 1479.01 Q1328.88 1482.55 1332.49 1482.55 Q1336.13 1482.55 1337.93 1479.01 Q1339.76 1475.44 1339.76 1468.33 Q1339.76 1461.2 1337.93 1457.66 Q1336.13 1454.1 1332.49 1454.1 M1332.49 1450.39 Q1338.31 1450.39 1341.36 1455 Q1344.44 1459.58 1344.44 1468.33 Q1344.44 1477.06 1341.36 1481.67 Q1338.31 1486.25 1332.49 1486.25 Q1326.68 1486.25 1323.61 1481.67 Q1320.55 1477.06 1320.55 1468.33 Q1320.55 1459.58 1323.61 1455 Q1326.68 1450.39 1332.49 1450.39 Z" fill="#ffffff" fill-rule="nonzero" fill-opacity="1" /><path clip-path="url(#clip860)" d="M1666.74 1455.09 L1654.94 1473.54 L1666.74 1473.54 L1666.74 1455.09 M1665.51 1451.02 L1671.39 1451.02 L1671.39 1473.54 L1676.32 1473.54 L1676.32 1477.43 L1671.39 1477.43 L1671.39 1485.58 L1666.74 1485.58 L1666.74 1477.43 L1651.14 1477.43 L1651.14 1472.92 L1665.51 1451.02 Z" fill="#ffffff" fill-rule="nonzero" fill-opacity="1" /><path clip-path="url(#clip860)" d="M1694.06 1454.1 Q1690.45 1454.1 1688.62 1457.66 Q1686.81 1461.2 1686.81 1468.33 Q1686.81 1475.44 1688.62 1479.01 Q1690.45 1482.55 1694.06 1482.55 Q1697.69 1482.55 1699.5 1479.01 Q1701.32 1475.44 1701.32 1468.33 Q1701.32 1461.2 1699.5 1457.66 Q1697.69 1454.1 1694.06 1454.1 M1694.06 1450.39 Q1699.87 1450.39 1702.92 1455 Q1706 1459.58 1706 1468.33 Q1706 1477.06 1702.92 1481.67 Q1699.87 1486.25 1694.06 1486.25 Q1688.25 1486.25 1685.17 1481.67 Q1682.11 1477.06 1682.11 1468.33 Q1682.11 1459.58 1685.17 1455 Q1688.25 1450.39 1694.06 1450.39 Z" fill="#ffffff" fill-rule="nonzero" fill-opacity="1" /><path clip-path="url(#clip860)" d="M2014.18 1451.02 L2032.54 1451.02 L2032.54 1454.96 L2018.46 1454.96 L2018.46 1463.43 Q2019.48 1463.08 2020.5 1462.92 Q2021.52 1462.73 2022.54 1462.73 Q2028.33 1462.73 2031.71 1465.9 Q2035.09 1469.08 2035.09 1474.49 Q2035.09 1480.07 2031.61 1483.17 Q2028.14 1486.25 2021.82 1486.25 Q2019.65 1486.25 2017.38 1485.88 Q2015.13 1485.51 2012.72 1484.77 L2012.72 1480.07 Q2014.81 1481.2 2017.03 1481.76 Q2019.25 1482.32 2021.73 1482.32 Q2025.73 1482.32 2028.07 1480.21 Q2030.41 1478.1 2030.41 1474.49 Q2030.41 1470.88 2028.07 1468.77 Q2025.73 1466.67 2021.73 1466.67 Q2019.85 1466.67 2017.98 1467.08 Q2016.13 1467.5 2014.18 1468.38 L2014.18 1451.02 Z" fill="#ffffff" fill-rule="nonzero" fill-opacity="1" /><path clip-path="url(#clip860)" d="M2054.3 1454.1 Q2050.69 1454.1 2048.86 1457.66 Q2047.05 1461.2 2047.05 1468.33 Q2047.05 1475.44 2048.86 1479.01 Q2050.69 1482.55 2054.3 1482.55 Q2057.93 1482.55 2059.74 1479.01 Q2061.57 1475.44 2061.57 1468.33 Q2061.57 1461.2 2059.74 1457.66 Q2057.93 1454.1 2054.3 1454.1 M2054.3 1450.39 Q2060.11 1450.39 2063.16 1455 Q2066.24 1459.58 2066.24 1468.33 Q2066.24 1477.06 2063.16 1481.67 Q2060.11 1486.25 2054.3 1486.25 Q2048.49 1486.25 2045.41 1481.67 Q2042.35 1477.06 2042.35 1468.33 Q2042.35 1459.58 2045.41 1455 Q2048.49 1450.39 2054.3 1450.39 Z" fill="#ffffff" fill-rule="nonzero" fill-opacity="1" /><path clip-path="url(#clip860)" d="M1118.43 1531.91 Q1118.43 1532.81 1118.01 1533.04 Q1117.6 1533.23 1116.44 1533.23 L1110.25 1533.23 L1105.36 1552.69 Q1104.97 1554.39 1104.97 1555.84 Q1104.97 1557.45 1105.45 1558.16 Q1105.97 1558.87 1107.03 1558.87 Q1109.13 1558.87 1111.38 1556.97 Q1113.67 1555.07 1115.6 1550.43 Q1115.86 1549.82 1115.99 1549.69 Q1116.15 1549.53 1116.57 1549.53 Q1117.37 1549.53 1117.37 1550.17 Q1117.37 1550.4 1116.92 1551.43 Q1116.5 1552.46 1115.57 1553.97 Q1114.67 1555.49 1113.47 1556.9 Q1112.31 1558.32 1110.54 1559.35 Q1108.77 1560.35 1106.87 1560.35 Q1104.2 1560.35 1102.49 1558.64 Q1100.82 1556.94 1100.82 1554.26 Q1100.82 1553.39 1101.49 1550.62 Q1102.17 1547.82 1105.84 1533.23 L1100.01 1533.23 Q1099.21 1533.23 1098.88 1533.2 Q1098.59 1533.17 1098.37 1533.01 Q1098.18 1532.81 1098.18 1532.43 Q1098.18 1531.82 1098.43 1531.56 Q1098.69 1531.27 1099.01 1531.24 Q1099.37 1531.17 1100.17 1531.17 L1106.36 1531.17 L1108.93 1520.71 Q1109.19 1519.67 1109.83 1519.09 Q1110.51 1518.48 1110.9 1518.42 Q1111.28 1518.32 1111.57 1518.32 Q1112.44 1518.32 1112.96 1518.81 Q1113.47 1519.26 1113.47 1520.09 Q1113.47 1520.54 1110.77 1531.17 L1116.57 1531.17 Q1117.31 1531.17 1117.6 1531.2 Q1117.92 1531.24 1118.18 1531.4 Q1118.43 1531.56 1118.43 1531.91 Z" fill="#ffffff" fill-rule="nonzero" fill-opacity="1" /><path clip-path="url(#clip860)" d="M1148.61 1523.96 L1154.47 1523.96 L1154.47 1559.61 L1148.61 1559.61 L1148.61 1523.96 M1148.61 1510.08 L1154.47 1510.08 L1154.47 1517.5 L1148.61 1517.5 L1148.61 1510.08 Z" fill="#ffffff" fill-rule="nonzero" fill-opacity="1" /><path clip-path="url(#clip860)" d="M1196.35 1538.09 L1196.35 1559.61 L1190.5 1559.61 L1190.5 1538.28 Q1190.5 1533.22 1188.52 1530.71 Q1186.55 1528.2 1182.6 1528.2 Q1177.86 1528.2 1175.13 1531.22 Q1172.39 1534.24 1172.39 1539.46 L1172.39 1559.61 L1166.5 1559.61 L1166.5 1523.96 L1172.39 1523.96 L1172.39 1529.5 Q1174.49 1526.29 1177.32 1524.69 Q1180.19 1523.1 1183.91 1523.1 Q1190.05 1523.1 1193.2 1526.92 Q1196.35 1530.71 1196.35 1538.09 Z" fill="#ffffff" fill-rule="nonzero" fill-opacity="1" /><path clip-path="url(#clip860)" d="M1256.51 1530.81 Q1258.71 1526.86 1261.76 1524.98 Q1264.82 1523.1 1268.96 1523.1 Q1274.53 1523.1 1277.55 1527.02 Q1280.57 1530.9 1280.57 1538.09 L1280.57 1559.61 L1274.68 1559.61 L1274.68 1538.28 Q1274.68 1533.16 1272.87 1530.68 Q1271.06 1528.2 1267.33 1528.2 Q1262.78 1528.2 1260.14 1531.22 Q1257.5 1534.24 1257.5 1539.46 L1257.5 1559.61 L1251.61 1559.61 L1251.61 1538.28 Q1251.61 1533.13 1249.79 1530.68 Q1247.98 1528.2 1244.19 1528.2 Q1239.71 1528.2 1237.06 1531.25 Q1234.42 1534.27 1234.42 1539.46 L1234.42 1559.61 L1228.53 1559.61 L1228.53 1523.96 L1234.42 1523.96 L1234.42 1529.5 Q1236.43 1526.22 1239.23 1524.66 Q1242.03 1523.1 1245.88 1523.1 Q1249.76 1523.1 1252.47 1525.08 Q1255.21 1527.05 1256.51 1530.81 Z" fill="#ffffff" fill-rule="nonzero" fill-opacity="1" /><path clip-path="url(#clip860)" d="M1306.07 1528.07 Q1301.36 1528.07 1298.62 1531.76 Q1295.88 1535.42 1295.88 1541.82 Q1295.88 1548.22 1298.59 1551.91 Q1301.33 1555.57 1306.07 1555.57 Q1310.75 1555.57 1313.48 1551.88 Q1316.22 1548.18 1316.22 1541.82 Q1316.22 1535.48 1313.48 1531.79 Q1310.75 1528.07 1306.07 1528.07 M1306.07 1523.1 Q1313.71 1523.1 1318.07 1528.07 Q1322.43 1533.03 1322.43 1541.82 Q1322.43 1550.57 1318.07 1555.57 Q1313.71 1560.53 1306.07 1560.53 Q1298.4 1560.53 1294.04 1555.57 Q1289.71 1550.57 1289.71 1541.82 Q1289.71 1533.03 1294.04 1528.07 Q1298.4 1523.1 1306.07 1523.1 Z" fill="#ffffff" fill-rule="nonzero" fill-opacity="1" /><path clip-path="url(#clip860)" d="M1361.77 1538.09 L1361.77 1559.61 L1355.91 1559.61 L1355.91 1538.28 Q1355.91 1533.22 1353.94 1530.71 Q1351.96 1528.2 1348.02 1528.2 Q1343.28 1528.2 1340.54 1531.22 Q1337.8 1534.24 1337.8 1539.46 L1337.8 1559.61 L1331.91 1559.61 L1331.91 1523.96 L1337.8 1523.96 L1337.8 1529.5 Q1339.9 1526.29 1342.73 1524.69 Q1345.6 1523.1 1349.32 1523.1 Q1355.47 1523.1 1358.62 1526.92 Q1361.77 1530.71 1361.77 1538.09 Z" fill="#ffffff" fill-rule="nonzero" fill-opacity="1" /><path clip-path="url(#clip860)" d="M1379.24 1513.84 L1379.24 1523.96 L1391.3 1523.96 L1391.3 1528.51 L1379.24 1528.51 L1379.24 1547.87 Q1379.24 1552.23 1380.42 1553.47 Q1381.63 1554.71 1385.29 1554.71 L1391.3 1554.71 L1391.3 1559.61 L1385.29 1559.61 Q1378.51 1559.61 1375.93 1557.1 Q1373.35 1554.55 1373.35 1547.87 L1373.35 1528.51 L1369.06 1528.51 L1369.06 1523.96 L1373.35 1523.96 L1373.35 1513.84 L1379.24 1513.84 Z" fill="#ffffff" fill-rule="nonzero" fill-opacity="1" /><path clip-path="url(#clip860)" d="M1428.64 1538.09 L1428.64 1559.61 L1422.78 1559.61 L1422.78 1538.28 Q1422.78 1533.22 1420.81 1530.71 Q1418.84 1528.2 1414.89 1528.2 Q1410.15 1528.2 1407.41 1531.22 Q1404.67 1534.24 1404.67 1539.46 L1404.67 1559.61 L1398.78 1559.61 L1398.78 1510.08 L1404.67 1510.08 L1404.67 1529.5 Q1406.77 1526.29 1409.61 1524.69 Q1412.47 1523.1 1416.19 1523.1 Q1422.34 1523.1 1425.49 1526.92 Q1428.64 1530.71 1428.64 1538.09 Z" fill="#ffffff" fill-rule="nonzero" fill-opacity="1" /><path clip-path="url(#clip860)" d="M1463.05 1525.01 L1463.05 1530.55 Q1460.56 1529.28 1457.89 1528.64 Q1455.22 1528 1452.35 1528 Q1447.99 1528 1445.79 1529.34 Q1443.63 1530.68 1443.63 1533.35 Q1443.63 1535.39 1445.19 1536.57 Q1446.75 1537.71 1451.46 1538.76 L1453.47 1539.21 Q1459.7 1540.54 1462.31 1543 Q1464.96 1545.41 1464.96 1549.77 Q1464.96 1554.74 1461.01 1557.64 Q1457.09 1560.53 1450.22 1560.53 Q1447.35 1560.53 1444.24 1559.96 Q1441.15 1559.42 1437.71 1558.3 L1437.71 1552.26 Q1440.96 1553.94 1444.11 1554.8 Q1447.26 1555.63 1450.35 1555.63 Q1454.48 1555.63 1456.71 1554.23 Q1458.94 1552.8 1458.94 1550.22 Q1458.94 1547.83 1457.32 1546.56 Q1455.73 1545.29 1450.28 1544.11 L1448.25 1543.63 Q1442.8 1542.49 1440.38 1540.13 Q1437.97 1537.74 1437.97 1533.61 Q1437.97 1528.58 1441.53 1525.84 Q1445.09 1523.1 1451.65 1523.1 Q1454.9 1523.1 1457.76 1523.58 Q1460.63 1524.06 1463.05 1525.01 Z" fill="#ffffff" fill-rule="nonzero" fill-opacity="1" /><polyline clip-path="url(#clip862)" style="stroke:#ffffff; stroke-linecap:round; stroke-linejoin:round; stroke-width:2; stroke-opacity:0.1; fill:none" points="210.376,1410.16 2352.76,1410.16 "/>
<polyline clip-path="url(#clip862)" style="stroke:#ffffff; stroke-linecap:round; stroke-linejoin:round; stroke-width:2; stroke-opacity:0.1; fill:none" points="210.376,1042.94 2352.76,1042.94 "/>
<polyline clip-path="url(#clip862)" style="stroke:#ffffff; stroke-linecap:round; stroke-linejoin:round; stroke-width:2; stroke-opacity:0.1; fill:none" points="210.376,675.712 2352.76,675.712 "/>
<polyline clip-path="url(#clip862)" style="stroke:#ffffff; stroke-linecap:round; stroke-linejoin:round; stroke-width:2; stroke-opacity:0.1; fill:none" points="210.376,308.486 2352.76,308.486 "/>
<polyline clip-path="url(#clip860)" style="stroke:#ffffff; stroke-linecap:round; stroke-linejoin:round; stroke-width:4; stroke-opacity:1; fill:none" points="210.376,1423.18 210.376,123.472 "/>
<polyline clip-path="url(#clip860)" style="stroke:#ffffff; stroke-linecap:round; stroke-linejoin:round; stroke-width:4; stroke-opacity:1; fill:none" points="210.376,1410.16 229.273,1410.16 "/>
<polyline clip-path="url(#clip860)" style="stroke:#ffffff; stroke-linecap:round; stroke-linejoin:round; stroke-width:4; stroke-opacity:1; fill:none" points="210.376,1042.94 229.273,1042.94 "/>
<polyline clip-path="url(#clip860)" style="stroke:#ffffff; stroke-linecap:round; stroke-linejoin:round; stroke-width:4; stroke-opacity:1; fill:none" points="210.376,675.712 229.273,675.712 "/>
<polyline clip-path="url(#clip860)" style="stroke:#ffffff; stroke-linecap:round; stroke-linejoin:round; stroke-width:4; stroke-opacity:1; fill:none" points="210.376,308.486 229.273,308.486 "/>
<path clip-path="url(#clip860)" d="M114.26 1410.62 L143.936 1410.62 L143.936 1414.55 L114.26 1414.55 L114.26 1410.62 Z" fill="#ffffff" fill-rule="nonzero" fill-opacity="1" /><path clip-path="url(#clip860)" d="M158.056 1423.51 L174.376 1423.51 L174.376 1427.44 L152.431 1427.44 L152.431 1423.51 Q155.093 1420.75 159.677 1416.12 Q164.283 1411.47 165.464 1410.13 Q167.709 1407.61 168.589 1405.87 Q169.491 1404.11 169.491 1402.42 Q169.491 1399.67 167.547 1397.93 Q165.626 1396.19 162.524 1396.19 Q160.325 1396.19 157.871 1396.96 Q155.44 1397.72 152.663 1399.27 L152.663 1394.55 Q155.487 1393.42 157.94 1392.84 Q160.394 1392.26 162.431 1392.26 Q167.802 1392.26 170.996 1394.94 Q174.19 1397.63 174.19 1402.12 Q174.19 1404.25 173.38 1406.17 Q172.593 1408.07 170.487 1410.66 Q169.908 1411.33 166.806 1414.55 Q163.704 1417.75 158.056 1423.51 Z" fill="#ffffff" fill-rule="nonzero" fill-opacity="1" /><path clip-path="url(#clip860)" d="M162.431 1028.74 Q158.82 1028.74 156.991 1032.3 Q155.186 1035.84 155.186 1042.97 Q155.186 1050.08 156.991 1053.64 Q158.82 1057.19 162.431 1057.19 Q166.065 1057.19 167.871 1053.64 Q169.7 1050.08 169.7 1042.97 Q169.7 1035.84 167.871 1032.3 Q166.065 1028.74 162.431 1028.74 M162.431 1025.03 Q168.241 1025.03 171.297 1029.64 Q174.376 1034.22 174.376 1042.97 Q174.376 1051.7 171.297 1056.31 Q168.241 1060.89 162.431 1060.89 Q156.621 1060.89 153.542 1056.31 Q150.487 1051.7 150.487 1042.97 Q150.487 1034.22 153.542 1029.64 Q156.621 1025.03 162.431 1025.03 Z" fill="#ffffff" fill-rule="nonzero" fill-opacity="1" /><path clip-path="url(#clip860)" d="M158.056 689.057 L174.376 689.057 L174.376 692.992 L152.431 692.992 L152.431 689.057 Q155.093 686.302 159.677 681.673 Q164.283 677.02 165.464 675.677 Q167.709 673.154 168.589 671.418 Q169.491 669.659 169.491 667.969 Q169.491 665.214 167.547 663.478 Q165.626 661.742 162.524 661.742 Q160.325 661.742 157.871 662.506 Q155.44 663.27 152.663 664.821 L152.663 660.099 Q155.487 658.964 157.94 658.386 Q160.394 657.807 162.431 657.807 Q167.802 657.807 170.996 660.492 Q174.19 663.177 174.19 667.668 Q174.19 669.798 173.38 671.719 Q172.593 673.617 170.487 676.21 Q169.908 676.881 166.806 680.099 Q163.704 683.293 158.056 689.057 Z" fill="#ffffff" fill-rule="nonzero" fill-opacity="1" /><path clip-path="url(#clip860)" d="M164.792 295.28 L152.987 313.729 L164.792 313.729 L164.792 295.28 M163.565 291.206 L169.445 291.206 L169.445 313.729 L174.376 313.729 L174.376 317.618 L169.445 317.618 L169.445 325.766 L164.792 325.766 L164.792 317.618 L149.191 317.618 L149.191 313.104 L163.565 291.206 Z" fill="#ffffff" fill-rule="nonzero" fill-opacity="1" /><path clip-path="url(#clip860)" d="M30.8561 758.889 Q31.307 758.889 32.3698 759.178 L57.5548 765.491 Q63.1586 766.876 67.0877 771.384 Q71.0168 775.861 71.0168 780.95 Q71.0168 784.009 69.3743 785.974 Q67.764 787.938 65.2842 787.938 Q63.0942 787.938 62.0314 786.779 Q61.0008 785.619 61.0008 784.235 Q61.0008 783.784 61.1296 783.301 Q61.2584 782.817 61.8059 782.302 Q62.3534 781.787 63.2874 781.787 Q64.8011 781.787 65.9927 783.107 Q66.5402 783.751 66.669 784.363 Q66.7978 784.943 66.7978 785.941 Q67.6996 785.555 68.3115 784.846 Q68.9234 784.138 69.1489 783.333 Q69.4065 782.528 69.4709 782.012 Q69.5675 781.465 69.5675 780.95 Q69.5675 776.827 65.413 773.671 Q64.157 772.737 62.9009 772.061 Q61.6771 771.352 60.1634 770.837 Q58.682 770.322 57.8768 770.096 Q57.0717 769.839 55.2359 769.388 Q58.2311 772.383 58.2311 776.054 Q58.2311 777.6 57.8124 778.985 Q57.3937 780.338 56.5242 781.529 Q55.6224 782.721 54.0443 783.429 Q52.4662 784.106 50.3728 784.106 Q48.1506 784.106 45.1233 783.236 Q42.0959 782.367 36.5243 780.273 Q33.4004 779.146 31.8867 779.146 Q31.146 779.146 30.6951 779.307 Q30.212 779.468 30.051 779.79 Q29.8577 780.112 29.8255 780.305 Q29.7933 780.466 29.7933 780.789 Q29.7933 782.689 31.7257 784.46 Q33.658 786.231 37.9736 787.455 Q38.7787 787.713 38.972 787.874 Q39.1652 788.035 39.1652 788.518 Q39.133 789.323 38.4889 789.323 Q38.2312 789.323 37.2329 789.033 Q36.2023 788.743 34.6886 788.067 Q33.1427 787.359 31.7579 786.392 Q30.3408 785.426 29.3424 783.912 Q28.344 782.367 28.344 780.595 Q28.344 778.18 29.9221 776.698 Q31.468 775.185 33.7546 775.185 Q34.6886 775.185 35.5259 775.442 Q36.3311 775.668 38.4889 776.505 Q47.1845 779.887 51.4356 779.887 Q52.4662 779.887 53.3358 779.726 Q54.1731 779.532 55.0105 779.114 Q55.8156 778.695 56.2987 777.858 Q56.7496 776.988 56.7496 775.797 Q56.7496 774.283 56.0411 772.866 Q55.3003 771.417 54.302 770.515 Q53.3036 769.581 52.4662 769.033 Q51.5967 768.454 51.1458 768.325 L39.294 765.362 L34.0123 764.041 Q31.146 763.43 30.4374 763.14 Q29.7611 762.753 29.4068 762.077 Q29.0526 761.401 29.0526 760.821 Q29.0526 760.016 29.5357 759.468 Q30.0187 758.889 30.8561 758.889 Z" fill="#ffffff" fill-rule="nonzero" fill-opacity="1" /><path clip-path="url(#clip860)" d="M1097.76 12.096 L1105.94 12.096 L1105.94 65.6895 L1135.39 65.6895 L1135.39 72.576 L1097.76 72.576 L1097.76 12.096 Z" fill="#ffffff" fill-rule="nonzero" fill-opacity="1" /><path clip-path="url(#clip860)" d="M1164.27 49.7694 Q1155.24 49.7694 1151.75 51.8354 Q1148.27 53.9013 1148.27 58.8839 Q1148.27 62.8538 1150.86 65.2034 Q1153.5 67.5124 1157.99 67.5124 Q1164.19 67.5124 1167.92 63.1374 Q1171.68 58.7219 1171.68 51.4303 L1171.68 49.7694 L1164.27 49.7694 M1179.14 46.6907 L1179.14 72.576 L1171.68 72.576 L1171.68 65.6895 Q1169.13 69.8214 1165.33 71.8063 Q1161.52 73.7508 1156.01 73.7508 Q1149.04 73.7508 1144.91 69.8619 Q1140.82 65.9325 1140.82 59.3701 Q1140.82 51.7138 1145.92 47.825 Q1151.07 43.9361 1161.23 43.9361 L1171.68 43.9361 L1171.68 43.2069 Q1171.68 38.0623 1168.28 35.2672 Q1164.92 32.4315 1158.8 32.4315 Q1154.91 32.4315 1151.23 33.3632 Q1147.54 34.295 1144.14 36.1584 L1144.14 29.2718 Q1148.23 27.692 1152.08 26.9223 Q1155.93 26.1121 1159.57 26.1121 Q1169.42 26.1121 1174.28 31.2163 Q1179.14 36.3204 1179.14 46.6907 Z" fill="#ffffff" fill-rule="nonzero" fill-opacity="1" /><path clip-path="url(#clip860)" d="M1194.21 9.54393 L1201.7 9.54393 L1201.7 46.7717 L1223.94 27.2059 L1233.46 27.2059 L1209.4 48.4326 L1234.47 72.576 L1224.75 72.576 L1201.7 50.4176 L1201.7 72.576 L1194.21 72.576 L1194.21 9.54393 Z" fill="#ffffff" fill-rule="nonzero" fill-opacity="1" /><path clip-path="url(#clip860)" d="M1278.39 48.0275 L1278.39 51.6733 L1244.12 51.6733 Q1244.6 59.3701 1248.73 63.421 Q1252.91 67.4314 1260.32 67.4314 Q1264.61 67.4314 1268.62 66.3781 Q1272.67 65.3249 1276.64 63.2184 L1276.64 70.267 Q1272.63 71.9684 1268.42 72.8596 Q1264.21 73.7508 1259.87 73.7508 Q1249.02 73.7508 1242.66 67.4314 Q1236.34 61.1119 1236.34 50.3365 Q1236.34 39.1965 1242.33 32.6746 Q1248.37 26.1121 1258.58 26.1121 Q1267.73 26.1121 1273.04 32.0264 Q1278.39 37.9003 1278.39 48.0275 M1270.93 45.84 Q1270.85 39.7232 1267.49 36.0774 Q1264.17 32.4315 1258.66 32.4315 Q1252.42 32.4315 1248.65 35.9558 Q1244.93 39.4801 1244.36 45.8805 L1270.93 45.84 Z" fill="#ffffff" fill-rule="nonzero" fill-opacity="1" /><path clip-path="url(#clip860)" d="M1317.31 12.096 L1355.56 12.096 L1355.56 18.9825 L1325.5 18.9825 L1325.5 36.8875 L1354.3 36.8875 L1354.3 43.7741 L1325.5 43.7741 L1325.5 65.6895 L1356.28 65.6895 L1356.28 72.576 L1317.31 72.576 L1317.31 12.096 Z" fill="#ffffff" fill-rule="nonzero" fill-opacity="1" /><path clip-path="url(#clip860)" d="M1395.7 34.1734 Q1394.44 33.4443 1392.95 33.1202 Q1391.49 32.7556 1389.7 32.7556 Q1383.39 32.7556 1379.98 36.8875 Q1376.62 40.9789 1376.62 48.6757 L1376.62 72.576 L1369.13 72.576 L1369.13 27.2059 L1376.62 27.2059 L1376.62 34.2544 Q1378.97 30.1225 1382.74 28.1376 Q1386.5 26.1121 1391.89 26.1121 Q1392.66 26.1121 1393.59 26.2337 Q1394.53 26.3147 1395.66 26.5172 L1395.7 34.1734 Z" fill="#ffffff" fill-rule="nonzero" fill-opacity="1" /><path clip-path="url(#clip860)" d="M1403.52 27.2059 L1410.97 27.2059 L1410.97 72.576 L1403.52 72.576 L1403.52 27.2059 M1403.52 9.54393 L1410.97 9.54393 L1410.97 18.9825 L1403.52 18.9825 L1403.52 9.54393 Z" fill="#ffffff" fill-rule="nonzero" fill-opacity="1" /><path clip-path="url(#clip860)" d="M1465.38 48.0275 L1465.38 51.6733 L1431.1 51.6733 Q1431.59 59.3701 1435.72 63.421 Q1439.9 67.4314 1447.31 67.4314 Q1451.6 67.4314 1455.61 66.3781 Q1459.66 65.3249 1463.63 63.2184 L1463.63 70.267 Q1459.62 71.9684 1455.41 72.8596 Q1451.2 73.7508 1446.86 73.7508 Q1436.01 73.7508 1429.65 67.4314 Q1423.33 61.1119 1423.33 50.3365 Q1423.33 39.1965 1429.32 32.6746 Q1435.36 26.1121 1445.57 26.1121 Q1454.72 26.1121 1460.03 32.0264 Q1465.38 37.9003 1465.38 48.0275 M1457.92 45.84 Q1457.84 39.7232 1454.48 36.0774 Q1451.16 32.4315 1445.65 32.4315 Q1439.41 32.4315 1435.64 35.9558 Q1431.92 39.4801 1431.35 45.8805 L1457.92 45.84 Z" fill="#ffffff" fill-rule="nonzero" fill-opacity="1" /><polyline clip-path="url(#clip862)" style="stroke:#66c2a4; stroke-linecap:round; stroke-linejoin:round; stroke-width:8; stroke-opacity:1; fill:none" points="271.009,635.475 307.1,854.959 343.192,1016.35 379.283,1146.61 415.374,1199.56 451.466,1166.1 487.557,1165.48 523.648,1100.32 559.739,950.435 595.831,803.316 631.922,781.368 668.013,822.682 704.105,765.939 740.196,940.881 776.287,1097.88 812.379,1163.55 848.47,1219.47 884.561,1247.98 920.653,1225.05 956.744,1123.15 992.835,1032.21 1028.93,865.675 1065.02,848.31 1101.11,833.721 1137.2,763.551 1173.29,898.275 1209.38,1146.82 1245.47,1161.95 1281.57,1183.26 1317.66,1256.45 1353.75,1225.44 1389.84,1104.03 1425.93,1006.45 1462.02,864.513 1498.11,790.922 1534.2,845.47 1570.3,904.989 1606.39,954.244 1642.48,1079.79 1678.57,1261.64 1714.66,1287.73 1750.75,1310.59 1786.84,1248.76 1822.94,1170.35 1859.03,1036.19 1895.12,922.225 1931.21,822.747 1967.3,816.292 2003.39,915.77 2039.48,981.137 2075.57,1109.68 2111.67,1263.16 2147.76,1294.54 2183.85,1386.4 2219.94,1360.77 2256.03,1085.83 2292.12,981.06 "/>
<polyline clip-path="url(#clip862)" style="stroke:#fb8d61; stroke-linecap:round; stroke-linejoin:round; stroke-width:8; stroke-opacity:1; fill:none" points="271.009,160.256 307.1,572.027 343.192,864.313 379.283,825.539 415.374,1087.75 451.466,1026 487.557,855.331 523.648,1046.78 559.739,1034.86 595.831,998.991 631.922,1140.07 668.013,1110.21 704.105,666.795 740.196,967.963 776.287,1032.08 812.379,983.699 848.47,1183.73 884.561,1124.77 920.653,1058 956.744,1107.54 992.835,1214.99 1028.93,1093.56 1065.02,1126.77 1101.11,1233.8 1137.2,789.169 1173.29,1039.93 1209.38,988.734 1245.47,959.07 1281.57,1044.19 1317.66,1157.86 1353.75,1031.94 1389.84,1087.33 1425.93,1112.89 1462.02,1160.15 1498.11,959.476 1534.2,952.493 1570.3,1030.12 1606.39,952.483 1642.48,956.518 1678.57,1230.45 1714.66,941.098 1750.75,1143.84 1786.84,1165.51 1822.94,1150.72 1859.03,1064.54 1895.12,1111.27 1931.21,1046.62 1967.3,1092.48 2003.39,1060.89 2039.48,1196.02 2075.57,1227.53 2111.67,1273.94 2147.76,1103.32 2183.85,1213.02 2219.94,1317.9 2256.03,1121.16 2292.12,1249.02 "/>
<path clip-path="url(#clip860)" d="M281.788 322.316 L519.289 322.316 L519.289 166.796 L281.788 166.796  Z" fill="#000000" fill-rule="evenodd" fill-opacity="1"/>
<polyline clip-path="url(#clip860)" style="stroke:#ffffff; stroke-linecap:round; stroke-linejoin:round; stroke-width:4; stroke-opacity:1; fill:none" points="281.788,322.316 519.289,322.316 519.289,166.796 281.788,166.796 281.788,322.316 "/>
<polyline clip-path="url(#clip860)" style="stroke:#66c2a4; stroke-linecap:round; stroke-linejoin:round; stroke-width:8; stroke-opacity:1; fill:none" points="305.592,218.636 448.418,218.636 "/>
<path clip-path="url(#clip860)" d="M494.356 204.89 Q494.356 205.218 494.145 205.991 L489.555 224.308 Q488.548 228.383 485.268 231.241 Q482.013 234.098 478.312 234.098 Q476.087 234.098 474.658 232.904 Q473.229 231.732 473.229 229.929 Q473.229 228.336 474.072 227.563 Q474.916 226.814 475.923 226.814 Q476.251 226.814 476.602 226.907 Q476.953 227.001 477.328 227.399 Q477.703 227.798 477.703 228.477 Q477.703 229.578 476.743 230.444 Q476.274 230.842 475.829 230.936 Q475.408 231.03 474.681 231.03 Q474.962 231.686 475.478 232.131 Q475.993 232.576 476.579 232.74 Q477.164 232.927 477.539 232.974 Q477.937 233.044 478.312 233.044 Q481.31 233.044 483.605 230.023 Q484.285 229.109 484.776 228.196 Q485.292 227.306 485.667 226.205 Q486.041 225.127 486.205 224.542 Q486.393 223.956 486.721 222.621 Q484.542 224.799 481.872 224.799 Q480.748 224.799 479.741 224.495 Q478.757 224.19 477.89 223.558 Q477.024 222.902 476.508 221.755 Q476.016 220.607 476.016 219.084 Q476.016 217.468 476.649 215.266 Q477.281 213.065 478.804 209.013 Q479.624 206.741 479.624 205.64 Q479.624 205.101 479.506 204.773 Q479.389 204.422 479.155 204.305 Q478.921 204.164 478.78 204.141 Q478.663 204.117 478.429 204.117 Q477.047 204.117 475.759 205.523 Q474.471 206.928 473.581 210.067 Q473.393 210.652 473.276 210.793 Q473.159 210.933 472.808 210.933 Q472.222 210.91 472.222 210.441 Q472.222 210.254 472.433 209.528 Q472.644 208.778 473.136 207.678 Q473.651 206.553 474.354 205.546 Q475.056 204.516 476.157 203.789 Q477.281 203.063 478.57 203.063 Q480.326 203.063 481.404 204.211 Q482.505 205.335 482.505 206.998 Q482.505 207.678 482.317 208.287 Q482.153 208.872 481.544 210.441 Q479.085 216.766 479.085 219.857 Q479.085 220.607 479.202 221.239 Q479.342 221.848 479.647 222.457 Q479.951 223.043 480.56 223.394 Q481.193 223.722 482.059 223.722 Q483.16 223.722 484.191 223.207 Q485.245 222.668 485.901 221.942 Q486.58 221.216 486.978 220.607 Q487.4 219.974 487.493 219.646 L489.648 211.027 L490.609 207.186 Q491.054 205.101 491.265 204.586 Q491.546 204.094 492.037 203.836 Q492.529 203.579 492.951 203.579 Q493.536 203.579 493.935 203.93 Q494.356 204.281 494.356 204.89 Z" fill="#ffffff" fill-rule="nonzero" fill-opacity="1" /><polyline clip-path="url(#clip860)" style="stroke:#fb8d61; stroke-linecap:round; stroke-linejoin:round; stroke-width:8; stroke-opacity:1; fill:none" points="305.592,270.476 448.418,270.476 "/>
<path clip-path="url(#clip860)" d="M494.356 256.73 Q494.356 257.058 494.145 257.831 L489.555 276.148 Q488.548 280.223 485.268 283.081 Q482.013 285.938 478.312 285.938 Q476.087 285.938 474.658 284.744 Q473.229 283.572 473.229 281.769 Q473.229 280.176 474.072 279.403 Q474.916 278.654 475.923 278.654 Q476.251 278.654 476.602 278.747 Q476.953 278.841 477.328 279.239 Q477.703 279.638 477.703 280.317 Q477.703 281.418 476.743 282.284 Q476.274 282.682 475.829 282.776 Q475.408 282.87 474.681 282.87 Q474.962 283.526 475.478 283.971 Q475.993 284.416 476.579 284.58 Q477.164 284.767 477.539 284.814 Q477.937 284.884 478.312 284.884 Q481.31 284.884 483.605 281.863 Q484.285 280.949 484.776 280.036 Q485.292 279.146 485.667 278.045 Q486.041 276.967 486.205 276.382 Q486.393 275.796 486.721 274.461 Q484.542 276.639 481.872 276.639 Q480.748 276.639 479.741 276.335 Q478.757 276.03 477.89 275.398 Q477.024 274.742 476.508 273.595 Q476.016 272.447 476.016 270.924 Q476.016 269.308 476.649 267.106 Q477.281 264.905 478.804 260.853 Q479.624 258.581 479.624 257.48 Q479.624 256.941 479.506 256.613 Q479.389 256.262 479.155 256.145 Q478.921 256.004 478.78 255.981 Q478.663 255.957 478.429 255.957 Q477.047 255.957 475.759 257.363 Q474.471 258.768 473.581 261.907 Q473.393 262.492 473.276 262.633 Q473.159 262.773 472.808 262.773 Q472.222 262.75 472.222 262.281 Q472.222 262.094 472.433 261.368 Q472.644 260.618 473.136 259.518 Q473.651 258.393 474.354 257.386 Q475.056 256.356 476.157 255.629 Q477.281 254.903 478.57 254.903 Q480.326 254.903 481.404 256.051 Q482.505 257.175 482.505 258.838 Q482.505 259.518 482.317 260.127 Q482.153 260.712 481.544 262.281 Q479.085 268.606 479.085 271.697 Q479.085 272.447 479.202 273.079 Q479.342 273.688 479.647 274.297 Q479.951 274.883 480.56 275.234 Q481.193 275.562 482.059 275.562 Q483.16 275.562 484.191 275.047 Q485.245 274.508 485.901 273.782 Q486.58 273.056 486.978 272.447 Q487.4 271.814 487.493 271.486 L489.648 262.867 L490.609 259.026 Q491.054 256.941 491.265 256.426 Q491.546 255.934 492.037 255.676 Q492.529 255.419 492.951 255.419 Q493.536 255.419 493.935 255.77 Q494.356 256.121 494.356 256.73 Z" fill="#ffffff" fill-rule="nonzero" fill-opacity="1" /></svg>
