<?xml version="1.0" encoding="utf-8"?>
<svg xmlns="http://www.w3.org/2000/svg" xmlns:xlink="http://www.w3.org/1999/xlink" width="600" height="400" viewBox="0 0 2400 1600">
<defs>
  <clipPath id="clip820">
    <rect x="0" y="0" width="2400" height="1600"/>
  </clipPath>
</defs>
<path clip-path="url(#clip820)" d="M0 1600 L2400 1600 L2400 0 L0 0  Z" fill="#000000" fill-rule="evenodd" fill-opacity="1"/>
<defs>
  <clipPath id="clip821">
    <rect x="480" y="0" width="1681" height="1600"/>
  </clipPath>
</defs>
<path clip-path="url(#clip820)" d="M232.389 1423.18 L2352.76 1423.18 L2352.76 123.472 L232.389 123.472  Z" fill="#000000" fill-rule="evenodd" fill-opacity="1"/>
<defs>
  <clipPath id="clip822">
    <rect x="232" y="123" width="2121" height="1301"/>
  </clipPath>
</defs>
<polyline clip-path="url(#clip822)" style="stroke:#ffffff; stroke-linecap:round; stroke-linejoin:round; stroke-width:2; stroke-opacity:0.1; fill:none" points="292.4,1423.18 292.4,123.472 "/>
<polyline clip-path="url(#clip822)" style="stroke:#ffffff; stroke-linecap:round; stroke-linejoin:round; stroke-width:2; stroke-opacity:0.1; fill:none" points="917.508,1423.18 917.508,123.472 "/>
<polyline clip-path="url(#clip822)" style="stroke:#ffffff; stroke-linecap:round; stroke-linejoin:round; stroke-width:2; stroke-opacity:0.1; fill:none" points="1542.62,1423.18 1542.62,123.472 "/>
<polyline clip-path="url(#clip822)" style="stroke:#ffffff; stroke-linecap:round; stroke-linejoin:round; stroke-width:2; stroke-opacity:0.1; fill:none" points="2167.72,1423.18 2167.72,123.472 "/>
<polyline clip-path="url(#clip820)" style="stroke:#ffffff; stroke-linecap:round; stroke-linejoin:round; stroke-width:4; stroke-opacity:1; fill:none" points="232.389,1423.18 2352.76,1423.18 "/>
<polyline clip-path="url(#clip820)" style="stroke:#ffffff; stroke-linecap:round; stroke-linejoin:round; stroke-width:4; stroke-opacity:1; fill:none" points="292.4,1423.18 292.4,1404.28 "/>
<polyline clip-path="url(#clip820)" style="stroke:#ffffff; stroke-linecap:round; stroke-linejoin:round; stroke-width:4; stroke-opacity:1; fill:none" points="917.508,1423.18 917.508,1404.28 "/>
<polyline clip-path="url(#clip820)" style="stroke:#ffffff; stroke-linecap:round; stroke-linejoin:round; stroke-width:4; stroke-opacity:1; fill:none" points="1542.62,1423.18 1542.62,1404.28 "/>
<polyline clip-path="url(#clip820)" style="stroke:#ffffff; stroke-linecap:round; stroke-linejoin:round; stroke-width:4; stroke-opacity:1; fill:none" points="2167.72,1423.18 2167.72,1404.28 "/>
<path clip-path="url(#clip820)" d="M292.4 1454.1 Q288.789 1454.1 286.96 1457.66 Q285.154 1461.2 285.154 1468.33 Q285.154 1475.44 286.96 1479.01 Q288.789 1482.55 292.4 1482.55 Q296.034 1482.55 297.84 1479.01 Q299.668 1475.44 299.668 1468.33 Q299.668 1461.2 297.84 1457.66 Q296.034 1454.1 292.4 1454.1 M292.4 1450.39 Q298.21 1450.39 301.265 1455 Q304.344 1459.58 304.344 1468.33 Q304.344 1477.06 301.265 1481.67 Q298.21 1486.25 292.4 1486.25 Q286.59 1486.25 283.511 1481.67 Q280.455 1477.06 280.455 1468.33 Q280.455 1459.58 283.511 1455 Q286.59 1450.39 292.4 1450.39 Z" fill="#ffffff" fill-rule="nonzero" fill-opacity="1" /><path clip-path="url(#clip820)" d="M877.126 1451.02 L895.482 1451.02 L895.482 1454.96 L881.408 1454.96 L881.408 1463.43 Q882.427 1463.08 883.445 1462.92 Q884.464 1462.73 885.482 1462.73 Q891.27 1462.73 894.649 1465.9 Q898.029 1469.08 898.029 1474.49 Q898.029 1480.07 894.557 1483.17 Q891.084 1486.25 884.765 1486.25 Q882.589 1486.25 880.32 1485.88 Q878.075 1485.51 875.668 1484.77 L875.668 1480.07 Q877.751 1481.2 879.973 1481.76 Q882.195 1482.32 884.672 1482.32 Q888.677 1482.32 891.015 1480.21 Q893.353 1478.1 893.353 1474.49 Q893.353 1470.88 891.015 1468.77 Q888.677 1466.67 884.672 1466.67 Q882.797 1466.67 880.922 1467.08 Q879.07 1467.5 877.126 1468.38 L877.126 1451.02 Z" fill="#ffffff" fill-rule="nonzero" fill-opacity="1" /><path clip-path="url(#clip820)" d="M917.242 1454.1 Q913.63 1454.1 911.802 1457.66 Q909.996 1461.2 909.996 1468.33 Q909.996 1475.44 911.802 1479.01 Q913.63 1482.55 917.242 1482.55 Q920.876 1482.55 922.681 1479.01 Q924.51 1475.44 924.51 1468.33 Q924.51 1461.2 922.681 1457.66 Q920.876 1454.1 917.242 1454.1 M917.242 1450.39 Q923.052 1450.39 926.107 1455 Q929.186 1459.58 929.186 1468.33 Q929.186 1477.06 926.107 1481.67 Q923.052 1486.25 917.242 1486.25 Q911.431 1486.25 908.353 1481.67 Q905.297 1477.06 905.297 1468.33 Q905.297 1459.58 908.353 1455 Q911.431 1450.39 917.242 1450.39 Z" fill="#ffffff" fill-rule="nonzero" fill-opacity="1" /><path clip-path="url(#clip820)" d="M947.403 1454.1 Q943.792 1454.1 941.964 1457.66 Q940.158 1461.2 940.158 1468.33 Q940.158 1475.44 941.964 1479.01 Q943.792 1482.55 947.403 1482.55 Q951.038 1482.55 952.843 1479.01 Q954.672 1475.44 954.672 1468.33 Q954.672 1461.2 952.843 1457.66 Q951.038 1454.1 947.403 1454.1 M947.403 1450.39 Q953.214 1450.39 956.269 1455 Q959.348 1459.58 959.348 1468.33 Q959.348 1477.06 956.269 1481.67 Q953.214 1486.25 947.403 1486.25 Q941.593 1486.25 938.515 1481.67 Q935.459 1477.06 935.459 1468.33 Q935.459 1459.58 938.515 1455 Q941.593 1450.39 947.403 1450.39 Z" fill="#ffffff" fill-rule="nonzero" fill-opacity="1" /><path clip-path="url(#clip820)" d="M1487.14 1481.64 L1494.78 1481.64 L1494.78 1455.28 L1486.47 1456.95 L1486.47 1452.69 L1494.73 1451.02 L1499.41 1451.02 L1499.41 1481.64 L1507.05 1481.64 L1507.05 1485.58 L1487.14 1485.58 L1487.14 1481.64 Z" fill="#ffffff" fill-rule="nonzero" fill-opacity="1" /><path clip-path="url(#clip820)" d="M1526.49 1454.1 Q1522.88 1454.1 1521.05 1457.66 Q1519.25 1461.2 1519.25 1468.33 Q1519.25 1475.44 1521.05 1479.01 Q1522.88 1482.55 1526.49 1482.55 Q1530.13 1482.55 1531.93 1479.01 Q1533.76 1475.44 1533.76 1468.33 Q1533.76 1461.2 1531.93 1457.66 Q1530.13 1454.1 1526.49 1454.1 M1526.49 1450.39 Q1532.3 1450.39 1535.36 1455 Q1538.44 1459.58 1538.44 1468.33 Q1538.44 1477.06 1535.36 1481.67 Q1532.3 1486.25 1526.49 1486.25 Q1520.68 1486.25 1517.6 1481.67 Q1514.55 1477.06 1514.55 1468.33 Q1514.55 1459.58 1517.6 1455 Q1520.68 1450.39 1526.49 1450.39 Z" fill="#ffffff" fill-rule="nonzero" fill-opacity="1" /><path clip-path="url(#clip820)" d="M1556.66 1454.1 Q1553.04 1454.1 1551.22 1457.66 Q1549.41 1461.2 1549.41 1468.33 Q1549.41 1475.44 1551.22 1479.01 Q1553.04 1482.55 1556.66 1482.55 Q1560.29 1482.55 1562.09 1479.01 Q1563.92 1475.44 1563.92 1468.33 Q1563.92 1461.2 1562.09 1457.66 Q1560.29 1454.1 1556.66 1454.1 M1556.66 1450.39 Q1562.47 1450.39 1565.52 1455 Q1568.6 1459.58 1568.6 1468.33 Q1568.6 1477.06 1565.52 1481.67 Q1562.47 1486.25 1556.66 1486.25 Q1550.84 1486.25 1547.77 1481.67 Q1544.71 1477.06 1544.71 1468.33 Q1544.71 1459.58 1547.77 1455 Q1550.84 1450.39 1556.66 1450.39 Z" fill="#ffffff" fill-rule="nonzero" fill-opacity="1" /><path clip-path="url(#clip820)" d="M1586.82 1454.1 Q1583.21 1454.1 1581.38 1457.66 Q1579.57 1461.2 1579.57 1468.33 Q1579.57 1475.44 1581.38 1479.01 Q1583.21 1482.55 1586.82 1482.55 Q1590.45 1482.55 1592.26 1479.01 Q1594.09 1475.44 1594.09 1468.33 Q1594.09 1461.2 1592.26 1457.66 Q1590.45 1454.1 1586.82 1454.1 M1586.82 1450.39 Q1592.63 1450.39 1595.68 1455 Q1598.76 1459.58 1598.76 1468.33 Q1598.76 1477.06 1595.68 1481.67 Q1592.63 1486.25 1586.82 1486.25 Q1581.01 1486.25 1577.93 1481.67 Q1574.87 1477.06 1574.87 1468.33 Q1574.87 1459.58 1577.93 1455 Q1581.01 1450.39 1586.82 1450.39 Z" fill="#ffffff" fill-rule="nonzero" fill-opacity="1" /><path clip-path="url(#clip820)" d="M2112.25 1481.64 L2119.89 1481.64 L2119.89 1455.28 L2111.58 1456.95 L2111.58 1452.69 L2119.84 1451.02 L2124.52 1451.02 L2124.52 1481.64 L2132.16 1481.64 L2132.16 1485.58 L2112.25 1485.58 L2112.25 1481.64 Z" fill="#ffffff" fill-rule="nonzero" fill-opacity="1" /><path clip-path="url(#clip820)" d="M2141.65 1451.02 L2160 1451.02 L2160 1454.96 L2145.93 1454.96 L2145.93 1463.43 Q2146.95 1463.08 2147.97 1462.92 Q2148.99 1462.73 2150 1462.73 Q2155.79 1462.73 2159.17 1465.9 Q2162.55 1469.08 2162.55 1474.49 Q2162.55 1480.07 2159.08 1483.17 Q2155.61 1486.25 2149.29 1486.25 Q2147.11 1486.25 2144.84 1485.88 Q2142.6 1485.51 2140.19 1484.77 L2140.19 1480.07 Q2142.27 1481.2 2144.49 1481.76 Q2146.72 1482.32 2149.19 1482.32 Q2153.2 1482.32 2155.54 1480.21 Q2157.87 1478.1 2157.87 1474.49 Q2157.87 1470.88 2155.54 1468.77 Q2153.2 1466.67 2149.19 1466.67 Q2147.32 1466.67 2145.44 1467.08 Q2143.59 1467.5 2141.65 1468.38 L2141.65 1451.02 Z" fill="#ffffff" fill-rule="nonzero" fill-opacity="1" /><path clip-path="url(#clip820)" d="M2181.76 1454.1 Q2178.15 1454.1 2176.32 1457.66 Q2174.52 1461.2 2174.52 1468.33 Q2174.52 1475.44 2176.32 1479.01 Q2178.15 1482.55 2181.76 1482.55 Q2185.4 1482.55 2187.2 1479.01 Q2189.03 1475.44 2189.03 1468.33 Q2189.03 1461.2 2187.2 1457.66 Q2185.4 1454.1 2181.76 1454.1 M2181.76 1450.39 Q2187.57 1450.39 2190.63 1455 Q2193.71 1459.58 2193.71 1468.33 Q2193.71 1477.06 2190.63 1481.67 Q2187.57 1486.25 2181.76 1486.25 Q2175.95 1486.25 2172.87 1481.67 Q2169.82 1477.06 2169.82 1468.33 Q2169.82 1459.58 2172.87 1455 Q2175.95 1450.39 2181.76 1450.39 Z" fill="#ffffff" fill-rule="nonzero" fill-opacity="1" /><path clip-path="url(#clip820)" d="M2211.93 1454.1 Q2208.31 1454.1 2206.49 1457.66 Q2204.68 1461.2 2204.68 1468.33 Q2204.68 1475.44 2206.49 1479.01 Q2208.31 1482.55 2211.93 1482.55 Q2215.56 1482.55 2217.36 1479.01 Q2219.19 1475.44 2219.19 1468.33 Q2219.19 1461.2 2217.36 1457.66 Q2215.56 1454.1 2211.93 1454.1 M2211.93 1450.39 Q2217.74 1450.39 2220.79 1455 Q2223.87 1459.58 2223.87 1468.33 Q2223.87 1477.06 2220.79 1481.67 Q2217.74 1486.25 2211.93 1486.25 Q2206.11 1486.25 2203.04 1481.67 Q2199.98 1477.06 2199.98 1468.33 Q2199.98 1459.58 2203.04 1455 Q2206.11 1450.39 2211.93 1450.39 Z" fill="#ffffff" fill-rule="nonzero" fill-opacity="1" /><path clip-path="url(#clip820)" d="M1118.98 1531.91 Q1118.98 1532.81 1118.57 1533.04 Q1118.15 1533.23 1116.99 1533.23 L1110.8 1533.23 L1105.91 1552.69 Q1105.52 1554.39 1105.52 1555.84 Q1105.52 1557.45 1106.01 1558.16 Q1106.52 1558.87 1107.58 1558.87 Q1109.68 1558.87 1111.93 1556.97 Q1114.22 1555.07 1116.15 1550.43 Q1116.41 1549.82 1116.54 1549.69 Q1116.7 1549.53 1117.12 1549.53 Q1117.92 1549.53 1117.92 1550.17 Q1117.92 1550.4 1117.47 1551.43 Q1117.05 1552.46 1116.12 1553.97 Q1115.22 1555.49 1114.02 1556.9 Q1112.87 1558.32 1111.09 1559.35 Q1109.32 1560.35 1107.42 1560.35 Q1104.75 1560.35 1103.04 1558.64 Q1101.37 1556.94 1101.37 1554.26 Q1101.37 1553.39 1102.04 1550.62 Q1102.72 1547.82 1106.39 1533.23 L1100.56 1533.23 Q1099.76 1533.23 1099.44 1533.2 Q1099.15 1533.17 1098.92 1533.01 Q1098.73 1532.81 1098.73 1532.43 Q1098.73 1531.82 1098.98 1531.56 Q1099.24 1531.27 1099.56 1531.24 Q1099.92 1531.17 1100.72 1531.17 L1106.91 1531.17 L1109.48 1520.71 Q1109.74 1519.67 1110.39 1519.09 Q1111.06 1518.48 1111.45 1518.42 Q1111.83 1518.32 1112.12 1518.32 Q1112.99 1518.32 1113.51 1518.81 Q1114.02 1519.26 1114.02 1520.09 Q1114.02 1520.54 1111.32 1531.17 L1117.12 1531.17 Q1117.86 1531.17 1118.15 1531.2 Q1118.47 1531.24 1118.73 1531.4 Q1118.98 1531.56 1118.98 1531.91 Z" fill="#ffffff" fill-rule="nonzero" fill-opacity="1" /><path clip-path="url(#clip820)" d="M1149.16 1523.96 L1155.02 1523.96 L1155.02 1559.61 L1149.16 1559.61 L1149.16 1523.96 M1149.16 1510.08 L1155.02 1510.08 L1155.02 1517.5 L1149.16 1517.5 L1149.16 1510.08 Z" fill="#ffffff" fill-rule="nonzero" fill-opacity="1" /><path clip-path="url(#clip820)" d="M1196.91 1538.09 L1196.91 1559.61 L1191.05 1559.61 L1191.05 1538.28 Q1191.05 1533.22 1189.08 1530.71 Q1187.1 1528.2 1183.16 1528.2 Q1178.41 1528.2 1175.68 1531.22 Q1172.94 1534.24 1172.94 1539.46 L1172.94 1559.61 L1167.05 1559.61 L1167.05 1523.96 L1172.94 1523.96 L1172.94 1529.5 Q1175.04 1526.29 1177.87 1524.69 Q1180.74 1523.1 1184.46 1523.1 Q1190.6 1523.1 1193.75 1526.92 Q1196.91 1530.71 1196.91 1538.09 Z" fill="#ffffff" fill-rule="nonzero" fill-opacity="1" /><path clip-path="url(#clip820)" d="M1252.03 1525.01 L1252.03 1530.55 Q1249.55 1529.28 1246.88 1528.64 Q1244.2 1528 1241.34 1528 Q1236.98 1528 1234.78 1529.34 Q1232.62 1530.68 1232.62 1533.35 Q1232.62 1535.39 1234.18 1536.57 Q1235.74 1537.71 1240.45 1538.76 L1242.45 1539.21 Q1248.69 1540.54 1251.3 1543 Q1253.94 1545.41 1253.94 1549.77 Q1253.94 1554.74 1250 1557.64 Q1246.08 1560.53 1239.21 1560.53 Q1236.34 1560.53 1233.22 1559.96 Q1230.13 1559.42 1226.7 1558.3 L1226.7 1552.26 Q1229.94 1553.94 1233.1 1554.8 Q1236.25 1555.63 1239.33 1555.63 Q1243.47 1555.63 1245.7 1554.23 Q1247.93 1552.8 1247.93 1550.22 Q1247.93 1547.83 1246.3 1546.56 Q1244.71 1545.29 1239.27 1544.11 L1237.23 1543.63 Q1231.79 1542.49 1229.37 1540.13 Q1226.95 1537.74 1226.95 1533.61 Q1226.95 1528.58 1230.52 1525.84 Q1234.08 1523.1 1240.64 1523.1 Q1243.88 1523.1 1246.75 1523.58 Q1249.61 1524.06 1252.03 1525.01 Z" fill="#ffffff" fill-rule="nonzero" fill-opacity="1" /><path clip-path="url(#clip820)" d="M1293.76 1540.32 L1293.76 1543.19 L1266.83 1543.19 Q1267.22 1549.23 1270.46 1552.42 Q1273.74 1555.57 1279.56 1555.57 Q1282.94 1555.57 1286.09 1554.74 Q1289.27 1553.91 1292.39 1552.26 L1292.39 1557.8 Q1289.24 1559.13 1285.93 1559.83 Q1282.62 1560.53 1279.21 1560.53 Q1270.68 1560.53 1265.69 1555.57 Q1260.72 1550.6 1260.72 1542.14 Q1260.72 1533.38 1265.43 1528.26 Q1270.18 1523.1 1278.2 1523.1 Q1285.39 1523.1 1289.56 1527.75 Q1293.76 1532.36 1293.76 1540.32 M1287.9 1538.6 Q1287.84 1533.8 1285.2 1530.93 Q1282.59 1528.07 1278.26 1528.07 Q1273.36 1528.07 1270.4 1530.84 Q1267.47 1533.61 1267.02 1538.63 L1287.9 1538.6 Z" fill="#ffffff" fill-rule="nonzero" fill-opacity="1" /><path clip-path="url(#clip820)" d="M1329.03 1525.33 L1329.03 1530.81 Q1326.54 1529.44 1324.03 1528.77 Q1321.55 1528.07 1319 1528.07 Q1313.3 1528.07 1310.15 1531.7 Q1307 1535.29 1307 1541.82 Q1307 1548.34 1310.15 1551.97 Q1313.3 1555.57 1319 1555.57 Q1321.55 1555.57 1324.03 1554.9 Q1326.54 1554.2 1329.03 1552.83 L1329.03 1558.24 Q1326.58 1559.39 1323.93 1559.96 Q1321.32 1560.53 1318.36 1560.53 Q1310.31 1560.53 1305.57 1555.47 Q1300.83 1550.41 1300.83 1541.82 Q1300.83 1533.1 1305.6 1528.1 Q1310.41 1523.1 1318.75 1523.1 Q1321.45 1523.1 1324.03 1523.68 Q1326.61 1524.22 1329.03 1525.33 Z" fill="#ffffff" fill-rule="nonzero" fill-opacity="1" /><path clip-path="url(#clip820)" d="M1353.02 1528.07 Q1348.31 1528.07 1345.58 1531.76 Q1342.84 1535.42 1342.84 1541.82 Q1342.84 1548.22 1345.55 1551.91 Q1348.28 1555.57 1353.02 1555.57 Q1357.7 1555.57 1360.44 1551.88 Q1363.18 1548.18 1363.18 1541.82 Q1363.18 1535.48 1360.44 1531.79 Q1357.7 1528.07 1353.02 1528.07 M1353.02 1523.1 Q1360.66 1523.1 1365.02 1528.07 Q1369.38 1533.03 1369.38 1541.82 Q1369.38 1550.57 1365.02 1555.57 Q1360.66 1560.53 1353.02 1560.53 Q1345.35 1560.53 1340.99 1555.57 Q1336.67 1550.57 1336.67 1541.82 Q1336.67 1533.03 1340.99 1528.07 Q1345.35 1523.1 1353.02 1523.1 Z" fill="#ffffff" fill-rule="nonzero" fill-opacity="1" /><path clip-path="url(#clip820)" d="M1408.72 1538.09 L1408.72 1559.61 L1402.87 1559.61 L1402.87 1538.28 Q1402.87 1533.22 1400.9 1530.71 Q1398.92 1528.2 1394.97 1528.2 Q1390.23 1528.2 1387.5 1531.22 Q1384.76 1534.24 1384.76 1539.46 L1384.76 1559.61 L1378.87 1559.61 L1378.87 1523.96 L1384.76 1523.96 L1384.76 1529.5 Q1386.86 1526.29 1389.69 1524.69 Q1392.56 1523.1 1396.28 1523.1 Q1402.42 1523.1 1405.57 1526.92 Q1408.72 1530.71 1408.72 1538.09 Z" fill="#ffffff" fill-rule="nonzero" fill-opacity="1" /><path clip-path="url(#clip820)" d="M1443.86 1529.37 L1443.86 1510.08 L1449.72 1510.08 L1449.72 1559.61 L1443.86 1559.61 L1443.86 1554.26 Q1442.02 1557.45 1439.18 1559.01 Q1436.38 1560.53 1432.44 1560.53 Q1425.98 1560.53 1421.9 1555.38 Q1417.86 1550.22 1417.86 1541.82 Q1417.86 1533.42 1421.9 1528.26 Q1425.98 1523.1 1432.44 1523.1 Q1436.38 1523.1 1439.18 1524.66 Q1442.02 1526.19 1443.86 1529.37 M1423.91 1541.82 Q1423.91 1548.28 1426.55 1551.97 Q1429.22 1555.63 1433.87 1555.63 Q1438.52 1555.63 1441.19 1551.97 Q1443.86 1548.28 1443.86 1541.82 Q1443.86 1535.36 1441.19 1531.7 Q1438.52 1528 1433.87 1528 Q1429.22 1528 1426.55 1531.7 Q1423.91 1535.36 1423.91 1541.82 Z" fill="#ffffff" fill-rule="nonzero" fill-opacity="1" /><path clip-path="url(#clip820)" d="M1484.51 1525.01 L1484.51 1530.55 Q1482.03 1529.28 1479.35 1528.64 Q1476.68 1528 1473.81 1528 Q1469.45 1528 1467.26 1529.34 Q1465.09 1530.68 1465.09 1533.35 Q1465.09 1535.39 1466.65 1536.57 Q1468.21 1537.71 1472.92 1538.76 L1474.93 1539.21 Q1481.17 1540.54 1483.78 1543 Q1486.42 1545.41 1486.42 1549.77 Q1486.42 1554.74 1482.47 1557.64 Q1478.56 1560.53 1471.68 1560.53 Q1468.82 1560.53 1465.7 1559.96 Q1462.61 1559.42 1459.17 1558.3 L1459.17 1552.26 Q1462.42 1553.94 1465.57 1554.8 Q1468.72 1555.63 1471.81 1555.63 Q1475.95 1555.63 1478.17 1554.23 Q1480.4 1552.8 1480.4 1550.22 Q1480.4 1547.83 1478.78 1546.56 Q1477.19 1545.29 1471.75 1544.11 L1469.71 1543.63 Q1464.27 1542.49 1461.85 1540.13 Q1459.43 1537.74 1459.43 1533.61 Q1459.43 1528.58 1462.99 1525.84 Q1466.56 1523.1 1473.11 1523.1 Q1476.36 1523.1 1479.23 1523.58 Q1482.09 1524.06 1484.51 1525.01 Z" fill="#ffffff" fill-rule="nonzero" fill-opacity="1" /><polyline clip-path="url(#clip822)" style="stroke:#ffffff; stroke-linecap:round; stroke-linejoin:round; stroke-width:2; stroke-opacity:0.1; fill:none" points="232.389,1405.86 2352.76,1405.86 "/>
<polyline clip-path="url(#clip822)" style="stroke:#ffffff; stroke-linecap:round; stroke-linejoin:round; stroke-width:2; stroke-opacity:0.1; fill:none" points="232.389,1081.53 2352.76,1081.53 "/>
<polyline clip-path="url(#clip822)" style="stroke:#ffffff; stroke-linecap:round; stroke-linejoin:round; stroke-width:2; stroke-opacity:0.1; fill:none" points="232.389,757.2 2352.76,757.2 "/>
<polyline clip-path="url(#clip822)" style="stroke:#ffffff; stroke-linecap:round; stroke-linejoin:round; stroke-width:2; stroke-opacity:0.1; fill:none" points="232.389,432.873 2352.76,432.873 "/>
<polyline clip-path="url(#clip820)" style="stroke:#ffffff; stroke-linecap:round; stroke-linejoin:round; stroke-width:4; stroke-opacity:1; fill:none" points="232.389,1423.18 232.389,123.472 "/>
<polyline clip-path="url(#clip820)" style="stroke:#ffffff; stroke-linecap:round; stroke-linejoin:round; stroke-width:4; stroke-opacity:1; fill:none" points="232.389,1405.86 251.287,1405.86 "/>
<polyline clip-path="url(#clip820)" style="stroke:#ffffff; stroke-linecap:round; stroke-linejoin:round; stroke-width:4; stroke-opacity:1; fill:none" points="232.389,1081.53 251.287,1081.53 "/>
<polyline clip-path="url(#clip820)" style="stroke:#ffffff; stroke-linecap:round; stroke-linejoin:round; stroke-width:4; stroke-opacity:1; fill:none" points="232.389,757.2 251.287,757.2 "/>
<polyline clip-path="url(#clip820)" style="stroke:#ffffff; stroke-linecap:round; stroke-linejoin:round; stroke-width:4; stroke-opacity:1; fill:none" points="232.389,432.873 251.287,432.873 "/>
<path clip-path="url(#clip820)" d="M184.445 1391.65 Q180.834 1391.65 179.005 1395.22 Q177.2 1398.76 177.2 1405.89 Q177.2 1413 179.005 1416.56 Q180.834 1420.1 184.445 1420.1 Q188.079 1420.1 189.885 1416.56 Q191.713 1413 191.713 1405.89 Q191.713 1398.76 189.885 1395.22 Q188.079 1391.65 184.445 1391.65 M184.445 1387.95 Q190.255 1387.95 193.311 1392.56 Q196.389 1397.14 196.389 1405.89 Q196.389 1414.62 193.311 1419.22 Q190.255 1423.81 184.445 1423.81 Q178.635 1423.81 175.556 1419.22 Q172.501 1414.62 172.501 1405.89 Q172.501 1397.14 175.556 1392.56 Q178.635 1387.95 184.445 1387.95 Z" fill="#ffffff" fill-rule="nonzero" fill-opacity="1" /><path clip-path="url(#clip820)" d="M144.329 1064.25 L162.686 1064.25 L162.686 1068.18 L148.612 1068.18 L148.612 1076.66 Q149.63 1076.31 150.649 1076.15 Q151.667 1075.96 152.686 1075.96 Q158.473 1075.96 161.852 1079.13 Q165.232 1082.3 165.232 1087.72 Q165.232 1093.3 161.76 1096.4 Q158.288 1099.48 151.968 1099.48 Q149.792 1099.48 147.524 1099.11 Q145.279 1098.74 142.871 1098 L142.871 1093.3 Q144.954 1094.43 147.177 1094.99 Q149.399 1095.54 151.876 1095.54 Q155.88 1095.54 158.218 1093.44 Q160.556 1091.33 160.556 1087.72 Q160.556 1084.11 158.218 1082 Q155.88 1079.9 151.876 1079.9 Q150.001 1079.9 148.126 1080.31 Q146.274 1080.73 144.329 1081.61 L144.329 1064.25 Z" fill="#ffffff" fill-rule="nonzero" fill-opacity="1" /><path clip-path="url(#clip820)" d="M184.445 1067.33 Q180.834 1067.33 179.005 1070.89 Q177.2 1074.43 177.2 1081.56 Q177.2 1088.67 179.005 1092.23 Q180.834 1095.78 184.445 1095.78 Q188.079 1095.78 189.885 1092.23 Q191.713 1088.67 191.713 1081.56 Q191.713 1074.43 189.885 1070.89 Q188.079 1067.33 184.445 1067.33 M184.445 1063.62 Q190.255 1063.62 193.311 1068.23 Q196.389 1072.81 196.389 1081.56 Q196.389 1090.29 193.311 1094.9 Q190.255 1099.48 184.445 1099.48 Q178.635 1099.48 175.556 1094.9 Q172.501 1090.29 172.501 1081.56 Q172.501 1072.81 175.556 1068.23 Q178.635 1063.62 184.445 1063.62 Z" fill="#ffffff" fill-rule="nonzero" fill-opacity="1" /><path clip-path="url(#clip820)" d="M114.931 770.545 L122.57 770.545 L122.57 744.18 L114.26 745.846 L114.26 741.587 L122.524 739.92 L127.2 739.92 L127.2 770.545 L134.839 770.545 L134.839 774.48 L114.931 774.48 L114.931 770.545 Z" fill="#ffffff" fill-rule="nonzero" fill-opacity="1" /><path clip-path="url(#clip820)" d="M154.283 742.999 Q150.672 742.999 148.843 746.564 Q147.038 750.106 147.038 757.235 Q147.038 764.342 148.843 767.906 Q150.672 771.448 154.283 771.448 Q157.917 771.448 159.723 767.906 Q161.552 764.342 161.552 757.235 Q161.552 750.106 159.723 746.564 Q157.917 742.999 154.283 742.999 M154.283 739.295 Q160.093 739.295 163.149 743.902 Q166.227 748.485 166.227 757.235 Q166.227 765.962 163.149 770.568 Q160.093 775.152 154.283 775.152 Q148.473 775.152 145.394 770.568 Q142.339 765.962 142.339 757.235 Q142.339 748.485 145.394 743.902 Q148.473 739.295 154.283 739.295 Z" fill="#ffffff" fill-rule="nonzero" fill-opacity="1" /><path clip-path="url(#clip820)" d="M184.445 742.999 Q180.834 742.999 179.005 746.564 Q177.2 750.106 177.2 757.235 Q177.2 764.342 179.005 767.906 Q180.834 771.448 184.445 771.448 Q188.079 771.448 189.885 767.906 Q191.713 764.342 191.713 757.235 Q191.713 750.106 189.885 746.564 Q188.079 742.999 184.445 742.999 M184.445 739.295 Q190.255 739.295 193.311 743.902 Q196.389 748.485 196.389 757.235 Q196.389 765.962 193.311 770.568 Q190.255 775.152 184.445 775.152 Q178.635 775.152 175.556 770.568 Q172.501 765.962 172.501 757.235 Q172.501 748.485 175.556 743.902 Q178.635 739.295 184.445 739.295 Z" fill="#ffffff" fill-rule="nonzero" fill-opacity="1" /><path clip-path="url(#clip820)" d="M114.931 446.218 L122.57 446.218 L122.57 419.852 L114.26 421.519 L114.26 417.26 L122.524 415.593 L127.2 415.593 L127.2 446.218 L134.839 446.218 L134.839 450.153 L114.931 450.153 L114.931 446.218 Z" fill="#ffffff" fill-rule="nonzero" fill-opacity="1" /><path clip-path="url(#clip820)" d="M144.329 415.593 L162.686 415.593 L162.686 419.528 L148.612 419.528 L148.612 428 Q149.63 427.653 150.649 427.491 Q151.667 427.306 152.686 427.306 Q158.473 427.306 161.852 430.477 Q165.232 433.648 165.232 439.065 Q165.232 444.644 161.76 447.746 Q158.288 450.824 151.968 450.824 Q149.792 450.824 147.524 450.454 Q145.279 450.084 142.871 449.343 L142.871 444.644 Q144.954 445.778 147.177 446.334 Q149.399 446.889 151.876 446.889 Q155.88 446.889 158.218 444.783 Q160.556 442.676 160.556 439.065 Q160.556 435.454 158.218 433.348 Q155.88 431.241 151.876 431.241 Q150.001 431.241 148.126 431.658 Q146.274 432.074 144.329 432.954 L144.329 415.593 Z" fill="#ffffff" fill-rule="nonzero" fill-opacity="1" /><path clip-path="url(#clip820)" d="M184.445 418.672 Q180.834 418.672 179.005 422.236 Q177.2 425.778 177.2 432.908 Q177.2 440.014 179.005 443.579 Q180.834 447.121 184.445 447.121 Q188.079 447.121 189.885 443.579 Q191.713 440.014 191.713 432.908 Q191.713 425.778 189.885 422.236 Q188.079 418.672 184.445 418.672 M184.445 414.968 Q190.255 414.968 193.311 419.574 Q196.389 424.158 196.389 432.908 Q196.389 441.635 193.311 446.241 Q190.255 450.824 184.445 450.824 Q178.635 450.824 175.556 446.241 Q172.501 441.635 172.501 432.908 Q172.501 424.158 175.556 419.574 Q178.635 414.968 184.445 414.968 Z" fill="#ffffff" fill-rule="nonzero" fill-opacity="1" /><path clip-path="url(#clip820)" d="M54.3822 966.236 Q58.5367 967.073 60.9199 968.2 Q64.5592 970.036 64.5592 973.096 Q64.5592 975.221 63.3676 976.831 Q62.1438 978.41 60.1148 978.957 Q60.9199 979.569 61.4674 980.116 Q62.0149 980.632 62.8523 981.63 Q63.6574 982.629 64.1083 983.981 Q64.5592 985.302 64.5592 986.815 Q64.5592 987.975 64.3338 989.037 Q64.1405 990.1 63.593 991.227 Q63.0133 992.322 62.1438 993.128 Q61.2742 993.901 59.8571 994.416 Q58.4401 994.931 56.6366 994.931 Q54.3822 994.931 51.3226 994.062 Q48.263 993.16 42.788 991.099 Q39.8895 989.971 38.2792 989.971 Q37.5385 989.971 37.0554 990.132 Q36.5723 990.294 36.4113 990.616 Q36.218 990.905 36.1858 991.099 Q36.1214 991.292 36.1214 991.614 Q36.1214 993.611 38.1504 995.35 Q40.1794 997.089 44.3017 998.281 Q45.1069 998.538 45.3001 998.699 Q45.4933 998.86 45.4933 999.343 Q45.4611 1000.15 44.817 1000.15 Q44.5594 1000.15 43.561 999.859 Q42.5304 999.569 41.0167 998.892 Q39.4708 998.184 38.086 997.218 Q36.6689 996.252 35.6705 994.738 Q34.6722 993.192 34.6722 991.421 Q34.6722 989.005 36.2503 987.524 Q37.7961 986.01 40.0828 986.01 Q41.4998 986.01 44.2373 987.137 Q53.738 990.712 57.6994 990.712 Q63.0777 990.712 63.0777 986.622 Q63.0777 985.269 62.5302 984.013 Q61.9827 982.725 61.2098 981.888 Q60.4369 981.05 59.5995 980.406 Q58.7621 979.73 58.2147 979.44 Q57.6672 979.118 57.5383 979.086 L37.6995 974.158 Q36.9266 973.965 36.4113 973.611 Q35.8638 973.224 35.6705 972.774 Q35.4773 972.323 35.4451 972.065 Q35.3807 971.807 35.3807 971.582 Q35.3807 970.777 35.8638 970.229 Q36.3469 969.65 37.1842 969.65 Q37.3453 969.65 38.1182 969.843 Q38.8589 970.004 39.9539 970.261 Q41.0167 970.519 41.5964 970.648 Q45.6544 971.679 46.073 971.775 L53.1905 973.611 Q53.6092 973.707 54.9619 974.03 Q56.3145 974.319 57.023 974.48 Q57.6994 974.641 58.6333 974.802 Q59.5351 974.931 60.0504 974.931 Q61.6607 974.931 62.3692 974.448 Q63.0777 973.965 63.0777 972.902 Q63.0777 971.904 62.4014 971.131 Q61.6929 970.326 60.3402 969.714 Q58.9554 969.102 57.8282 968.748 Q56.701 968.394 54.9297 967.943 Q54.1567 967.782 53.9635 967.653 Q53.738 967.492 53.738 967.041 Q53.738 966.236 54.3822 966.236 Z" fill="#ffffff" fill-rule="nonzero" fill-opacity="1" /><path clip-path="url(#clip820)" d="M28.1705 935.932 L28.1705 930.076 L63.8185 930.076 L63.8185 935.932 L28.1705 935.932 M14.2933 935.932 L14.2933 930.076 L21.7093 930.076 L21.7093 935.932 L14.2933 935.932 Z" fill="#ffffff" fill-rule="nonzero" fill-opacity="1" /><path clip-path="url(#clip820)" d="M42.3024 888.189 L63.8185 888.189 L63.8185 894.046 L42.4934 894.046 Q37.4326 894.046 34.9182 896.019 Q32.4037 897.992 32.4037 901.939 Q32.4037 906.682 35.4274 909.419 Q38.4511 912.156 43.671 912.156 L63.8185 912.156 L63.8185 918.044 L28.1705 918.044 L28.1705 912.156 L33.7087 912.156 Q30.494 910.055 28.9026 907.223 Q27.3111 904.358 27.3111 900.634 Q27.3111 894.491 31.1306 891.34 Q34.9182 888.189 42.3024 888.189 Z" fill="#ffffff" fill-rule="nonzero" fill-opacity="1" /><path clip-path="url(#clip820)" d="M63.8185 843.279 L16.2985 861.421 L16.2985 854.706 L56.3069 839.651 L16.2985 824.564 L16.2985 817.88 L63.8185 835.99 L63.8185 843.279 Z" fill="#ffffff" fill-rule="nonzero" fill-opacity="1" /><path clip-path="url(#clip820)" d="M16.2985 780.068 L16.2985 774.657 L69.8659 791.208 L69.8659 796.619 L16.2985 780.068 Z" fill="#ffffff" fill-rule="nonzero" fill-opacity="1" /><path clip-path="url(#clip820)" d="M30.8561 723.502 Q31.307 723.502 32.3698 723.792 L57.5548 730.104 Q63.1586 731.489 67.0877 735.998 Q71.0168 740.474 71.0168 745.563 Q71.0168 748.623 69.3743 750.587 Q67.764 752.552 65.2842 752.552 Q63.0942 752.552 62.0314 751.392 Q61.0008 750.233 61.0008 748.848 Q61.0008 748.397 61.1296 747.914 Q61.2584 747.431 61.8059 746.916 Q62.3534 746.4 63.2874 746.4 Q64.8011 746.4 65.9927 747.721 Q66.5402 748.365 66.669 748.977 Q66.7978 749.557 66.7978 750.555 Q67.6996 750.168 68.3115 749.46 Q68.9234 748.751 69.1489 747.946 Q69.4065 747.141 69.4709 746.626 Q69.5675 746.078 69.5675 745.563 Q69.5675 741.441 65.413 738.284 Q64.157 737.351 62.9009 736.674 Q61.6771 735.966 60.1634 735.45 Q58.682 734.935 57.8768 734.71 Q57.0717 734.452 55.2359 734.001 Q58.2311 736.996 58.2311 740.668 Q58.2311 742.214 57.8124 743.598 Q57.3937 744.951 56.5242 746.143 Q55.6224 747.334 54.0443 748.043 Q52.4662 748.719 50.3728 748.719 Q48.1506 748.719 45.1233 747.85 Q42.0959 746.98 36.5243 744.887 Q33.4004 743.759 31.8867 743.759 Q31.146 743.759 30.6951 743.921 Q30.212 744.082 30.051 744.404 Q29.8577 744.726 29.8255 744.919 Q29.7933 745.08 29.7933 745.402 Q29.7933 747.302 31.7257 749.073 Q33.658 750.845 37.9736 752.069 Q38.7787 752.326 38.972 752.487 Q39.1652 752.648 39.1652 753.131 Q39.133 753.937 38.4889 753.937 Q38.2312 753.937 37.2329 753.647 Q36.2023 753.357 34.6886 752.681 Q33.1427 751.972 31.7579 751.006 Q30.3408 750.04 29.3424 748.526 Q28.344 746.98 28.344 745.209 Q28.344 742.793 29.9221 741.312 Q31.468 739.798 33.7546 739.798 Q34.6886 739.798 35.5259 740.056 Q36.3311 740.281 38.4889 741.119 Q47.1845 744.5 51.4356 744.5 Q52.4662 744.5 53.3358 744.339 Q54.1731 744.146 55.0105 743.727 Q55.8156 743.309 56.2987 742.471 Q56.7496 741.602 56.7496 740.41 Q56.7496 738.896 56.0411 737.479 Q55.3003 736.03 54.302 735.128 Q53.3036 734.194 52.4662 733.647 Q51.5967 733.067 51.1458 732.938 L39.294 729.975 L34.0123 728.655 Q31.146 728.043 30.4374 727.753 Q29.7611 727.367 29.4068 726.69 Q29.0526 726.014 29.0526 725.434 Q29.0526 724.629 29.5357 724.082 Q30.0187 723.502 30.8561 723.502 Z" fill="#ffffff" fill-rule="nonzero" fill-opacity="1" /><path clip-path="url(#clip820)" d="M28.1705 695.079 L28.1705 689.223 L63.8185 689.223 L63.8185 695.079 L28.1705 695.079 M14.2933 695.079 L14.2933 689.223 L21.7093 689.223 L21.7093 695.079 L14.2933 695.079 Z" fill="#ffffff" fill-rule="nonzero" fill-opacity="1" /><path clip-path="url(#clip820)" d="M42.3024 647.336 L63.8185 647.336 L63.8185 653.193 L42.4934 653.193 Q37.4326 653.193 34.9182 655.166 Q32.4037 657.139 32.4037 661.086 Q32.4037 665.829 35.4274 668.566 Q38.4511 671.303 43.671 671.303 L63.8185 671.303 L63.8185 677.191 L28.1705 677.191 L28.1705 671.303 L33.7087 671.303 Q30.494 669.202 28.9026 666.37 Q27.3111 663.505 27.3111 659.781 Q27.3111 653.638 31.1306 650.487 Q34.9182 647.336 42.3024 647.336 Z" fill="#ffffff" fill-rule="nonzero" fill-opacity="1" /><path clip-path="url(#clip820)" d="M19.545 604.782 Q19.545 607.328 21.3274 609.078 Q23.0779 610.829 25.6242 610.829 Q28.1387 610.829 29.8893 609.078 Q31.608 607.328 31.608 604.782 Q31.608 602.235 29.8893 600.485 Q28.1387 598.734 25.6242 598.734 Q23.1098 598.734 21.3274 600.516 Q19.545 602.267 19.545 604.782 M15.4391 604.782 Q15.4391 602.744 16.2348 600.867 Q16.9987 598.989 18.4628 597.62 Q19.8951 596.156 21.7093 595.424 Q23.5235 594.692 25.6242 594.692 Q29.8256 594.692 32.7538 597.652 Q35.6502 600.58 35.6502 604.845 Q35.6502 609.142 32.7857 612.007 Q29.9211 614.871 25.6242 614.871 Q21.3592 614.871 18.3992 611.943 Q15.4391 609.015 15.4391 604.782 Z" fill="#ffffff" fill-rule="nonzero" fill-opacity="1" /><path clip-path="url(#clip820)" d="M19.9588 546.503 L26.7382 546.503 Q23.7145 549.75 22.2186 553.442 Q20.7226 557.102 20.7226 561.24 Q20.7226 569.388 25.7197 573.717 Q30.685 578.046 40.1062 578.046 Q49.4956 578.046 54.4927 573.717 Q59.458 569.388 59.458 561.24 Q59.458 557.102 57.962 553.442 Q56.4661 549.75 53.4424 546.503 L60.1582 546.503 Q62.4498 549.877 63.5957 553.665 Q64.7415 557.421 64.7415 561.622 Q64.7415 572.412 58.153 578.618 Q51.5327 584.825 40.1062 584.825 Q28.6479 584.825 22.0594 578.618 Q15.4391 572.412 15.4391 561.622 Q15.4391 557.357 16.5849 553.601 Q17.6989 549.814 19.9588 546.503 Z" fill="#ffffff" fill-rule="nonzero" fill-opacity="1" /><path clip-path="url(#clip820)" d="M862.144 14.0809 L862.144 22.0612 Q857.485 19.8332 853.353 18.7395 Q849.221 17.6457 845.373 17.6457 Q838.689 17.6457 835.043 20.2383 Q831.438 22.8309 831.438 27.611 Q831.438 31.6214 833.828 33.6873 Q836.259 35.7128 842.983 36.9686 L847.925 37.9813 Q857.08 39.7232 861.415 44.1387 Q865.79 48.5136 865.79 55.8863 Q865.79 64.6767 859.875 69.2137 Q854.001 73.7508 842.618 73.7508 Q838.324 73.7508 833.463 72.7785 Q828.643 71.8063 823.458 69.9024 L823.458 61.4765 Q828.44 64.2716 833.22 65.6895 Q838 67.1073 842.618 67.1073 Q849.627 67.1073 853.434 64.3527 Q857.242 61.598 857.242 56.4939 Q857.242 52.0379 854.488 49.5264 Q851.773 47.0148 845.535 45.759 L840.552 44.7868 Q831.397 42.9639 827.306 39.075 Q823.215 35.1862 823.215 28.2591 Q823.215 20.2383 828.845 15.6203 Q834.517 11.0023 844.441 11.0023 Q848.695 11.0023 853.11 11.7719 Q857.526 12.5416 862.144 14.0809 Z" fill="#ffffff" fill-rule="nonzero" fill-opacity="1" /><path clip-path="url(#clip820)" d="M878.226 27.2059 L885.68 27.2059 L885.68 72.576 L878.226 72.576 L878.226 27.2059 M878.226 9.54393 L885.68 9.54393 L885.68 18.9825 L878.226 18.9825 L878.226 9.54393 Z" fill="#ffffff" fill-rule="nonzero" fill-opacity="1" /><path clip-path="url(#clip820)" d="M936.599 35.9153 Q939.395 30.8922 943.283 28.5022 Q947.172 26.1121 952.438 26.1121 Q959.528 26.1121 963.376 31.0947 Q967.224 36.0368 967.224 45.1919 L967.224 72.576 L959.73 72.576 L959.73 45.4349 Q959.73 38.913 957.421 35.7533 Q955.112 32.5936 950.372 32.5936 Q944.58 32.5936 941.217 36.4419 Q937.855 40.2903 937.855 46.9338 L937.855 72.576 L930.361 72.576 L930.361 45.4349 Q930.361 38.8725 928.052 35.7533 Q925.743 32.5936 920.922 32.5936 Q915.211 32.5936 911.848 36.4824 Q908.486 40.3308 908.486 46.9338 L908.486 72.576 L900.992 72.576 L900.992 27.2059 L908.486 27.2059 L908.486 34.2544 Q911.038 30.082 914.603 28.0971 Q918.168 26.1121 923.069 26.1121 Q928.012 26.1121 931.455 28.6237 Q934.939 31.1352 936.599 35.9153 Z" fill="#ffffff" fill-rule="nonzero" fill-opacity="1" /><path clip-path="url(#clip820)" d="M989.302 65.7705 L989.302 89.8329 L981.808 89.8329 L981.808 27.2059 L989.302 27.2059 L989.302 34.0924 Q991.651 30.0415 995.216 28.0971 Q998.821 26.1121 1003.8 26.1121 Q1012.07 26.1121 1017.21 32.6746 Q1022.4 39.2371 1022.4 49.9314 Q1022.4 60.6258 1017.21 67.1883 Q1012.07 73.7508 1003.8 73.7508 Q998.821 73.7508 995.216 71.8063 Q991.651 69.8214 989.302 65.7705 M1014.66 49.9314 Q1014.66 41.7081 1011.26 37.0496 Q1007.9 32.3505 1001.98 32.3505 Q996.067 32.3505 992.664 37.0496 Q989.302 41.7081 989.302 49.9314 Q989.302 58.1548 992.664 62.8538 Q996.067 67.5124 1001.98 67.5124 Q1007.9 67.5124 1011.26 62.8538 Q1014.66 58.1548 1014.66 49.9314 Z" fill="#ffffff" fill-rule="nonzero" fill-opacity="1" /><path clip-path="url(#clip820)" d="M1034.75 9.54393 L1042.21 9.54393 L1042.21 72.576 L1034.75 72.576 L1034.75 9.54393 Z" fill="#ffffff" fill-rule="nonzero" fill-opacity="1" /><path clip-path="url(#clip820)" d="M1096.61 48.0275 L1096.61 51.6733 L1062.34 51.6733 Q1062.83 59.3701 1066.96 63.421 Q1071.13 67.4314 1078.54 67.4314 Q1082.84 67.4314 1086.85 66.3781 Q1090.9 65.3249 1094.87 63.2184 L1094.87 70.267 Q1090.86 71.9684 1086.64 72.8596 Q1082.43 73.7508 1078.1 73.7508 Q1067.24 73.7508 1060.88 67.4314 Q1054.56 61.1119 1054.56 50.3365 Q1054.56 39.1965 1060.56 32.6746 Q1066.59 26.1121 1076.8 26.1121 Q1085.96 26.1121 1091.26 32.0264 Q1096.61 37.9003 1096.61 48.0275 M1089.16 45.84 Q1089.08 39.7232 1085.71 36.0774 Q1082.39 32.4315 1076.88 32.4315 Q1070.64 32.4315 1066.88 35.9558 Q1063.15 39.4801 1062.58 45.8805 L1089.16 45.84 Z" fill="#ffffff" fill-rule="nonzero" fill-opacity="1" /><path clip-path="url(#clip820)" d="M1172.93 45.1919 L1172.93 72.576 L1165.48 72.576 L1165.48 45.4349 Q1165.48 38.994 1162.96 35.7938 Q1160.45 32.5936 1155.43 32.5936 Q1149.39 32.5936 1145.91 36.4419 Q1142.43 40.2903 1142.43 46.9338 L1142.43 72.576 L1134.93 72.576 L1134.93 9.54393 L1142.43 9.54393 L1142.43 34.2544 Q1145.1 30.163 1148.7 28.1376 Q1152.35 26.1121 1157.09 26.1121 Q1164.91 26.1121 1168.92 30.9732 Q1172.93 35.7938 1172.93 45.1919 Z" fill="#ffffff" fill-rule="nonzero" fill-opacity="1" /><path clip-path="url(#clip820)" d="M1226.6 48.0275 L1226.6 51.6733 L1192.33 51.6733 Q1192.82 59.3701 1196.95 63.421 Q1201.12 67.4314 1208.54 67.4314 Q1212.83 67.4314 1216.84 66.3781 Q1220.89 65.3249 1224.86 63.2184 L1224.86 70.267 Q1220.85 71.9684 1216.64 72.8596 Q1212.43 73.7508 1208.09 73.7508 Q1197.23 73.7508 1190.87 67.4314 Q1184.56 61.1119 1184.56 50.3365 Q1184.56 39.1965 1190.55 32.6746 Q1196.59 26.1121 1206.79 26.1121 Q1215.95 26.1121 1221.26 32.0264 Q1226.6 37.9003 1226.6 48.0275 M1219.15 45.84 Q1219.07 39.7232 1215.71 36.0774 Q1212.38 32.4315 1206.88 32.4315 Q1200.64 32.4315 1196.87 35.9558 Q1193.14 39.4801 1192.58 45.8805 L1219.15 45.84 Z" fill="#ffffff" fill-rule="nonzero" fill-opacity="1" /><path clip-path="url(#clip820)" d="M1259.46 49.7694 Q1250.42 49.7694 1246.94 51.8354 Q1243.46 53.9013 1243.46 58.8839 Q1243.46 62.8538 1246.05 65.2034 Q1248.68 67.5124 1253.18 67.5124 Q1259.38 67.5124 1263.1 63.1374 Q1266.87 58.7219 1266.87 51.4303 L1266.87 49.7694 L1259.46 49.7694 M1274.32 46.6907 L1274.32 72.576 L1266.87 72.576 L1266.87 65.6895 Q1264.32 69.8214 1260.51 71.8063 Q1256.7 73.7508 1251.19 73.7508 Q1244.23 73.7508 1240.09 69.8619 Q1236 65.9325 1236 59.3701 Q1236 51.7138 1241.11 47.825 Q1246.25 43.9361 1256.42 43.9361 L1266.87 43.9361 L1266.87 43.2069 Q1266.87 38.0623 1263.47 35.2672 Q1260.1 32.4315 1253.99 32.4315 Q1250.1 32.4315 1246.41 33.3632 Q1242.73 34.295 1239.32 36.1584 L1239.32 29.2718 Q1243.41 27.692 1247.26 26.9223 Q1251.11 26.1121 1254.76 26.1121 Q1264.6 26.1121 1269.46 31.2163 Q1274.32 36.3204 1274.32 46.6907 Z" fill="#ffffff" fill-rule="nonzero" fill-opacity="1" /><path clip-path="url(#clip820)" d="M1297.05 14.324 L1297.05 27.2059 L1312.4 27.2059 L1312.4 32.9987 L1297.05 32.9987 L1297.05 57.6282 Q1297.05 63.1779 1298.55 64.7578 Q1300.09 66.3376 1304.75 66.3376 L1312.4 66.3376 L1312.4 72.576 L1304.75 72.576 Q1296.12 72.576 1292.84 69.3758 Q1289.55 66.1351 1289.55 57.6282 L1289.55 32.9987 L1284.09 32.9987 L1284.09 27.2059 L1289.55 27.2059 L1289.55 14.324 L1297.05 14.324 Z" fill="#ffffff" fill-rule="nonzero" fill-opacity="1" /><path clip-path="url(#clip820)" d="M1322.2 27.2059 L1329.66 27.2059 L1329.66 72.576 L1322.2 72.576 L1322.2 27.2059 M1322.2 9.54393 L1329.66 9.54393 L1329.66 18.9825 L1322.2 18.9825 L1322.2 9.54393 Z" fill="#ffffff" fill-rule="nonzero" fill-opacity="1" /><path clip-path="url(#clip820)" d="M1382.97 45.1919 L1382.97 72.576 L1375.51 72.576 L1375.51 45.4349 Q1375.51 38.994 1373 35.7938 Q1370.49 32.5936 1365.47 32.5936 Q1359.43 32.5936 1355.95 36.4419 Q1352.47 40.2903 1352.47 46.9338 L1352.47 72.576 L1344.97 72.576 L1344.97 27.2059 L1352.47 27.2059 L1352.47 34.2544 Q1355.14 30.163 1358.74 28.1376 Q1362.39 26.1121 1367.13 26.1121 Q1374.95 26.1121 1378.96 30.9732 Q1382.97 35.7938 1382.97 45.1919 Z" fill="#ffffff" fill-rule="nonzero" fill-opacity="1" /><path clip-path="url(#clip820)" d="M1427.69 49.3643 Q1427.69 41.2625 1424.33 36.8065 Q1421.01 32.3505 1414.97 32.3505 Q1408.98 32.3505 1405.61 36.8065 Q1402.29 41.2625 1402.29 49.3643 Q1402.29 57.4256 1405.61 61.8816 Q1408.98 66.3376 1414.97 66.3376 Q1421.01 66.3376 1424.33 61.8816 Q1427.69 57.4256 1427.69 49.3643 M1435.14 66.9452 Q1435.14 78.5308 1430 84.1616 Q1424.85 89.8329 1414.24 89.8329 Q1410.31 89.8329 1406.83 89.2252 Q1403.34 88.6581 1400.06 87.4428 L1400.06 80.1917 Q1403.34 81.9741 1406.54 82.8248 Q1409.75 83.6755 1413.07 83.6755 Q1420.4 83.6755 1424.04 79.8271 Q1427.69 76.0193 1427.69 68.282 L1427.69 64.5957 Q1425.38 68.6061 1421.78 70.5911 Q1418.17 72.576 1413.15 72.576 Q1404.8 72.576 1399.7 66.2161 Q1394.59 59.8562 1394.59 49.3643 Q1394.59 38.832 1399.7 32.472 Q1404.8 26.1121 1413.15 26.1121 Q1418.17 26.1121 1421.78 28.0971 Q1425.38 30.082 1427.69 34.0924 L1427.69 27.2059 L1435.14 27.2059 L1435.14 66.9452 Z" fill="#ffffff" fill-rule="nonzero" fill-opacity="1" /><path clip-path="url(#clip820)" d="M1505.79 28.5427 L1505.79 35.5912 Q1502.63 33.9709 1499.23 33.1607 Q1495.83 32.3505 1492.18 32.3505 Q1486.63 32.3505 1483.84 34.0519 Q1481.08 35.7533 1481.08 39.156 Q1481.08 41.7486 1483.07 43.2475 Q1485.05 44.7058 1491.05 46.0426 L1493.6 46.6097 Q1501.54 48.3111 1504.86 51.4303 Q1508.22 54.509 1508.22 60.0587 Q1508.22 66.3781 1503.2 70.0644 Q1498.22 73.7508 1489.47 73.7508 Q1485.82 73.7508 1481.85 73.0216 Q1477.92 72.3329 1473.55 70.9151 L1473.55 63.2184 Q1477.68 65.3654 1481.69 66.4591 Q1485.7 67.5124 1489.63 67.5124 Q1494.9 67.5124 1497.73 65.73 Q1500.57 63.9071 1500.57 60.6258 Q1500.57 57.5877 1498.5 55.9673 Q1496.47 54.3469 1489.55 52.8481 L1486.96 52.2405 Q1480.03 50.7821 1476.95 47.7845 Q1473.87 44.7463 1473.87 39.4801 Q1473.87 33.0797 1478.41 29.5959 Q1482.94 26.1121 1491.29 26.1121 Q1495.42 26.1121 1499.07 26.7198 Q1502.71 27.3274 1505.79 28.5427 Z" fill="#ffffff" fill-rule="nonzero" fill-opacity="1" /><path clip-path="url(#clip820)" d="M1538.97 76.7889 Q1535.81 84.8907 1532.81 87.3618 Q1529.81 89.8329 1524.79 89.8329 L1518.84 89.8329 L1518.84 83.5945 L1523.21 83.5945 Q1526.29 83.5945 1527.99 82.1361 Q1529.69 80.6778 1531.76 75.2496 L1533.1 71.8468 L1514.74 27.2059 L1522.64 27.2059 L1536.82 62.6918 L1551 27.2059 L1558.9 27.2059 L1538.97 76.7889 Z" fill="#ffffff" fill-rule="nonzero" fill-opacity="1" /><path clip-path="url(#clip820)" d="M1598.11 28.5427 L1598.11 35.5912 Q1594.95 33.9709 1591.55 33.1607 Q1588.15 32.3505 1584.5 32.3505 Q1578.95 32.3505 1576.16 34.0519 Q1573.4 35.7533 1573.4 39.156 Q1573.4 41.7486 1575.39 43.2475 Q1577.37 44.7058 1583.37 46.0426 L1585.92 46.6097 Q1593.86 48.3111 1597.18 51.4303 Q1600.54 54.509 1600.54 60.0587 Q1600.54 66.3781 1595.52 70.0644 Q1590.54 73.7508 1581.79 73.7508 Q1578.14 73.7508 1574.17 73.0216 Q1570.24 72.3329 1565.87 70.9151 L1565.87 63.2184 Q1570 65.3654 1574.01 66.4591 Q1578.02 67.5124 1581.95 67.5124 Q1587.22 67.5124 1590.05 65.73 Q1592.89 63.9071 1592.89 60.6258 Q1592.89 57.5877 1590.82 55.9673 Q1588.79 54.3469 1581.87 52.8481 L1579.28 52.2405 Q1572.35 50.7821 1569.27 47.7845 Q1566.19 44.7463 1566.19 39.4801 Q1566.19 33.0797 1570.73 29.5959 Q1575.26 26.1121 1583.61 26.1121 Q1587.74 26.1121 1591.39 26.7198 Q1595.03 27.3274 1598.11 28.5427 Z" fill="#ffffff" fill-rule="nonzero" fill-opacity="1" /><path clip-path="url(#clip820)" d="M1619.78 14.324 L1619.78 27.2059 L1635.14 27.2059 L1635.14 32.9987 L1619.78 32.9987 L1619.78 57.6282 Q1619.78 63.1779 1621.28 64.7578 Q1622.82 66.3376 1627.48 66.3376 L1635.14 66.3376 L1635.14 72.576 L1627.48 72.576 Q1618.85 72.576 1615.57 69.3758 Q1612.29 66.1351 1612.29 57.6282 L1612.29 32.9987 L1606.82 32.9987 L1606.82 27.2059 L1612.29 27.2059 L1612.29 14.324 L1619.78 14.324 Z" fill="#ffffff" fill-rule="nonzero" fill-opacity="1" /><path clip-path="url(#clip820)" d="M1683.75 48.0275 L1683.75 51.6733 L1649.48 51.6733 Q1649.96 59.3701 1654.1 63.421 Q1658.27 67.4314 1665.68 67.4314 Q1669.98 67.4314 1673.99 66.3781 Q1678.04 65.3249 1682.01 63.2184 L1682.01 70.267 Q1678 71.9684 1673.78 72.8596 Q1669.57 73.7508 1665.24 73.7508 Q1654.38 73.7508 1648.02 67.4314 Q1641.7 61.1119 1641.7 50.3365 Q1641.7 39.1965 1647.7 32.6746 Q1653.73 26.1121 1663.94 26.1121 Q1673.09 26.1121 1678.4 32.0264 Q1683.75 37.9003 1683.75 48.0275 M1676.29 45.84 Q1676.21 39.7232 1672.85 36.0774 Q1669.53 32.4315 1664.02 32.4315 Q1657.78 32.4315 1654.01 35.9558 Q1650.29 39.4801 1649.72 45.8805 L1676.29 45.84 Z" fill="#ffffff" fill-rule="nonzero" fill-opacity="1" /><path clip-path="url(#clip820)" d="M1731.31 35.9153 Q1734.1 30.8922 1737.99 28.5022 Q1741.88 26.1121 1747.14 26.1121 Q1754.23 26.1121 1758.08 31.0947 Q1761.93 36.0368 1761.93 45.1919 L1761.93 72.576 L1754.44 72.576 L1754.44 45.4349 Q1754.44 38.913 1752.13 35.7533 Q1749.82 32.5936 1745.08 32.5936 Q1739.29 32.5936 1735.92 36.4419 Q1732.56 40.2903 1732.56 46.9338 L1732.56 72.576 L1725.07 72.576 L1725.07 45.4349 Q1725.07 38.8725 1722.76 35.7533 Q1720.45 32.5936 1715.63 32.5936 Q1709.92 32.5936 1706.55 36.4824 Q1703.19 40.3308 1703.19 46.9338 L1703.19 72.576 L1695.7 72.576 L1695.7 27.2059 L1703.19 27.2059 L1703.19 34.2544 Q1705.74 30.082 1709.31 28.0971 Q1712.87 26.1121 1717.78 26.1121 Q1722.72 26.1121 1726.16 28.6237 Q1729.64 31.1352 1731.31 35.9153 Z" fill="#ffffff" fill-rule="nonzero" fill-opacity="1" /><polyline clip-path="url(#clip822)" style="stroke:#66c2a4; stroke-linecap:round; stroke-linejoin:round; stroke-width:8; stroke-opacity:1; fill:none" points="292.4,1347.48 294.9,1347.48 297.401,1347.48 299.901,1347.48 302.401,1347.48 304.902,1347.48 307.402,1347.48 309.903,1347.48 312.403,1347.48 314.904,1347.48 317.404,1347.48 319.904,1347.48 322.405,1347.48 324.905,1347.48 327.406,1347.48 329.906,1347.48 332.407,1347.48 334.907,1347.48 337.408,1347.48 339.908,1347.48 342.408,1347.48 344.909,1347.48 347.409,1347.48 349.91,1347.48 352.41,1347.48 354.911,1347.48 357.411,1347.48 359.911,1347.48 362.412,1347.48 364.912,1347.48 367.413,1347.48 369.913,1347.48 372.414,1347.48 374.914,1347.48 377.414,1347.48 379.915,1347.48 382.415,1347.48 384.916,1347.48 387.416,1347.48 389.917,1347.48 392.417,1347.48 394.917,1347.48 397.418,1347.48 399.918,1347.48 402.419,1347.48 404.919,1347.48 407.42,1347.48 409.92,1347.48 412.42,1347.48 414.921,1347.48 417.421,1347.48 419.922,1347.48 422.422,1347.48 424.923,1347.48 427.423,1347.48 429.923,1347.48 432.424,1347.48 434.924,1347.48 437.425,1347.48 439.925,1347.48 442.426,1347.48 444.926,1347.48 447.427,1347.48 449.927,1347.48 452.427,1347.48 454.928,1347.48 457.428,1347.48 459.929,1347.48 462.429,1347.48 464.93,1347.48 467.43,1347.48 469.93,1347.48 472.431,1347.48 474.931,1347.48 477.432,1347.48 479.932,1347.48 482.433,1347.48 484.933,1347.48 487.433,1347.48 489.934,1347.48 492.434,1347.48 494.935,1347.48 497.435,1347.48 499.936,1347.48 502.436,1347.48 504.936,1347.48 507.437,1347.48 509.937,1347.48 512.438,1347.48 514.938,1347.48 517.439,1347.48 519.939,1347.48 522.439,1347.48 524.94,1347.48 527.44,1347.48 529.941,1347.48 532.441,1347.48 534.942,1347.48 537.442,1347.48 539.943,1347.48 542.443,1347.48 544.943,1347.48 547.444,1347.48 549.944,1347.48 552.445,1347.48 554.945,1347.48 557.446,1347.48 559.946,1347.48 562.446,1347.48 564.947,1347.48 567.447,1347.48 569.948,1347.48 572.448,1347.48 574.949,1347.48 577.449,1347.48 579.949,1347.48 582.45,1347.48 584.95,1347.48 587.451,1347.48 589.951,1347.48 592.452,1347.48 594.952,1347.48 597.452,1347.48 599.953,1347.48 602.453,1347.48 604.954,1347.48 607.454,1347.48 609.955,1347.48 612.455,1347.48 614.955,1347.48 617.456,1347.48 619.956,1347.48 622.457,1347.48 624.957,1347.48 627.458,1347.48 629.958,1347.48 632.459,1347.48 634.959,1347.48 637.459,1347.48 639.96,1347.48 642.46,1347.48 644.961,1347.48 647.461,1347.48 649.962,1347.48 652.462,1347.48 654.962,1347.48 657.463,1347.48 659.963,1347.48 662.464,1347.48 664.964,1347.48 667.465,1347.48 669.965,1347.48 672.465,1347.48 674.966,1347.48 677.466,1347.48 679.967,1347.48 682.467,1347.48 684.968,1347.48 687.468,1347.48 689.968,1347.48 692.469,1347.48 694.969,1347.48 697.47,1347.48 699.97,1347.48 702.471,1347.48 704.971,1347.48 707.471,1347.48 709.972,1347.48 712.472,1347.48 714.973,1347.48 717.473,1347.48 719.974,1347.48 722.474,1347.48 724.975,1347.48 727.475,1347.48 729.975,1347.48 732.476,1347.48 734.976,1347.48 737.477,1347.48 739.977,1347.48 742.478,1347.48 744.978,1347.48 747.478,1347.48 749.979,1347.48 752.479,1347.48 754.98,1347.48 757.48,1347.48 759.981,1347.48 762.481,1347.48 764.981,1347.48 767.482,1347.48 769.982,1347.48 772.483,1347.48 774.983,1347.48 777.484,1347.48 779.984,1347.48 782.484,1347.48 784.985,1347.48 787.485,1347.48 789.986,1347.48 792.486,1379.91 794.987,1379.91 797.487,1379.91 799.987,1379.91 802.488,1379.91 804.988,1379.91 807.489,1379.91 809.989,1379.91 812.49,1379.91 814.99,1379.91 817.49,1379.91 819.991,1379.91 822.491,1379.91 824.992,1379.91 827.492,1379.91 829.993,1379.91 832.493,1379.91 834.994,1379.91 837.494,1379.91 839.994,1379.91 842.495,1379.91 844.995,1379.91 847.496,1379.91 849.996,1379.91 852.497,1379.91 854.997,1379.91 857.497,1379.91 859.998,1379.91 862.498,1379.91 864.999,1379.91 867.499,1379.91 870,1379.91 872.5,1379.91 875,1379.91 877.501,1379.91 880.001,1379.91 882.502,1379.91 885.002,1379.91 887.503,1379.91 890.003,1379.91 892.503,1379.91 895.004,1379.91 897.504,1379.91 900.005,1379.91 902.505,1379.91 905.006,1379.91 907.506,1379.91 910.006,1379.91 912.507,1379.91 915.007,1379.91 917.508,1379.91 920.008,1379.91 922.509,1379.91 925.009,1379.91 927.51,1379.91 930.01,1379.91 932.51,1379.91 935.011,1379.91 937.511,1379.91 940.012,1379.91 942.512,1379.91 945.013,1379.91 947.513,1379.91 950.013,1379.91 952.514,1379.91 955.014,1379.91 957.515,1379.91 960.015,1379.91 962.516,1379.91 965.016,1379.91 967.516,1379.91 970.017,1379.91 972.517,1379.91 975.018,1379.91 977.518,1379.91 980.019,1379.91 982.519,1379.91 985.019,1379.91 987.52,1379.91 990.02,1379.91 992.521,1379.91 995.021,1379.91 997.522,1379.91 1000.02,1379.91 1002.52,1379.91 1005.02,1379.91 1007.52,1379.91 1010.02,1379.91 1012.52,1379.91 1015.02,1379.91 1017.53,1379.91 1020.03,1379.91 1022.53,1379.91 1025.03,1379.91 1027.53,1379.91 1030.03,1379.91 1032.53,1379.91 1035.03,1379.91 1037.53,1379.91 1040.03,1379.91 1042.53,1379.91 1045.03,1379.91 1047.53,1379.91 1050.03,1379.91 1052.53,1379.91 1055.03,1379.91 1057.53,1379.91 1060.03,1379.91 1062.53,1379.91 1065.03,1379.91 1067.53,1379.91 1070.03,1379.91 1072.53,1379.91 1075.04,1379.91 1077.54,1379.91 1080.04,1379.91 1082.54,1379.91 1085.04,1379.91 1087.54,1379.91 1090.04,1379.91 1092.54,1379.91 1095.04,1379.91 1097.54,1379.91 1100.04,1379.91 1102.54,1379.91 1105.04,1379.91 1107.54,1379.91 1110.04,1379.91 1112.54,1379.91 1115.04,1379.91 1117.54,1379.91 1120.04,1379.91 1122.54,1379.91 1125.04,1379.91 1127.54,1379.91 1130.04,1379.91 1132.54,1379.91 1135.05,1379.91 1137.55,1379.91 1140.05,1379.91 1142.55,1379.91 1145.05,1379.91 1147.55,1379.91 1150.05,1379.91 1152.55,1379.91 1155.05,1379.91 1157.55,1379.91 1160.05,1379.91 1162.55,1379.91 1165.05,1379.91 1167.55,1379.91 1170.05,1379.91 1172.55,1379.91 1175.05,1379.91 1177.55,1379.91 1180.05,1379.91 1182.55,1379.91 1185.05,1379.91 1187.55,1379.91 1190.05,1379.91 1192.56,1379.91 1195.06,1379.91 1197.56,1379.91 1200.06,1379.91 1202.56,1379.91 1205.06,1379.91 1207.56,1379.91 1210.06,1379.91 1212.56,1379.91 1215.06,1379.91 1217.56,1379.91 1220.06,1379.91 1222.56,1379.91 1225.06,1379.91 1227.56,1379.91 1230.06,1379.91 1232.56,1379.91 1235.06,1379.91 1237.56,1379.91 1240.06,1379.91 1242.56,1379.91 1245.06,1379.91 1247.56,1379.91 1250.07,1379.91 1252.57,1379.91 1255.07,1379.91 1257.57,1379.91 1260.07,1379.91 1262.57,1379.91 1265.07,1379.91 1267.57,1379.91 1270.07,1379.91 1272.57,1379.91 1275.07,1379.91 1277.57,1379.91 1280.07,1379.91 1282.57,1379.91 1285.07,1379.91 1287.57,1379.91 1290.07,1379.91 1292.57,1353.96 1295.07,1353.96 1297.57,1353.96 1300.07,1353.96 1302.57,1353.96 1305.07,1353.96 1307.58,1353.96 1310.08,1353.96 1312.58,1353.96 1315.08,1353.96 1317.58,1353.96 1320.08,1353.96 1322.58,1353.96 1325.08,1353.96 1327.58,1353.96 1330.08,1353.96 1332.58,1353.96 1335.08,1353.96 1337.58,1353.96 1340.08,1353.96 1342.58,1353.96 1345.08,1353.96 1347.58,1353.96 1350.08,1353.96 1352.58,1353.96 1355.08,1353.96 1357.58,1353.96 1360.08,1353.96 1362.58,1353.96 1365.09,1353.96 1367.59,1353.96 1370.09,1353.96 1372.59,1353.96 1375.09,1353.96 1377.59,1353.96 1380.09,1353.96 1382.59,1353.96 1385.09,1353.96 1387.59,1353.96 1390.09,1353.96 1392.59,1353.96 1395.09,1353.96 1397.59,1353.96 1400.09,1353.96 1402.59,1353.96 1405.09,1353.96 1407.59,1353.96 1410.09,1353.96 1412.59,1353.96 1415.09,1353.96 1417.59,1353.96 1420.09,1353.96 1422.6,1353.96 1425.1,1353.96 1427.6,1353.96 1430.1,1353.96 1432.6,1353.96 1435.1,1353.96 1437.6,1353.96 1440.1,1353.96 1442.6,1353.96 1445.1,1353.96 1447.6,1353.96 1450.1,1353.96 1452.6,1353.96 1455.1,1353.96 1457.6,1353.96 1460.1,1353.96 1462.6,1353.96 1465.1,1353.96 1467.6,1353.96 1470.1,1353.96 1472.6,1353.96 1475.1,1353.96 1477.6,1353.96 1480.11,1353.96 1482.61,1353.96 1485.11,1353.96 1487.61,1353.96 1490.11,1353.96 1492.61,1353.96 1495.11,1353.96 1497.61,1353.96 1500.11,1353.96 1502.61,1353.96 1505.11,1353.96 1507.61,1353.96 1510.11,1353.96 1512.61,1353.96 1515.11,1353.96 1517.61,1353.96 1520.11,1353.96 1522.61,1353.96 1525.11,1353.96 1527.61,1353.96 1530.11,1353.96 1532.61,1353.96 1535.11,1353.96 1537.61,1353.96 1540.12,1353.96 1542.62,1386.4 1545.12,1386.4 1547.62,1386.4 1550.12,1386.4 1552.62,1386.4 1555.12,1386.4 1557.62,1386.4 1560.12,1386.4 1562.62,1386.4 1565.12,1386.4 1567.62,1386.4 1570.12,1386.4 1572.62,1386.4 1575.12,1386.4 1577.62,1386.4 1580.12,1386.4 1582.62,1386.4 1585.12,1386.4 1587.62,1386.4 1590.12,1386.4 1592.62,1386.4 1595.12,1386.4 1597.63,1386.4 1600.13,1386.4 1602.63,1386.4 1605.13,1386.4 1607.63,1386.4 1610.13,1386.4 1612.63,1386.4 1615.13,1386.4 1617.63,1386.4 1620.13,1386.4 1622.63,1386.4 1625.13,1386.4 1627.63,1386.4 1630.13,1386.4 1632.63,1386.4 1635.13,1386.4 1637.63,1386.4 1640.13,1386.4 1642.63,1386.4 1645.13,1386.4 1647.63,1386.4 1650.13,1386.4 1652.63,1386.4 1655.14,1386.4 1657.64,1386.4 1660.14,1386.4 1662.64,1386.4 1665.14,1386.4 1667.64,1386.4 1670.14,1386.4 1672.64,1386.4 1675.14,1386.4 1677.64,1386.4 1680.14,1386.4 1682.64,1386.4 1685.14,1386.4 1687.64,1386.4 1690.14,1386.4 1692.64,1386.4 1695.14,1386.4 1697.64,1386.4 1700.14,1386.4 1702.64,1386.4 1705.14,1386.4 1707.64,1386.4 1710.14,1386.4 1712.65,1386.4 1715.15,1386.4 1717.65,1386.4 1720.15,1386.4 1722.65,1386.4 1725.15,1386.4 1727.65,1386.4 1730.15,1386.4 1732.65,1386.4 1735.15,1386.4 1737.65,1386.4 1740.15,1386.4 1742.65,1386.4 1745.15,1386.4 1747.65,1386.4 1750.15,1386.4 1752.65,1386.4 1755.15,1386.4 1757.65,1386.4 1760.15,1386.4 1762.65,1386.4 1765.15,1386.4 1767.65,1386.4 1770.16,1386.4 1772.66,1386.4 1775.16,1386.4 1777.66,1386.4 1780.16,1386.4 1782.66,1386.4 1785.16,1386.4 1787.66,1386.4 1790.16,1386.4 1792.66,1360.45 1795.16,1360.45 1797.66,1360.45 1800.16,1360.45 1802.66,1360.45 1805.16,1360.45 1807.66,1360.45 1810.16,1360.45 1812.66,1360.45 1815.16,1360.45 1817.66,1360.45 1820.16,1360.45 1822.66,1360.45 1825.16,1360.45 1827.67,1360.45 1830.17,1360.45 1832.67,1360.45 1835.17,1360.45 1837.67,1360.45 1840.17,1360.45 1842.67,1360.45 1845.17,1360.45 1847.67,1360.45 1850.17,1360.45 1852.67,1360.45 1855.17,1360.45 1857.67,1360.45 1860.17,1360.45 1862.67,1360.45 1865.17,1360.45 1867.67,1360.45 1870.17,1360.45 1872.67,1360.45 1875.17,1360.45 1877.67,1360.45 1880.17,1360.45 1882.67,1360.45 1885.18,1360.45 1887.68,1360.45 1890.18,1360.45 1892.68,1360.45 1895.18,1360.45 1897.68,1360.45 1900.18,1360.45 1902.68,1360.45 1905.18,1360.45 1907.68,1360.45 1910.18,1360.45 1912.68,1360.45 1915.18,1360.45 1917.68,1360.45 1920.18,1360.45 1922.68,1360.45 1925.18,1360.45 1927.68,1360.45 1930.18,1360.45 1932.68,1360.45 1935.18,1360.45 1937.68,1360.45 1940.18,1360.45 1942.69,1360.45 1945.19,1360.45 1947.69,1360.45 1950.19,1360.45 1952.69,1360.45 1955.19,1360.45 1957.69,1360.45 1960.19,1360.45 1962.69,1360.45 1965.19,1360.45 1967.69,1360.45 1970.19,1360.45 1972.69,1360.45 1975.19,1360.45 1977.69,1360.45 1980.19,1360.45 1982.69,1360.45 1985.19,1360.45 1987.69,1360.45 1990.19,1360.45 1992.69,1360.45 1995.19,1360.45 1997.69,1360.45 2000.19,1360.45 2002.7,1360.45 2005.2,1360.45 2007.7,1360.45 2010.2,1360.45 2012.7,1360.45 2015.2,1360.45 2017.7,1360.45 2020.2,1360.45 2022.7,1360.45 2025.2,1360.45 2027.7,1360.45 2030.2,1360.45 2032.7,1360.45 2035.2,1360.45 2037.7,1360.45 2040.2,1360.45 2042.7,1366.94 2045.2,1366.94 2047.7,1366.94 2050.2,1366.94 2052.7,1366.94 2055.2,1366.94 2057.7,1366.94 2060.21,1366.94 2062.71,1366.94 2065.21,1366.94 2067.71,1366.94 2070.21,1366.94 2072.71,1366.94 2075.21,1366.94 2077.71,1366.94 2080.21,1366.94 2082.71,1366.94 2085.21,1366.94 2087.71,1366.94 2090.21,1366.94 2092.71,1366.94 2095.21,1366.94 2097.71,1366.94 2100.21,1366.94 2102.71,1366.94 2105.21,1366.94 2107.71,1366.94 2110.21,1366.94 2112.71,1366.94 2115.21,1366.94 2117.72,1366.94 2120.22,1366.94 2122.72,1366.94 2125.22,1366.94 2127.72,1366.94 2130.22,1366.94 2132.72,1366.94 2135.22,1366.94 2137.72,1366.94 2140.22,1366.94 2142.72,1366.94 2145.22,1366.94 2147.72,1366.94 2150.22,1366.94 2152.72,1366.94 2155.22,1366.94 2157.72,1366.94 2160.22,1366.94 2162.72,1366.94 2165.22,1366.94 2167.72,1366.94 2170.22,1366.94 2172.72,1366.94 2175.23,1366.94 2177.73,1366.94 2180.23,1366.94 2182.73,1366.94 2185.23,1366.94 2187.73,1366.94 2190.23,1366.94 2192.73,1366.94 2195.23,1366.94 2197.73,1366.94 2200.23,1366.94 2202.73,1366.94 2205.23,1366.94 2207.73,1366.94 2210.23,1366.94 2212.73,1366.94 2215.23,1366.94 2217.73,1366.94 2220.23,1366.94 2222.73,1366.94 2225.23,1366.94 2227.73,1366.94 2230.23,1366.94 2232.74,1366.94 2235.24,1366.94 2237.74,1366.94 2240.24,1366.94 2242.74,1366.94 2245.24,1366.94 2247.74,1366.94 2250.24,1366.94 2252.74,1366.94 2255.24,1366.94 2257.74,1366.94 2260.24,1366.94 2262.74,1366.94 2265.24,1366.94 2267.74,1366.94 2270.24,1366.94 2272.74,1366.94 2275.24,1366.94 2277.74,1366.94 2280.24,1366.94 2282.74,1366.94 2285.24,1366.94 2287.74,1366.94 2290.25,1366.94 2292.75,1366.94 "/>
<polyline clip-path="url(#clip822)" style="stroke:#fb8d61; stroke-linecap:round; stroke-linejoin:round; stroke-width:8; stroke-opacity:1; fill:none" points="292.4,567.015 294.9,567.015 297.401,565.432 299.901,552.77 302.401,535.36 304.902,519.533 307.402,502.123 309.903,486.296 312.403,470.469 314.904,457.807 317.404,441.98 319.904,429.318 322.405,418.239 324.905,405.578 327.406,397.664 329.906,389.75 332.407,383.42 334.907,377.089 337.408,370.758 339.908,362.844 342.408,356.513 344.909,353.348 347.409,350.182 349.91,343.852 352.41,340.686 354.911,334.355 357.411,328.024 359.911,321.694 362.412,316.945 364.912,312.197 367.413,309.032 369.913,307.449 372.414,304.284 374.914,301.118 377.414,299.535 379.915,296.37 382.415,293.205 384.916,290.039 387.416,286.874 389.917,285.291 392.417,283.708 394.917,282.126 397.418,280.543 399.918,277.377 402.419,278.96 404.919,278.96 407.42,275.795 409.92,271.047 412.42,266.298 414.921,264.716 417.421,264.716 419.922,263.133 422.422,258.385 424.923,256.802 427.423,253.637 429.923,250.471 432.424,252.054 434.924,248.889 437.425,248.889 439.925,248.889 442.426,245.723 444.926,244.14 447.427,240.975 449.927,239.392 452.427,237.809 454.928,236.227 457.428,236.227 459.929,233.061 462.429,233.061 464.93,229.896 467.43,228.313 469.93,225.148 472.431,225.148 474.931,225.148 477.432,225.148 479.932,223.565 482.433,221.982 484.933,220.4 487.433,218.817 489.934,218.817 492.434,218.817 494.935,215.651 497.435,214.069 499.936,212.486 502.436,210.903 504.936,210.903 507.437,209.321 509.937,207.738 512.438,206.155 514.938,209.321 517.439,210.903 519.939,209.321 522.439,207.738 524.94,204.572 527.44,202.99 529.941,201.407 532.441,202.99 534.942,201.407 537.442,199.824 539.943,198.242 542.443,198.242 544.943,196.659 547.444,196.659 549.944,196.659 552.445,196.659 554.945,198.242 557.446,198.242 559.946,196.659 562.446,193.493 564.947,190.328 567.447,188.745 569.948,188.745 572.448,187.162 574.949,187.162 577.449,187.162 579.949,187.162 582.45,187.162 584.95,188.745 587.451,187.162 589.951,187.162 592.452,187.162 594.952,187.162 597.452,185.58 599.953,183.997 602.453,183.997 604.954,183.997 607.454,182.414 609.955,187.162 612.455,187.162 614.955,187.162 617.456,185.58 619.956,185.58 622.457,183.997 624.957,179.249 627.458,177.666 629.958,177.666 632.459,177.666 634.959,176.084 637.459,179.249 639.96,177.666 642.46,174.501 644.961,171.335 647.461,172.918 649.962,174.501 652.462,174.501 654.962,171.335 657.463,169.753 659.963,169.753 662.464,171.335 664.964,176.084 667.465,176.084 669.965,172.918 672.465,172.918 674.966,172.918 677.466,172.918 679.967,171.335 682.467,172.918 684.968,171.335 687.468,171.335 689.968,169.753 692.469,169.753 694.969,169.753 697.47,171.335 699.97,171.335 702.471,171.335 704.971,171.335 707.471,169.753 709.972,166.587 712.472,163.422 714.973,165.004 717.473,165.004 719.974,165.004 722.474,165.004 724.975,165.004 727.475,161.839 729.975,165.004 732.476,165.004 734.976,163.422 737.477,160.256 739.977,163.422 742.478,161.839 744.978,161.839 747.478,163.422 749.979,166.587 752.479,166.587 754.98,166.587 757.48,168.17 759.981,168.17 762.481,166.587 764.981,166.587 767.482,166.587 769.982,165.004 772.483,163.422 774.983,163.422 777.484,163.422 779.984,161.839 782.484,160.256 784.985,160.256 787.485,160.256 789.986,160.256 792.486,160.256 794.987,163.422 797.487,176.084 799.987,198.242 802.488,226.73 804.988,253.637 807.489,277.377 809.989,302.701 812.49,328.024 814.99,348.6 817.49,367.592 819.991,383.42 822.491,399.247 824.992,411.908 827.492,426.153 829.993,437.232 832.493,451.476 834.994,464.138 837.494,476.8 839.994,484.714 842.495,494.21 844.995,502.123 847.496,508.454 849.996,516.368 852.497,522.699 854.997,527.447 857.497,533.778 859.998,540.109 862.498,544.857 864.999,552.77 867.499,560.684 870,567.015 872.5,571.763 875,576.511 877.501,581.259 880.001,586.007 882.502,592.338 885.002,597.086 887.503,601.835 890.003,605 892.503,609.748 895.004,614.496 897.504,617.662 900.005,622.41 902.505,623.993 905.006,628.741 907.506,631.906 910.006,636.654 912.507,641.403 915.007,644.568 917.508,647.733 920.008,650.899 922.509,652.482 925.009,655.647 927.51,657.23 930.01,661.978 932.51,663.561 935.011,666.726 937.511,668.309 940.012,673.057 942.512,674.64 945.013,677.805 947.513,679.388 950.013,680.971 952.514,680.971 955.014,680.971 957.515,682.553 960.015,684.136 962.516,685.719 965.016,684.136 967.516,687.301 970.017,690.467 972.517,692.05 975.018,693.632 977.518,696.798 980.019,695.215 982.519,695.215 985.019,695.215 987.52,696.798 990.02,699.963 992.521,704.711 995.021,709.459 997.522,712.625 1000.02,714.208 1002.52,717.373 1005.02,718.956 1007.52,720.538 1010.02,722.121 1012.52,725.287 1015.02,726.869 1017.53,730.035 1020.03,733.2 1022.53,734.783 1025.03,736.366 1027.53,737.948 1030.03,741.114 1032.53,742.696 1035.03,745.862 1037.53,747.445 1040.03,749.027 1042.53,749.027 1045.03,750.61 1047.53,752.193 1050.03,753.776 1052.53,753.776 1055.03,755.358 1057.53,758.524 1060.03,761.689 1062.53,761.689 1065.03,761.689 1067.53,763.272 1070.03,764.855 1072.53,766.437 1075.04,766.437 1077.54,769.603 1080.04,771.185 1082.54,772.768 1085.04,775.934 1087.54,777.516 1090.04,779.099 1092.54,777.516 1095.04,779.099 1097.54,779.099 1100.04,780.682 1102.54,783.847 1105.04,783.847 1107.54,783.847 1110.04,787.013 1112.54,785.43 1115.04,787.013 1117.54,788.595 1120.04,790.178 1122.54,791.761 1125.04,791.761 1127.54,793.343 1130.04,793.343 1132.54,794.926 1135.05,796.509 1137.55,798.092 1140.05,798.092 1142.55,798.092 1145.05,801.257 1147.55,802.84 1150.05,804.422 1152.55,804.422 1155.05,806.005 1157.55,806.005 1160.05,806.005 1162.55,806.005 1165.05,806.005 1167.55,806.005 1170.05,809.171 1172.55,809.171 1175.05,810.753 1177.55,810.753 1180.05,812.336 1182.55,815.502 1185.05,815.502 1187.55,817.084 1190.05,817.084 1192.56,817.084 1195.06,817.084 1197.56,815.502 1200.06,817.084 1202.56,818.667 1205.06,820.25 1207.56,820.25 1210.06,821.832 1212.56,823.415 1215.06,824.998 1217.56,824.998 1220.06,824.998 1222.56,826.581 1225.06,826.581 1227.56,828.163 1230.06,828.163 1232.56,829.746 1235.06,831.329 1237.56,831.329 1240.06,829.746 1242.56,831.329 1245.06,832.911 1247.56,834.494 1250.07,836.077 1252.57,839.242 1255.07,837.66 1257.57,839.242 1260.07,839.242 1262.57,839.242 1265.07,840.825 1267.57,840.825 1270.07,840.825 1272.57,840.825 1275.07,842.408 1277.57,840.825 1280.07,842.408 1282.57,843.99 1285.07,843.99 1287.57,843.99 1290.07,845.573 1292.57,847.156 1295.07,848.739 1297.57,842.408 1300.07,824.998 1302.57,801.257 1305.07,774.351 1307.58,747.445 1310.08,723.704 1312.58,699.963 1315.08,679.388 1317.58,660.395 1320.08,644.568 1322.58,631.906 1325.08,617.662 1327.58,605 1330.08,595.504 1332.58,584.425 1335.08,574.928 1337.58,565.432 1340.08,557.519 1342.58,549.605 1345.08,541.691 1347.58,535.36 1350.08,529.03 1352.58,522.699 1355.08,517.951 1357.58,510.037 1360.08,505.289 1362.58,502.123 1365.09,495.792 1367.59,489.462 1370.09,486.296 1372.59,484.714 1375.09,479.965 1377.59,472.052 1380.09,468.886 1382.59,464.138 1385.09,459.39 1387.59,454.642 1390.09,449.894 1392.59,448.311 1395.09,443.563 1397.59,440.397 1400.09,438.815 1402.59,435.649 1405.09,432.484 1407.59,430.901 1410.09,429.318 1412.59,426.153 1415.09,422.987 1417.59,416.657 1420.09,413.491 1422.6,411.908 1425.1,408.743 1427.6,405.578 1430.1,402.412 1432.6,399.247 1435.1,396.081 1437.6,396.081 1440.1,396.081 1442.6,394.499 1445.1,392.916 1447.6,391.333 1450.1,391.333 1452.6,388.168 1455.1,385.002 1457.6,383.42 1460.1,380.254 1462.6,377.089 1465.1,377.089 1467.6,373.923 1470.1,370.758 1472.6,372.341 1475.1,372.341 1477.6,370.758 1480.11,369.175 1482.61,369.175 1485.11,369.175 1487.61,367.592 1490.11,366.01 1492.61,364.427 1495.11,362.844 1497.61,362.844 1500.11,362.844 1502.61,361.262 1505.11,358.096 1507.61,356.513 1510.11,356.513 1512.61,354.931 1515.11,351.765 1517.61,351.765 1520.11,350.182 1522.61,350.182 1525.11,350.182 1527.61,348.6 1530.11,347.017 1532.61,347.017 1535.11,348.6 1537.61,347.017 1540.12,345.434 1542.62,343.852 1545.12,342.269 1547.62,348.6 1550.12,366.01 1552.62,394.499 1555.12,424.57 1557.62,454.642 1560.12,479.965 1562.62,503.706 1565.12,522.699 1567.62,541.691 1570.12,557.519 1572.62,571.763 1575.12,584.425 1577.62,593.921 1580.12,606.583 1582.62,616.079 1585.12,625.575 1587.62,635.072 1590.12,644.568 1592.62,654.064 1595.12,661.978 1597.63,669.891 1600.13,677.805 1602.63,684.136 1605.13,690.467 1607.63,698.38 1610.13,707.877 1612.63,714.208 1615.13,720.538 1617.63,726.869 1620.13,731.617 1622.63,737.948 1625.13,742.696 1627.63,747.445 1630.13,755.358 1632.63,758.524 1635.13,761.689 1637.63,768.02 1640.13,771.185 1642.63,774.351 1645.13,777.516 1647.63,780.682 1650.13,783.847 1652.63,788.595 1655.14,791.761 1657.64,794.926 1660.14,798.092 1662.64,801.257 1665.14,802.84 1667.64,806.005 1670.14,809.171 1672.64,813.919 1675.14,817.084 1677.64,820.25 1680.14,823.415 1682.64,824.998 1685.14,828.163 1687.64,834.494 1690.14,837.66 1692.64,839.242 1695.14,840.825 1697.64,842.408 1700.14,842.408 1702.64,845.573 1705.14,848.739 1707.64,848.739 1710.14,850.321 1712.65,855.069 1715.15,859.818 1717.65,859.818 1720.15,861.4 1722.65,862.983 1725.15,864.566 1727.65,866.148 1730.15,869.314 1732.65,872.479 1735.15,874.062 1737.65,874.062 1740.15,875.645 1742.65,875.645 1745.15,877.228 1747.65,880.393 1750.15,881.976 1752.65,885.141 1755.15,886.724 1757.65,888.307 1760.15,889.889 1762.65,891.472 1765.15,893.055 1767.65,896.22 1770.16,896.22 1772.66,897.803 1775.16,897.803 1777.66,899.386 1780.16,900.968 1782.66,900.968 1785.16,902.551 1787.66,905.716 1790.16,907.299 1792.66,910.465 1795.16,910.465 1797.66,905.716 1800.16,891.472 1802.66,870.897 1805.16,848.739 1807.66,828.163 1810.16,807.588 1812.66,788.595 1815.16,772.768 1817.66,760.106 1820.16,749.027 1822.66,736.366 1825.16,723.704 1827.67,714.208 1830.17,707.877 1832.67,701.546 1835.17,693.632 1837.67,687.301 1840.17,679.388 1842.67,673.057 1845.17,666.726 1847.67,661.978 1850.17,655.647 1852.67,652.482 1855.17,646.151 1857.67,642.985 1860.17,638.237 1862.67,635.072 1865.17,628.741 1867.67,625.575 1870.17,620.827 1872.67,617.662 1875.17,614.496 1877.67,612.914 1880.17,608.165 1882.67,605 1885.18,601.835 1887.68,598.669 1890.18,595.504 1892.68,590.756 1895.18,589.173 1897.68,587.59 1900.18,584.425 1902.68,584.425 1905.18,581.259 1907.68,579.677 1910.18,579.677 1912.68,579.677 1915.18,579.677 1917.68,576.511 1920.18,573.346 1922.68,571.763 1925.18,568.598 1927.68,567.015 1930.18,565.432 1932.68,562.267 1935.18,560.684 1937.68,560.684 1940.18,559.101 1942.69,557.519 1945.19,554.353 1947.69,552.77 1950.19,551.188 1952.69,551.188 1955.19,549.605 1957.69,549.605 1960.19,546.439 1962.69,546.439 1965.19,546.439 1967.69,548.022 1970.19,546.439 1972.69,543.274 1975.19,543.274 1977.69,543.274 1980.19,540.109 1982.69,536.943 1985.19,536.943 1987.69,536.943 1990.19,536.943 1992.69,535.36 1995.19,533.778 1997.69,530.612 2000.19,529.03 2002.7,529.03 2005.2,529.03 2007.7,529.03 2010.2,527.447 2012.7,525.864 2015.2,524.281 2017.7,521.116 2020.2,521.116 2022.7,521.116 2025.2,519.533 2027.7,521.116 2030.2,517.951 2032.7,519.533 2035.2,517.951 2037.7,519.533 2040.2,519.533 2042.7,517.951 2045.2,517.951 2047.7,517.951 2050.2,521.116 2052.7,525.864 2055.2,530.612 2057.7,536.943 2060.21,543.274 2062.71,548.022 2065.21,551.188 2067.71,555.936 2070.21,557.519 2072.71,560.684 2075.21,562.267 2077.71,567.015 2080.21,571.763 2082.71,574.928 2085.21,578.094 2087.71,579.677 2090.21,579.677 2092.71,579.677 2095.21,579.677 2097.71,581.259 2100.21,581.259 2102.71,584.425 2105.21,584.425 2107.71,586.007 2110.21,587.59 2112.71,587.59 2115.21,587.59 2117.72,589.173 2120.22,589.173 2122.72,592.338 2125.22,593.921 2127.72,595.504 2130.22,595.504 2132.72,595.504 2135.22,593.921 2137.72,590.756 2140.22,587.59 2142.72,584.425 2145.22,584.425 2147.72,584.425 2150.22,586.007 2152.72,584.425 2155.22,582.842 2157.72,584.425 2160.22,589.173 2162.72,592.338 2165.22,592.338 2167.72,587.59 2170.22,582.842 2172.72,582.842 2175.23,582.842 2177.73,582.842 2180.23,584.425 2182.73,586.007 2185.23,587.59 2187.73,589.173 2190.23,590.756 2192.73,592.338 2195.23,593.921 2197.73,595.504 2200.23,598.669 2202.73,601.835 2205.23,603.417 2207.73,606.583 2210.23,608.165 2212.73,612.914 2215.23,614.496 2217.73,611.331 2220.23,609.748 2222.73,609.748 2225.23,609.748 2227.73,609.748 2230.23,612.914 2232.74,612.914 2235.24,614.496 2237.74,616.079 2240.24,616.079 2242.74,616.079 2245.24,616.079 2247.74,616.079 2250.24,619.245 2252.74,619.245 2255.24,619.245 2257.74,620.827 2260.24,622.41 2262.74,622.41 2265.24,623.993 2267.74,622.41 2270.24,622.41 2272.74,620.827 2275.24,620.827 2277.74,619.245 2280.24,619.245 2282.74,622.41 2285.24,622.41 2287.74,623.993 2290.25,623.993 2292.75,623.993 "/>
<path clip-path="url(#clip820)" d="M303.068 322.316 L542.264 322.316 L542.264 166.796 L303.068 166.796  Z" fill="#000000" fill-rule="evenodd" fill-opacity="1"/>
<polyline clip-path="url(#clip820)" style="stroke:#ffffff; stroke-linecap:round; stroke-linejoin:round; stroke-width:4; stroke-opacity:1; fill:none" points="303.068,322.316 542.264,322.316 542.264,166.796 303.068,166.796 303.068,322.316 "/>
<polyline clip-path="url(#clip820)" style="stroke:#66c2a4; stroke-linecap:round; stroke-linejoin:round; stroke-width:8; stroke-opacity:1; fill:none" points="326.628,218.636 467.986,218.636 "/>
<path clip-path="url(#clip820)" d="M516.209 222 Q515.6 225.021 514.78 226.754 Q513.445 229.401 511.22 229.401 Q509.674 229.401 508.503 228.534 Q507.355 227.644 506.957 226.169 Q506.512 226.754 506.114 227.152 Q505.739 227.551 505.013 228.16 Q504.287 228.745 503.303 229.073 Q502.343 229.401 501.242 229.401 Q500.399 229.401 499.626 229.237 Q498.853 229.097 498.033 228.698 Q497.237 228.277 496.651 227.644 Q496.089 227.012 495.714 225.981 Q495.34 224.951 495.34 223.639 Q495.34 222 495.972 219.774 Q496.628 217.549 498.127 213.567 Q498.947 211.459 498.947 210.288 Q498.947 209.75 498.83 209.398 Q498.713 209.047 498.478 208.93 Q498.268 208.789 498.127 208.766 Q497.986 208.719 497.752 208.719 Q496.3 208.719 495.035 210.195 Q493.77 211.67 492.904 214.668 Q492.716 215.254 492.599 215.394 Q492.482 215.535 492.131 215.535 Q491.545 215.511 491.545 215.043 Q491.545 214.856 491.756 214.13 Q491.967 213.38 492.459 212.279 Q492.974 211.155 493.677 210.148 Q494.379 209.117 495.48 208.391 Q496.605 207.665 497.893 207.665 Q499.649 207.665 500.727 208.813 Q501.828 209.937 501.828 211.6 Q501.828 212.631 501.008 214.621 Q498.408 221.531 498.408 224.412 Q498.408 228.324 501.383 228.324 Q502.366 228.324 503.28 227.925 Q504.217 227.527 504.826 226.965 Q505.435 226.403 505.903 225.794 Q506.395 225.185 506.606 224.787 Q506.84 224.389 506.864 224.295 L510.447 209.867 Q510.588 209.305 510.845 208.93 Q511.126 208.532 511.454 208.391 Q511.782 208.251 511.97 208.227 Q512.157 208.18 512.321 208.18 Q512.907 208.18 513.305 208.532 Q513.726 208.883 513.726 209.492 Q513.726 209.609 513.586 210.171 Q513.469 210.71 513.281 211.506 Q513.094 212.279 513 212.701 Q512.251 215.652 512.18 215.957 L510.845 221.133 Q510.775 221.437 510.541 222.421 Q510.33 223.405 510.213 223.92 Q510.096 224.412 509.979 225.091 Q509.885 225.747 509.885 226.122 Q509.885 227.293 510.236 227.808 Q510.588 228.324 511.361 228.324 Q512.087 228.324 512.649 227.832 Q513.234 227.316 513.679 226.333 Q514.124 225.325 514.382 224.506 Q514.64 223.686 514.968 222.398 Q515.085 221.836 515.179 221.695 Q515.296 221.531 515.624 221.531 Q516.209 221.531 516.209 222 Z" fill="#ffffff" fill-rule="nonzero" fill-opacity="1" /><polyline clip-path="url(#clip820)" style="stroke:#fb8d61; stroke-linecap:round; stroke-linejoin:round; stroke-width:8; stroke-opacity:1; fill:none" points="326.628,270.476 467.986,270.476 "/>
<path clip-path="url(#clip820)" d="M513.679 256.73 Q513.679 257.058 513.469 257.831 L508.878 276.148 Q507.871 280.223 504.592 283.081 Q501.336 285.938 497.635 285.938 Q495.41 285.938 493.981 284.744 Q492.552 283.572 492.552 281.769 Q492.552 280.176 493.396 279.403 Q494.239 278.654 495.246 278.654 Q495.574 278.654 495.925 278.747 Q496.277 278.841 496.651 279.239 Q497.026 279.638 497.026 280.317 Q497.026 281.418 496.066 282.284 Q495.597 282.682 495.152 282.776 Q494.731 282.87 494.005 282.87 Q494.286 283.526 494.801 283.971 Q495.316 284.416 495.902 284.58 Q496.487 284.767 496.862 284.814 Q497.26 284.884 497.635 284.884 Q500.633 284.884 502.929 281.863 Q503.608 280.949 504.1 280.036 Q504.615 279.146 504.99 278.045 Q505.365 276.967 505.528 276.382 Q505.716 275.796 506.044 274.461 Q503.865 276.639 501.195 276.639 Q500.071 276.639 499.064 276.335 Q498.08 276.03 497.213 275.398 Q496.347 274.742 495.832 273.595 Q495.34 272.447 495.34 270.924 Q495.34 269.308 495.972 267.106 Q496.605 264.905 498.127 260.853 Q498.947 258.581 498.947 257.48 Q498.947 256.941 498.83 256.613 Q498.713 256.262 498.478 256.145 Q498.244 256.004 498.104 255.981 Q497.986 255.957 497.752 255.957 Q496.37 255.957 495.082 257.363 Q493.794 258.768 492.904 261.907 Q492.716 262.492 492.599 262.633 Q492.482 262.773 492.131 262.773 Q491.545 262.75 491.545 262.281 Q491.545 262.094 491.756 261.368 Q491.967 260.618 492.459 259.518 Q492.974 258.393 493.677 257.386 Q494.379 256.356 495.48 255.629 Q496.605 254.903 497.893 254.903 Q499.649 254.903 500.727 256.051 Q501.828 257.175 501.828 258.838 Q501.828 259.518 501.64 260.127 Q501.476 260.712 500.867 262.281 Q498.408 268.606 498.408 271.697 Q498.408 272.447 498.525 273.079 Q498.666 273.688 498.97 274.297 Q499.275 274.883 499.884 275.234 Q500.516 275.562 501.383 275.562 Q502.484 275.562 503.514 275.047 Q504.568 274.508 505.224 273.782 Q505.903 273.056 506.301 272.447 Q506.723 271.814 506.817 271.486 L508.972 262.867 L509.932 259.026 Q510.377 256.941 510.588 256.426 Q510.869 255.934 511.361 255.676 Q511.853 255.419 512.274 255.419 Q512.86 255.419 513.258 255.77 Q513.679 256.121 513.679 256.73 Z" fill="#ffffff" fill-rule="nonzero" fill-opacity="1" /></svg>
